<svg width="100%" min-height="0" viewBox="0 0 594 214" fill="none"
  xmlns="http://www.w3.org/2000/svg">
  <g id="Bit Ether Section - main V2" clip-path="url(#clip0_44_21)">
    <rect width="594" height="214" fill="#F7F9FC"/>
    <rect id="bit_3" x="98.97" y="85.6123" width="396.06" height="74.1728" fill="#E4E8F2"/>
    <rect id="bit_2" x="84.53" y="68.524" width="424.94" height="79.5813" fill="#F0F3F9"/>
    <g id="bit_1">
      <rect id="Rectangle" x="69.53" y="54.2149" width="454.94" height="85.1996" fill="white"/>
      <g id="bitcoin_icon">
        <path id="Vector" d="M118.398 100.974C116.102 110.185 106.773 115.79 97.5612 113.493C88.3531 111.197 82.7476 101.868 85.045 92.6573C87.3403 83.4455 96.6693 77.8394 105.878 80.1358C115.09 82.4322 120.695 91.7627 118.398 100.974V100.974Z" fill="#F7931A"/>
        <path id="Vector_2" d="M109.302 94.3653C109.644 92.0775 107.902 90.8477 105.52 90.0272L106.293 86.9281L104.407 86.458L103.654 89.4754C103.159 89.3518 102.649 89.2352 102.143 89.1197L102.901 86.0824L101.015 85.6123L100.242 88.7103C99.8317 88.6168 99.4287 88.5244 99.0376 88.4272L99.0397 88.4175L96.4382 87.7679L95.9363 89.7827C95.9363 89.7827 97.336 90.1035 97.3064 90.1234C98.0704 90.3141 98.2085 90.8197 98.1854 91.2205L97.3053 94.7511C97.358 94.7645 97.4262 94.7838 97.5015 94.8139C97.4386 94.7983 97.3714 94.7811 97.3021 94.7645L96.0685 99.7102C95.975 99.9423 95.7381 100.291 95.204 100.158C95.2228 100.186 93.8328 99.8161 93.8328 99.8161L92.8963 101.975L95.3512 102.587C95.8079 102.702 96.2555 102.822 96.6961 102.935L95.9154 106.069L97.7996 106.539L98.5728 103.438C99.0875 103.578 99.5872 103.707 100.076 103.828L99.3057 106.915L101.192 107.385L101.973 104.256C105.19 104.865 107.608 104.619 108.627 101.71C109.447 99.3674 108.586 98.0162 106.893 97.135C108.126 96.8508 109.054 96.04 109.302 94.3653V94.3653ZM104.992 100.409C104.409 102.752 100.465 101.485 99.1859 101.168L100.222 97.0152C101.5 97.3343 105.601 97.9662 104.992 100.409ZM105.575 94.3314C105.043 96.4623 101.761 95.3797 100.696 95.1143L101.635 91.3479C102.7 91.6133 106.129 92.1087 105.575 94.3314V94.3314Z" fill="white"/>
      </g>
      <g id="Vector_3">
        <path d="M143.543 93.8347C143.964 93.8347 144.319 93.7867 144.607 93.6907C144.9 93.5894 145.138 93.4534 145.319 93.2827C145.506 93.1121 145.639 92.912 145.719 92.6827C145.804 92.448 145.847 92.1974 145.847 91.9307C145.847 91.3867 145.66 90.96 145.287 90.6507C144.919 90.3361 144.335 90.1787 143.535 90.1787H141.223V93.8347H143.543ZM141.223 85.2587V88.8587H143.095C143.895 88.8587 144.492 88.704 144.887 88.3947C145.282 88.0854 145.479 87.64 145.479 87.0587C145.479 86.424 145.292 85.9654 144.919 85.6827C144.551 85.4 143.972 85.2587 143.183 85.2587H141.223ZM143.183 83.7947C143.919 83.7947 144.548 83.8667 145.071 84.0107C145.594 84.1494 146.023 84.3494 146.359 84.6107C146.695 84.872 146.94 85.192 147.095 85.5707C147.255 85.944 147.335 86.3654 147.335 86.8347C147.335 87.1067 147.292 87.3707 147.207 87.6267C147.127 87.8774 146.999 88.1147 146.823 88.3387C146.652 88.5574 146.436 88.7547 146.175 88.9307C145.914 89.1067 145.604 89.2534 145.247 89.3707C146.879 89.7174 147.695 90.584 147.695 91.9707C147.695 92.4614 147.602 92.912 147.415 93.3227C147.234 93.728 146.967 94.08 146.615 94.3787C146.268 94.672 145.839 94.9014 145.327 95.0667C144.815 95.232 144.231 95.3147 143.575 95.3147H139.351V83.7947H143.183Z" fill="black"/>
        <path d="M151.12 87.1547V95.3147H149.4V87.1547H151.12ZM151.408 84.6907C151.408 84.8454 151.376 84.992 151.312 85.1307C151.253 85.2694 151.171 85.392 151.064 85.4987C150.957 85.6 150.832 85.6827 150.688 85.7467C150.549 85.8054 150.4 85.8347 150.24 85.8347C150.085 85.8347 149.939 85.8054 149.8 85.7467C149.667 85.6827 149.549 85.6 149.448 85.4987C149.347 85.392 149.264 85.2694 149.2 85.1307C149.141 84.992 149.112 84.8454 149.112 84.6907C149.112 84.5307 149.141 84.3814 149.2 84.2427C149.264 84.104 149.347 83.984 149.448 83.8827C149.549 83.776 149.667 83.6934 149.8 83.6347C149.939 83.5707 150.085 83.5387 150.24 83.5387C150.4 83.5387 150.549 83.5707 150.688 83.6347C150.832 83.6934 150.957 83.776 151.064 83.8827C151.171 83.984 151.253 84.104 151.312 84.2427C151.376 84.3814 151.408 84.5307 151.408 84.6907Z" fill="black"/>
        <path d="M155.897 95.4427C155.22 95.4427 154.697 95.2534 154.329 94.8747C153.966 94.4907 153.785 93.952 153.785 93.2587V88.5067H152.889C152.793 88.5067 152.71 88.4774 152.641 88.4187C152.572 88.3547 152.537 88.2614 152.537 88.1387V87.4427L153.857 87.2507L154.233 84.8907C154.26 84.8 154.305 84.728 154.369 84.6747C154.433 84.616 154.518 84.5867 154.625 84.5867H155.505V87.2667H157.769V88.5067H155.505V93.1387C155.505 93.432 155.577 93.656 155.721 93.8107C155.865 93.9654 156.057 94.0427 156.297 94.0427C156.43 94.0427 156.545 94.0267 156.641 93.9947C156.737 93.9574 156.82 93.92 156.889 93.8827C156.958 93.84 157.017 93.8027 157.065 93.7707C157.118 93.7334 157.169 93.7147 157.217 93.7147C157.313 93.7147 157.39 93.768 157.449 93.8747L157.961 94.7147C157.694 94.9494 157.38 95.1307 157.017 95.2587C156.654 95.3814 156.281 95.4427 155.897 95.4427Z" fill="black"/>
        <path d="M164.83 88.7547C164.777 88.824 164.726 88.8774 164.678 88.9147C164.63 88.952 164.561 88.9707 164.47 88.9707C164.38 88.9707 164.284 88.9387 164.182 88.8747C164.086 88.8107 163.969 88.7414 163.83 88.6667C163.697 88.5867 163.534 88.5147 163.342 88.4507C163.15 88.3867 162.91 88.3547 162.622 88.3547C162.249 88.3547 161.921 88.4214 161.638 88.5547C161.361 88.688 161.126 88.88 160.934 89.1307C160.748 89.376 160.606 89.6774 160.51 90.0347C160.42 90.3867 160.374 90.784 160.374 91.2267C160.374 91.6854 160.425 92.0934 160.526 92.4507C160.628 92.808 160.772 93.1094 160.958 93.3547C161.15 93.6 161.38 93.7867 161.646 93.9147C161.918 94.0427 162.222 94.1067 162.558 94.1067C162.889 94.1067 163.158 94.0667 163.366 93.9867C163.574 93.9067 163.748 93.8187 163.886 93.7227C164.025 93.6267 164.142 93.5387 164.238 93.4587C164.34 93.3787 164.446 93.3387 164.558 93.3387C164.697 93.3387 164.804 93.392 164.878 93.4987L165.366 94.1307C165.169 94.3707 164.95 94.5734 164.71 94.7387C164.47 94.904 164.217 95.04 163.95 95.1467C163.684 95.248 163.406 95.3201 163.118 95.3627C162.83 95.4107 162.54 95.4347 162.246 95.4347C161.74 95.4347 161.265 95.3414 160.822 95.1547C160.385 94.9627 160.001 94.688 159.67 94.3307C159.345 93.968 159.086 93.528 158.894 93.0107C158.708 92.488 158.614 91.8934 158.614 91.2267C158.614 90.624 158.7 90.0667 158.87 89.5547C159.041 89.0374 159.289 88.592 159.614 88.2187C159.945 87.8454 160.353 87.5547 160.838 87.3467C161.324 87.1334 161.884 87.0267 162.518 87.0267C163.11 87.0267 163.63 87.1227 164.078 87.3147C164.532 87.5067 164.934 87.7787 165.286 88.1307L164.83 88.7547Z" fill="black"/>
        <path d="M170.137 87.0267C170.74 87.0267 171.284 87.1254 171.769 87.3227C172.26 87.52 172.676 87.8 173.017 88.1627C173.364 88.5254 173.631 88.9654 173.817 89.4827C174.004 90 174.097 90.5814 174.097 91.2267C174.097 91.872 174.004 92.4534 173.817 92.9707C173.631 93.488 173.364 93.9307 173.017 94.2987C172.676 94.6614 172.26 94.9414 171.769 95.1387C171.284 95.3361 170.74 95.4347 170.137 95.4347C169.529 95.4347 168.98 95.3361 168.489 95.1387C168.004 94.9414 167.588 94.6614 167.241 94.2987C166.895 93.9307 166.628 93.488 166.441 92.9707C166.255 92.4534 166.161 91.872 166.161 91.2267C166.161 90.5814 166.255 90 166.441 89.4827C166.628 88.9654 166.895 88.5254 167.241 88.1627C167.588 87.8 168.004 87.52 168.489 87.3227C168.98 87.1254 169.529 87.0267 170.137 87.0267ZM170.137 94.0907C170.873 94.0907 171.42 93.8454 171.777 93.3547C172.14 92.8587 172.321 92.152 172.321 91.2347C172.321 90.3174 172.14 89.6107 171.777 89.1147C171.42 88.6134 170.873 88.3627 170.137 88.3627C169.391 88.3627 168.836 88.6134 168.473 89.1147C168.111 89.6107 167.929 90.3174 167.929 91.2347C167.929 92.152 168.111 92.8587 168.473 93.3547C168.836 93.8454 169.391 94.0907 170.137 94.0907Z" fill="black"/>
        <path d="M177.542 87.1547V95.3147H175.822V87.1547H177.542ZM177.83 84.6907C177.83 84.8454 177.798 84.992 177.734 85.1307C177.675 85.2694 177.593 85.392 177.486 85.4987C177.379 85.6 177.254 85.6827 177.11 85.7467C176.971 85.8054 176.822 85.8347 176.662 85.8347C176.507 85.8347 176.361 85.8054 176.222 85.7467C176.089 85.6827 175.971 85.6 175.87 85.4987C175.769 85.392 175.686 85.2694 175.622 85.1307C175.563 84.992 175.534 84.8454 175.534 84.6907C175.534 84.5307 175.563 84.3814 175.622 84.2427C175.686 84.104 175.769 83.984 175.87 83.8827C175.971 83.776 176.089 83.6934 176.222 83.6347C176.361 83.5707 176.507 83.5387 176.662 83.5387C176.822 83.5387 176.971 83.5707 177.11 83.6347C177.254 83.6934 177.379 83.776 177.486 83.8827C177.593 83.984 177.675 84.104 177.734 84.2427C177.798 84.3814 177.83 84.5307 177.83 84.6907Z" fill="black"/>
        <path d="M181.311 88.2347C181.487 88.0534 181.668 87.8907 181.855 87.7467C182.047 87.5974 182.25 87.4694 182.463 87.3627C182.676 87.256 182.903 87.1734 183.143 87.1147C183.383 87.056 183.644 87.0267 183.927 87.0267C184.375 87.0267 184.767 87.1014 185.103 87.2507C185.444 87.4 185.73 87.6107 185.959 87.8827C186.194 88.1547 186.37 88.4827 186.487 88.8667C186.604 89.2454 186.663 89.664 186.663 90.1227V95.3147H184.951V90.1227C184.951 89.5734 184.823 89.1467 184.567 88.8427C184.316 88.5387 183.932 88.3867 183.415 88.3867C183.031 88.3867 182.674 88.4747 182.343 88.6507C182.018 88.8267 181.711 89.0667 181.423 89.3707V95.3147H179.703V87.1547H180.743C180.978 87.1547 181.127 87.264 181.191 87.4827L181.311 88.2347Z" fill="black"/>
        <path d="M146.353 105.15V112.315H145.503V107.05C145.503 106.98 145.505 106.905 145.508 106.825C145.515 106.745 145.521 106.663 145.528 106.58L143.068 111.06C142.991 111.21 142.875 111.285 142.718 111.285H142.578C142.421 111.285 142.305 111.21 142.228 111.06L139.718 106.56C139.738 106.736 139.748 106.9 139.748 107.05V112.315H138.898V105.15H139.613C139.7 105.15 139.766 105.158 139.813 105.175C139.86 105.191 139.905 105.238 139.948 105.315L142.423 109.725C142.463 109.805 142.501 109.888 142.538 109.975C142.578 110.061 142.615 110.15 142.648 110.24C142.681 110.15 142.716 110.061 142.753 109.975C142.79 109.885 142.83 109.8 142.873 109.72L145.303 105.315C145.343 105.238 145.386 105.191 145.433 105.175C145.483 105.158 145.551 105.15 145.638 105.15H146.353Z" fill="#707789"/>
        <path d="M150.574 110.035C150.164 110.048 149.814 110.081 149.524 110.135C149.237 110.185 149.002 110.251 148.819 110.335C148.639 110.418 148.507 110.516 148.424 110.63C148.344 110.743 148.304 110.87 148.304 111.01C148.304 111.143 148.325 111.258 148.369 111.355C148.412 111.451 148.47 111.531 148.544 111.595C148.62 111.655 148.709 111.7 148.809 111.73C148.912 111.756 149.022 111.77 149.139 111.77C149.295 111.77 149.439 111.755 149.569 111.725C149.699 111.691 149.82 111.645 149.934 111.585C150.05 111.525 150.16 111.453 150.264 111.37C150.37 111.286 150.474 111.191 150.574 111.085V110.035ZM147.699 107.965C147.979 107.695 148.28 107.493 148.604 107.36C148.927 107.226 149.285 107.16 149.679 107.16C149.962 107.16 150.214 107.206 150.434 107.3C150.654 107.393 150.839 107.523 150.989 107.69C151.139 107.856 151.252 108.058 151.329 108.295C151.405 108.531 151.444 108.791 151.444 109.075V112.315H151.049C150.962 112.315 150.895 112.301 150.849 112.275C150.802 112.245 150.765 112.188 150.739 112.105L150.639 111.625C150.505 111.748 150.375 111.858 150.249 111.955C150.122 112.048 149.989 112.128 149.849 112.195C149.709 112.258 149.559 112.306 149.399 112.34C149.242 112.376 149.067 112.395 148.874 112.395C148.677 112.395 148.492 112.368 148.319 112.315C148.145 112.258 147.994 112.175 147.864 112.065C147.737 111.955 147.635 111.816 147.559 111.65C147.485 111.48 147.449 111.28 147.449 111.05C147.449 110.85 147.504 110.658 147.614 110.475C147.724 110.288 147.902 110.123 148.149 109.98C148.395 109.836 148.717 109.72 149.114 109.63C149.51 109.536 149.997 109.483 150.574 109.47V109.075C150.574 108.681 150.489 108.385 150.319 108.185C150.149 107.981 149.9 107.88 149.574 107.88C149.354 107.88 149.169 107.908 149.019 107.965C148.872 108.018 148.744 108.08 148.634 108.15C148.527 108.216 148.434 108.278 148.354 108.335C148.277 108.388 148.2 108.415 148.124 108.415C148.064 108.415 148.012 108.4 147.969 108.37C147.925 108.336 147.889 108.296 147.859 108.25L147.699 107.965Z" fill="#707789"/>
        <path d="M153.644 108.265C153.804 107.918 154.001 107.648 154.234 107.455C154.468 107.258 154.753 107.16 155.089 107.16C155.196 107.16 155.298 107.171 155.394 107.195C155.494 107.218 155.583 107.255 155.659 107.305L155.594 107.97C155.574 108.053 155.524 108.095 155.444 108.095C155.398 108.095 155.329 108.085 155.239 108.065C155.149 108.045 155.048 108.035 154.934 108.035C154.774 108.035 154.631 108.058 154.504 108.105C154.381 108.151 154.269 108.221 154.169 108.315C154.073 108.405 153.984 108.518 153.904 108.655C153.828 108.788 153.758 108.941 153.694 109.115V112.315H152.799V107.25H153.309C153.406 107.25 153.473 107.268 153.509 107.305C153.546 107.341 153.571 107.405 153.584 107.495L153.644 108.265Z" fill="#707789"/>
        <path d="M157.337 104.95V109.285H157.567C157.634 109.285 157.689 109.276 157.732 109.26C157.779 109.24 157.827 109.201 157.877 109.145L159.477 107.43C159.524 107.373 159.572 107.33 159.622 107.3C159.675 107.266 159.745 107.25 159.832 107.25H160.637L158.772 109.235C158.682 109.348 158.585 109.436 158.482 109.5C158.542 109.54 158.595 109.586 158.642 109.64C158.692 109.69 158.739 109.748 158.782 109.815L160.762 112.315H159.967C159.89 112.315 159.824 112.303 159.767 112.28C159.714 112.253 159.667 112.206 159.627 112.14L157.962 110.065C157.912 109.995 157.862 109.95 157.812 109.93C157.765 109.906 157.692 109.895 157.592 109.895H157.337V112.315H156.442V104.95H157.337Z" fill="#707789"/>
        <path d="M164.627 109.23C164.627 109.023 164.597 108.835 164.537 108.665C164.48 108.491 164.395 108.343 164.282 108.22C164.172 108.093 164.037 107.996 163.877 107.93C163.717 107.86 163.535 107.825 163.332 107.825C162.905 107.825 162.567 107.95 162.317 108.2C162.07 108.446 161.917 108.79 161.857 109.23H164.627ZM165.347 111.605C165.237 111.738 165.105 111.855 164.952 111.955C164.799 112.051 164.634 112.131 164.457 112.195C164.284 112.258 164.104 112.305 163.917 112.335C163.73 112.368 163.545 112.385 163.362 112.385C163.012 112.385 162.689 112.326 162.392 112.21C162.099 112.09 161.844 111.916 161.627 111.69C161.414 111.46 161.247 111.176 161.127 110.84C161.007 110.503 160.947 110.116 160.947 109.68C160.947 109.326 161 108.996 161.107 108.69C161.217 108.383 161.374 108.118 161.577 107.895C161.78 107.668 162.029 107.491 162.322 107.365C162.615 107.235 162.945 107.17 163.312 107.17C163.615 107.17 163.895 107.221 164.152 107.325C164.412 107.425 164.635 107.571 164.822 107.765C165.012 107.955 165.16 108.191 165.267 108.475C165.374 108.755 165.427 109.075 165.427 109.435C165.427 109.575 165.412 109.668 165.382 109.715C165.352 109.761 165.295 109.785 165.212 109.785H161.827C161.837 110.105 161.88 110.383 161.957 110.62C162.037 110.856 162.147 111.055 162.287 111.215C162.427 111.371 162.594 111.49 162.787 111.57C162.98 111.646 163.197 111.685 163.437 111.685C163.66 111.685 163.852 111.66 164.012 111.61C164.175 111.556 164.315 111.5 164.432 111.44C164.549 111.38 164.645 111.325 164.722 111.275C164.802 111.221 164.87 111.195 164.927 111.195C165 111.195 165.057 111.223 165.097 111.28L165.347 111.605Z" fill="#707789"/>
        <path d="M168.036 112.395C167.636 112.395 167.328 112.283 167.111 112.06C166.898 111.836 166.791 111.515 166.791 111.095V107.995H166.181C166.128 107.995 166.083 107.98 166.046 107.95C166.009 107.916 165.991 107.866 165.991 107.8V107.445L166.821 107.34L167.026 105.775C167.036 105.725 167.058 105.685 167.091 105.655C167.128 105.621 167.174 105.605 167.231 105.605H167.681V107.35H169.146V107.995H167.681V111.035C167.681 111.248 167.733 111.406 167.836 111.51C167.939 111.613 168.073 111.665 168.236 111.665C168.329 111.665 168.409 111.653 168.476 111.63C168.546 111.603 168.606 111.575 168.656 111.545C168.706 111.515 168.748 111.488 168.781 111.465C168.818 111.438 168.849 111.425 168.876 111.425C168.923 111.425 168.964 111.453 169.001 111.51L169.261 111.935C169.108 112.078 168.923 112.191 168.706 112.275C168.489 112.355 168.266 112.395 168.036 112.395Z" fill="#707789"/>
        <path d="M179.454 108.735C179.454 109.271 179.369 109.765 179.199 110.215C179.029 110.661 178.789 111.046 178.479 111.37C178.169 111.693 177.795 111.945 177.359 112.125C176.925 112.301 176.445 112.39 175.919 112.39C175.392 112.39 174.912 112.301 174.479 112.125C174.045 111.945 173.674 111.693 173.364 111.37C173.054 111.046 172.814 110.661 172.644 110.215C172.474 109.765 172.389 109.271 172.389 108.735C172.389 108.198 172.474 107.706 172.644 107.26C172.814 106.81 173.054 106.423 173.364 106.1C173.674 105.773 174.045 105.52 174.479 105.34C174.912 105.16 175.392 105.07 175.919 105.07C176.445 105.07 176.925 105.16 177.359 105.34C177.795 105.52 178.169 105.773 178.479 106.1C178.789 106.423 179.029 106.81 179.199 107.26C179.369 107.706 179.454 108.198 179.454 108.735ZM178.459 108.735C178.459 108.295 178.399 107.9 178.279 107.55C178.159 107.2 177.989 106.905 177.769 106.665C177.549 106.421 177.282 106.235 176.969 106.105C176.655 105.975 176.305 105.91 175.919 105.91C175.535 105.91 175.187 105.975 174.874 106.105C174.56 106.235 174.292 106.421 174.069 106.665C173.849 106.905 173.679 107.2 173.559 107.55C173.439 107.9 173.379 108.295 173.379 108.735C173.379 109.175 173.439 109.57 173.559 109.92C173.679 110.266 173.849 110.561 174.069 110.805C174.292 111.045 174.56 111.23 174.874 111.36C175.187 111.486 175.535 111.55 175.919 111.55C176.305 111.55 176.655 111.486 176.969 111.36C177.282 111.23 177.549 111.045 177.769 110.805C177.989 110.561 178.159 110.266 178.279 109.92C178.399 109.57 178.459 109.175 178.459 108.735Z" fill="#707789"/>
        <path d="M181.379 108.265C181.539 107.918 181.736 107.648 181.969 107.455C182.202 107.258 182.487 107.16 182.824 107.16C182.931 107.16 183.032 107.171 183.129 107.195C183.229 107.218 183.317 107.255 183.394 107.305L183.329 107.97C183.309 108.053 183.259 108.095 183.179 108.095C183.132 108.095 183.064 108.085 182.974 108.065C182.884 108.045 182.782 108.035 182.669 108.035C182.509 108.035 182.366 108.058 182.239 108.105C182.116 108.151 182.004 108.221 181.904 108.315C181.807 108.405 181.719 108.518 181.639 108.655C181.562 108.788 181.492 108.941 181.429 109.115V112.315H180.534V107.25H181.044C181.141 107.25 181.207 107.268 181.244 107.305C181.281 107.341 181.306 107.405 181.319 107.495L181.379 108.265Z" fill="#707789"/>
        <path d="M187.281 108.455C187.114 108.231 186.934 108.076 186.741 107.99C186.548 107.9 186.331 107.855 186.091 107.855C185.621 107.855 185.259 108.023 185.006 108.36C184.753 108.696 184.626 109.176 184.626 109.8C184.626 110.13 184.654 110.413 184.711 110.65C184.768 110.883 184.851 111.076 184.961 111.23C185.071 111.38 185.206 111.49 185.366 111.56C185.526 111.63 185.708 111.665 185.911 111.665C186.204 111.665 186.459 111.598 186.676 111.465C186.896 111.331 187.098 111.143 187.281 110.9V108.455ZM188.171 104.95V112.315H187.641C187.514 112.315 187.434 112.253 187.401 112.13L187.321 111.515C187.104 111.775 186.858 111.985 186.581 112.145C186.304 112.305 185.984 112.385 185.621 112.385C185.331 112.385 185.068 112.33 184.831 112.22C184.594 112.106 184.393 111.941 184.226 111.725C184.059 111.508 183.931 111.238 183.841 110.915C183.751 110.591 183.706 110.22 183.706 109.8C183.706 109.426 183.756 109.08 183.856 108.76C183.956 108.436 184.099 108.156 184.286 107.92C184.473 107.683 184.701 107.498 184.971 107.365C185.244 107.228 185.551 107.16 185.891 107.16C186.201 107.16 186.466 107.213 186.686 107.32C186.909 107.423 187.108 107.568 187.281 107.755V104.95H188.171Z" fill="#707789"/>
        <path d="M192.967 109.23C192.967 109.023 192.937 108.835 192.877 108.665C192.82 108.491 192.735 108.343 192.622 108.22C192.512 108.093 192.377 107.996 192.217 107.93C192.057 107.86 191.875 107.825 191.672 107.825C191.245 107.825 190.907 107.95 190.657 108.2C190.41 108.446 190.257 108.79 190.197 109.23H192.967ZM193.687 111.605C193.577 111.738 193.445 111.855 193.292 111.955C193.139 112.051 192.973 112.131 192.797 112.195C192.623 112.258 192.444 112.305 192.257 112.335C192.07 112.368 191.885 112.385 191.702 112.385C191.352 112.385 191.029 112.326 190.732 112.21C190.439 112.09 190.184 111.916 189.967 111.69C189.754 111.46 189.587 111.176 189.467 110.84C189.347 110.503 189.287 110.116 189.287 109.68C189.287 109.326 189.34 108.996 189.447 108.69C189.557 108.383 189.714 108.118 189.917 107.895C190.12 107.668 190.369 107.491 190.662 107.365C190.955 107.235 191.285 107.17 191.652 107.17C191.955 107.17 192.235 107.221 192.492 107.325C192.752 107.425 192.975 107.571 193.162 107.765C193.352 107.955 193.5 108.191 193.607 108.475C193.714 108.755 193.767 109.075 193.767 109.435C193.767 109.575 193.752 109.668 193.722 109.715C193.692 109.761 193.635 109.785 193.552 109.785H190.167C190.177 110.105 190.22 110.383 190.297 110.62C190.377 110.856 190.487 111.055 190.627 111.215C190.767 111.371 190.934 111.49 191.127 111.57C191.32 111.646 191.537 111.685 191.777 111.685C192 111.685 192.192 111.66 192.352 111.61C192.515 111.556 192.655 111.5 192.772 111.44C192.889 111.38 192.985 111.325 193.062 111.275C193.142 111.221 193.21 111.195 193.267 111.195C193.34 111.195 193.397 111.223 193.437 111.28L193.687 111.605Z" fill="#707789"/>
        <path d="M195.705 108.265C195.865 107.918 196.062 107.648 196.295 107.455C196.528 107.258 196.813 107.16 197.15 107.16C197.257 107.16 197.358 107.171 197.455 107.195C197.555 107.218 197.643 107.255 197.72 107.305L197.655 107.97C197.635 108.053 197.585 108.095 197.505 108.095C197.458 108.095 197.39 108.085 197.3 108.065C197.21 108.045 197.108 108.035 196.995 108.035C196.835 108.035 196.692 108.058 196.565 108.105C196.442 108.151 196.33 108.221 196.23 108.315C196.133 108.405 196.045 108.518 195.965 108.655C195.888 108.788 195.818 108.941 195.755 109.115V112.315H194.86V107.25H195.37C195.467 107.25 195.533 107.268 195.57 107.305C195.607 107.341 195.632 107.405 195.645 107.495L195.705 108.265Z" fill="#707789"/>
        <path d="M427.982 90.5947H424.806V93.9467H423.406V90.5947H420.246V89.2987H423.406V85.9547H424.806V89.2987H427.982V90.5947Z" fill="black"/>
        <path d="M437.712 93.9707C438.346 93.896 438.826 93.688 439.152 93.3467C439.482 93.0054 439.648 92.5654 439.648 92.0267C439.648 91.7974 439.605 91.5974 439.52 91.4267C439.434 91.256 439.317 91.1067 439.168 90.9787C439.024 90.8507 438.85 90.7414 438.648 90.6507C438.445 90.5547 438.226 90.4667 437.992 90.3867L437.712 93.9707ZM437.32 85.1627C437 85.1947 436.725 85.2614 436.496 85.3627C436.266 85.4587 436.077 85.5787 435.928 85.7227C435.778 85.8614 435.669 86.0187 435.6 86.1947C435.53 86.3707 435.496 86.5574 435.496 86.7547C435.496 86.9787 435.536 87.176 435.616 87.3467C435.696 87.5174 435.805 87.6694 435.944 87.8027C436.088 87.9307 436.256 88.0454 436.448 88.1467C436.64 88.2427 436.848 88.3334 437.072 88.4187L437.32 85.1627ZM438.12 88.7547C438.504 88.872 438.882 89.0027 439.256 89.1467C439.634 89.2854 439.973 89.4667 440.272 89.6907C440.57 89.9094 440.81 90.184 440.992 90.5147C441.178 90.8454 441.272 91.2587 441.272 91.7547C441.272 92.24 441.189 92.6987 441.024 93.1307C440.864 93.5574 440.626 93.936 440.312 94.2667C439.997 94.592 439.61 94.8587 439.152 95.0667C438.698 95.2694 438.181 95.3894 437.6 95.4267L437.504 96.7067C437.498 96.8187 437.453 96.92 437.368 97.0107C437.282 97.1067 437.173 97.1547 437.04 97.1547H436.4L436.536 95.4027C435.906 95.328 435.32 95.1627 434.776 94.9067C434.237 94.6454 433.776 94.32 433.392 93.9307L433.912 93.1387C433.96 93.0694 434.021 93.0134 434.096 92.9707C434.176 92.9227 434.261 92.8987 434.352 92.8987C434.464 92.8987 434.584 92.944 434.712 93.0347C434.845 93.1254 435 93.232 435.176 93.3547C435.352 93.472 435.56 93.5894 435.8 93.7067C436.04 93.8187 436.322 93.9014 436.648 93.9547L436.944 90.0747C436.57 89.9627 436.2 89.8374 435.832 89.6987C435.469 89.5547 435.141 89.3654 434.848 89.1307C434.56 88.896 434.325 88.6027 434.144 88.2507C433.968 87.8987 433.88 87.456 433.88 86.9227C433.88 86.5227 433.957 86.1334 434.112 85.7547C434.272 85.376 434.501 85.04 434.8 84.7467C435.104 84.448 435.477 84.2054 435.92 84.0187C436.362 83.8267 436.869 83.7174 437.44 83.6907L437.52 82.6187C437.525 82.5014 437.57 82.3974 437.656 82.3067C437.741 82.216 437.85 82.1707 437.984 82.1707H438.624L438.504 83.7387C439.064 83.8187 439.549 83.9734 439.96 84.2027C440.37 84.4267 440.728 84.688 441.032 84.9867L440.616 85.6267C440.498 85.8134 440.354 85.9067 440.184 85.9067C440.104 85.9067 440.008 85.8774 439.896 85.8187C439.789 85.76 439.661 85.6907 439.512 85.6107C439.368 85.5307 439.202 85.4507 439.016 85.3707C438.829 85.2907 438.621 85.2294 438.392 85.1867L438.12 88.7547Z" fill="black"/>
        <path d="M454.217 94.0107V95.3147H447.937V94.0107H450.337V86.7947C450.337 86.5387 450.345 86.2774 450.361 86.0107L448.513 87.5707C448.433 87.6347 448.351 87.6774 448.265 87.6987C448.185 87.7147 448.108 87.7147 448.033 87.6987C447.964 87.6827 447.9 87.6587 447.841 87.6267C447.788 87.5894 447.745 87.5494 447.713 87.5067L447.177 86.7547L450.649 83.7707H452.049V94.0107H454.217Z" fill="black"/>
        <path d="M457.098 95.3067C456.944 95.3067 456.802 95.28 456.674 95.2267C456.546 95.168 456.434 95.0907 456.338 94.9947C456.248 94.8934 456.176 94.776 456.122 94.6427C456.074 94.5094 456.05 94.3627 456.05 94.2027C456.05 94.064 456.074 93.9334 456.122 93.8107C456.176 93.688 456.248 93.5814 456.338 93.4907C456.434 93.4 456.546 93.3307 456.674 93.2827C456.808 93.2294 456.952 93.2027 457.106 93.2027C457.288 93.2027 457.448 93.2374 457.586 93.3067C457.725 93.3707 457.84 93.4614 457.93 93.5787C458.026 93.6907 458.096 93.824 458.138 93.9787C458.186 94.128 458.21 94.288 458.21 94.4587C458.21 94.704 458.173 94.9627 458.098 95.2347C458.029 95.5067 457.922 95.776 457.778 96.0427C457.64 96.3147 457.466 96.5787 457.258 96.8347C457.056 97.0907 456.824 97.3254 456.562 97.5387L456.266 97.2667C456.224 97.224 456.192 97.184 456.17 97.1467C456.154 97.1094 456.146 97.0614 456.146 97.0027C456.146 96.912 456.192 96.8267 456.282 96.7467C456.336 96.688 456.405 96.6107 456.49 96.5147C456.576 96.4187 456.661 96.3094 456.746 96.1867C456.832 96.064 456.909 95.928 456.978 95.7787C457.053 95.6294 457.106 95.472 457.138 95.3067H457.098Z" fill="black"/>
        <path d="M467.81 89.5547C467.81 90.5627 467.701 91.4347 467.482 92.1707C467.269 92.9067 466.973 93.5174 466.594 94.0027C466.215 94.488 465.77 94.848 465.258 95.0827C464.746 95.3174 464.194 95.4347 463.602 95.4347C463.01 95.4347 462.458 95.3174 461.946 95.0827C461.434 94.848 460.989 94.488 460.61 94.0027C460.237 93.5174 459.943 92.9067 459.73 92.1707C459.517 91.4347 459.41 90.5627 459.41 89.5547C459.41 88.5467 459.517 87.6747 459.73 86.9387C459.943 86.1974 460.237 85.5867 460.61 85.1067C460.989 84.6214 461.434 84.2614 461.946 84.0267C462.458 83.7867 463.01 83.6667 463.602 83.6667C464.194 83.6667 464.746 83.7867 465.258 84.0267C465.77 84.2614 466.215 84.6214 466.594 85.1067C466.973 85.5867 467.269 86.1974 467.482 86.9387C467.701 87.6747 467.81 88.5467 467.81 89.5547ZM466.034 89.5547C466.034 88.7014 465.965 87.992 465.826 87.4267C465.693 86.856 465.514 86.4 465.29 86.0587C465.066 85.7174 464.807 85.4747 464.514 85.3307C464.221 85.1867 463.917 85.1147 463.602 85.1147C463.282 85.1147 462.975 85.1867 462.682 85.3307C462.394 85.4747 462.138 85.7174 461.914 86.0587C461.69 86.4 461.511 86.856 461.378 87.4267C461.245 87.992 461.178 88.7014 461.178 89.5547C461.178 90.408 461.245 91.12 461.378 91.6907C461.511 92.256 461.69 92.7094 461.914 93.0507C462.138 93.392 462.394 93.6347 462.682 93.7787C462.975 93.9227 463.282 93.9947 463.602 93.9947C463.917 93.9947 464.221 93.9227 464.514 93.7787C464.807 93.6347 465.066 93.392 465.29 93.0507C465.514 92.7094 465.693 92.256 465.826 91.6907C465.965 91.12 466.034 90.408 466.034 89.5547Z" fill="black"/>
        <path d="M477.091 89.5547C477.091 90.5627 476.982 91.4347 476.763 92.1707C476.55 92.9067 476.254 93.5174 475.875 94.0027C475.497 94.488 475.051 94.848 474.539 95.0827C474.027 95.3174 473.475 95.4347 472.883 95.4347C472.291 95.4347 471.739 95.3174 471.227 95.0827C470.715 94.848 470.27 94.488 469.891 94.0027C469.518 93.5174 469.225 92.9067 469.011 92.1707C468.798 91.4347 468.691 90.5627 468.691 89.5547C468.691 88.5467 468.798 87.6747 469.011 86.9387C469.225 86.1974 469.518 85.5867 469.891 85.1067C470.27 84.6214 470.715 84.2614 471.227 84.0267C471.739 83.7867 472.291 83.6667 472.883 83.6667C473.475 83.6667 474.027 83.7867 474.539 84.0267C475.051 84.2614 475.497 84.6214 475.875 85.1067C476.254 85.5867 476.55 86.1974 476.763 86.9387C476.982 87.6747 477.091 88.5467 477.091 89.5547ZM475.315 89.5547C475.315 88.7014 475.246 87.992 475.107 87.4267C474.974 86.856 474.795 86.4 474.571 86.0587C474.347 85.7174 474.089 85.4747 473.795 85.3307C473.502 85.1867 473.198 85.1147 472.883 85.1147C472.563 85.1147 472.257 85.1867 471.963 85.3307C471.675 85.4747 471.419 85.7174 471.195 86.0587C470.971 86.4 470.793 86.856 470.659 87.4267C470.526 87.992 470.459 88.7014 470.459 89.5547C470.459 90.408 470.526 91.12 470.659 91.6907C470.793 92.256 470.971 92.7094 471.195 93.0507C471.419 93.392 471.675 93.6347 471.963 93.7787C472.257 93.9227 472.563 93.9947 472.883 93.9947C473.198 93.9947 473.502 93.9227 473.795 93.7787C474.089 93.6347 474.347 93.392 474.571 93.0507C474.795 92.7094 474.974 92.256 475.107 91.6907C475.246 91.12 475.315 90.408 475.315 89.5547Z" fill="black"/>
        <path d="M486.372 89.5547C486.372 90.5627 486.263 91.4347 486.044 92.1707C485.831 92.9067 485.535 93.5174 485.156 94.0027C484.778 94.488 484.332 94.848 483.82 95.0827C483.308 95.3174 482.756 95.4347 482.164 95.4347C481.572 95.4347 481.02 95.3174 480.508 95.0827C479.996 94.848 479.551 94.488 479.172 94.0027C478.799 93.5174 478.506 92.9067 478.292 92.1707C478.079 91.4347 477.972 90.5627 477.972 89.5547C477.972 88.5467 478.079 87.6747 478.292 86.9387C478.506 86.1974 478.799 85.5867 479.172 85.1067C479.551 84.6214 479.996 84.2614 480.508 84.0267C481.02 83.7867 481.572 83.6667 482.164 83.6667C482.756 83.6667 483.308 83.7867 483.82 84.0267C484.332 84.2614 484.778 84.6214 485.156 85.1067C485.535 85.5867 485.831 86.1974 486.044 86.9387C486.263 87.6747 486.372 88.5467 486.372 89.5547ZM484.596 89.5547C484.596 88.7014 484.527 87.992 484.388 87.4267C484.255 86.856 484.076 86.4 483.852 86.0587C483.628 85.7174 483.37 85.4747 483.076 85.3307C482.783 85.1867 482.479 85.1147 482.164 85.1147C481.844 85.1147 481.538 85.1867 481.244 85.3307C480.956 85.4747 480.7 85.7174 480.476 86.0587C480.252 86.4 480.074 86.856 479.94 87.4267C479.807 87.992 479.74 88.7014 479.74 89.5547C479.74 90.408 479.807 91.12 479.94 91.6907C480.074 92.256 480.252 92.7094 480.476 93.0507C480.7 93.392 480.956 93.6347 481.244 93.7787C481.538 93.9227 481.844 93.9947 482.164 93.9947C482.479 93.9947 482.783 93.9227 483.076 93.7787C483.37 93.6347 483.628 93.392 483.852 93.0507C484.076 92.7094 484.255 92.256 484.388 91.6907C484.527 91.12 484.596 90.408 484.596 89.5547Z" fill="black"/>
        <path d="M487.598 94.3227C487.598 94.1681 487.624 94.024 487.678 93.8907C487.736 93.752 487.814 93.632 487.91 93.5307C488.011 93.4294 488.128 93.3494 488.262 93.2907C488.4 93.232 488.547 93.2027 488.702 93.2027C488.856 93.2027 489 93.232 489.134 93.2907C489.272 93.3494 489.392 93.4294 489.494 93.5307C489.595 93.632 489.675 93.752 489.734 93.8907C489.792 94.024 489.822 94.1681 489.822 94.3227C489.822 94.4827 489.792 94.6294 489.734 94.7627C489.675 94.896 489.595 95.0134 489.494 95.1147C489.392 95.216 489.272 95.2934 489.134 95.3467C489 95.4054 488.856 95.4347 488.702 95.4347C488.547 95.4347 488.4 95.4054 488.262 95.3467C488.128 95.2934 488.011 95.216 487.91 95.1147C487.814 95.0134 487.736 94.896 487.678 94.7627C487.624 94.6294 487.598 94.4827 487.598 94.3227Z" fill="black"/>
        <path d="M499.435 89.5547C499.435 90.5627 499.326 91.4347 499.107 92.1707C498.894 92.9067 498.598 93.5174 498.219 94.0027C497.84 94.488 497.395 94.848 496.883 95.0827C496.371 95.3174 495.819 95.4347 495.227 95.4347C494.635 95.4347 494.083 95.3174 493.571 95.0827C493.059 94.848 492.614 94.488 492.235 94.0027C491.862 93.5174 491.568 92.9067 491.355 92.1707C491.142 91.4347 491.035 90.5627 491.035 89.5547C491.035 88.5467 491.142 87.6747 491.355 86.9387C491.568 86.1974 491.862 85.5867 492.235 85.1067C492.614 84.6214 493.059 84.2614 493.571 84.0267C494.083 83.7867 494.635 83.6667 495.227 83.6667C495.819 83.6667 496.371 83.7867 496.883 84.0267C497.395 84.2614 497.84 84.6214 498.219 85.1067C498.598 85.5867 498.894 86.1974 499.107 86.9387C499.326 87.6747 499.435 88.5467 499.435 89.5547ZM497.659 89.5547C497.659 88.7014 497.59 87.992 497.451 87.4267C497.318 86.856 497.139 86.4 496.915 86.0587C496.691 85.7174 496.432 85.4747 496.139 85.3307C495.846 85.1867 495.542 85.1147 495.227 85.1147C494.907 85.1147 494.6 85.1867 494.307 85.3307C494.019 85.4747 493.763 85.7174 493.539 86.0587C493.315 86.4 493.136 86.856 493.003 87.4267C492.87 87.992 492.803 88.7014 492.803 89.5547C492.803 90.408 492.87 91.12 493.003 91.6907C493.136 92.256 493.315 92.7094 493.539 93.0507C493.763 93.392 494.019 93.6347 494.307 93.7787C494.6 93.9227 494.907 93.9947 495.227 93.9947C495.542 93.9947 495.846 93.9227 496.139 93.7787C496.432 93.6347 496.691 93.392 496.915 93.0507C497.139 92.7094 497.318 92.256 497.451 91.6907C497.59 91.12 497.659 90.408 497.659 89.5547Z" fill="black"/>
        <path d="M508.716 89.5547C508.716 90.5627 508.607 91.4347 508.388 92.1707C508.175 92.9067 507.879 93.5174 507.5 94.0027C507.122 94.488 506.676 94.848 506.164 95.0827C505.652 95.3174 505.1 95.4347 504.508 95.4347C503.916 95.4347 503.364 95.3174 502.852 95.0827C502.34 94.848 501.895 94.488 501.516 94.0027C501.143 93.5174 500.85 92.9067 500.636 92.1707C500.423 91.4347 500.316 90.5627 500.316 89.5547C500.316 88.5467 500.423 87.6747 500.636 86.9387C500.85 86.1974 501.143 85.5867 501.516 85.1067C501.895 84.6214 502.34 84.2614 502.852 84.0267C503.364 83.7867 503.916 83.6667 504.508 83.6667C505.1 83.6667 505.652 83.7867 506.164 84.0267C506.676 84.2614 507.122 84.6214 507.5 85.1067C507.879 85.5867 508.175 86.1974 508.388 86.9387C508.607 87.6747 508.716 88.5467 508.716 89.5547ZM506.94 89.5547C506.94 88.7014 506.871 87.992 506.732 87.4267C506.599 86.856 506.42 86.4 506.196 86.0587C505.972 85.7174 505.714 85.4747 505.42 85.3307C505.127 85.1867 504.823 85.1147 504.508 85.1147C504.188 85.1147 503.882 85.1867 503.588 85.3307C503.3 85.4747 503.044 85.7174 502.82 86.0587C502.596 86.4 502.418 86.856 502.284 87.4267C502.151 87.992 502.084 88.7014 502.084 89.5547C502.084 90.408 502.151 91.12 502.284 91.6907C502.418 92.256 502.596 92.7094 502.82 93.0507C503.044 93.392 503.3 93.6347 503.588 93.7787C503.882 93.9227 504.188 93.9947 504.508 93.9947C504.823 93.9947 505.127 93.9227 505.42 93.7787C505.714 93.6347 505.972 93.392 506.196 93.0507C506.42 92.7094 506.599 92.256 506.732 91.6907C506.871 91.12 506.94 90.408 506.94 89.5547Z" fill="black"/>
        <path d="M442.23 105.965H439.91V112.315H438.945V105.965H436.62V105.15H442.23V105.965Z" fill="#707789"/>
        <path d="M443.997 107.17C444.367 107.17 444.701 107.231 444.997 107.355C445.294 107.478 445.547 107.653 445.757 107.88C445.967 108.106 446.127 108.381 446.237 108.705C446.351 109.025 446.407 109.383 446.407 109.78C446.407 110.18 446.351 110.54 446.237 110.86C446.127 111.18 445.967 111.453 445.757 111.68C445.547 111.906 445.294 112.081 444.997 112.205C444.701 112.325 444.367 112.385 443.997 112.385C443.624 112.385 443.287 112.325 442.987 112.205C442.691 112.081 442.437 111.906 442.227 111.68C442.017 111.453 441.856 111.18 441.742 110.86C441.632 110.54 441.577 110.18 441.577 109.78C441.577 109.383 441.632 109.025 441.742 108.705C441.856 108.381 442.017 108.106 442.227 107.88C442.437 107.653 442.691 107.478 442.987 107.355C443.287 107.231 443.624 107.17 443.997 107.17ZM443.997 111.69C444.497 111.69 444.871 111.523 445.117 111.19C445.364 110.853 445.487 110.385 445.487 109.785C445.487 109.181 445.364 108.711 445.117 108.375C444.871 108.038 444.497 107.87 443.997 107.87C443.744 107.87 443.522 107.913 443.332 108C443.146 108.086 442.989 108.211 442.862 108.375C442.739 108.538 442.646 108.74 442.582 108.98C442.522 109.216 442.492 109.485 442.492 109.785C442.492 110.385 442.616 110.853 442.862 111.19C443.112 111.523 443.491 111.69 443.997 111.69Z" fill="#707789"/>
        <path d="M450.836 108.455C450.67 108.231 450.49 108.076 450.296 107.99C450.103 107.9 449.886 107.855 449.646 107.855C449.176 107.855 448.815 108.023 448.561 108.36C448.308 108.696 448.181 109.176 448.181 109.8C448.181 110.13 448.21 110.413 448.266 110.65C448.323 110.883 448.406 111.076 448.516 111.23C448.626 111.38 448.761 111.49 448.921 111.56C449.081 111.63 449.263 111.665 449.466 111.665C449.76 111.665 450.015 111.598 450.231 111.465C450.451 111.331 450.653 111.143 450.836 110.9V108.455ZM451.726 104.95V112.315H451.196C451.07 112.315 450.99 112.253 450.956 112.13L450.876 111.515C450.66 111.775 450.413 111.985 450.136 112.145C449.86 112.305 449.54 112.385 449.176 112.385C448.886 112.385 448.623 112.33 448.386 112.22C448.15 112.106 447.948 111.941 447.781 111.725C447.615 111.508 447.486 111.238 447.396 110.915C447.306 110.591 447.261 110.22 447.261 109.8C447.261 109.426 447.311 109.08 447.411 108.76C447.511 108.436 447.655 108.156 447.841 107.92C448.028 107.683 448.256 107.498 448.526 107.365C448.8 107.228 449.106 107.16 449.446 107.16C449.756 107.16 450.021 107.213 450.241 107.32C450.465 107.423 450.663 107.568 450.836 107.755V104.95H451.726Z" fill="#707789"/>
        <path d="M455.877 110.035C455.467 110.048 455.117 110.081 454.827 110.135C454.54 110.185 454.305 110.251 454.122 110.335C453.942 110.418 453.81 110.516 453.727 110.63C453.647 110.743 453.607 110.87 453.607 111.01C453.607 111.143 453.629 111.258 453.672 111.355C453.715 111.451 453.774 111.531 453.847 111.595C453.924 111.655 454.012 111.7 454.112 111.73C454.215 111.756 454.325 111.77 454.442 111.77C454.599 111.77 454.742 111.755 454.872 111.725C455.002 111.691 455.124 111.645 455.237 111.585C455.354 111.525 455.464 111.453 455.567 111.37C455.674 111.286 455.777 111.191 455.877 111.085V110.035ZM453.002 107.965C453.282 107.695 453.584 107.493 453.907 107.36C454.23 107.226 454.589 107.16 454.982 107.16C455.265 107.16 455.517 107.206 455.737 107.3C455.957 107.393 456.142 107.523 456.292 107.69C456.442 107.856 456.555 108.058 456.632 108.295C456.709 108.531 456.747 108.791 456.747 109.075V112.315H456.352C456.265 112.315 456.199 112.301 456.152 112.275C456.105 112.245 456.069 112.188 456.042 112.105L455.942 111.625C455.809 111.748 455.679 111.858 455.552 111.955C455.425 112.048 455.292 112.128 455.152 112.195C455.012 112.258 454.862 112.306 454.702 112.34C454.545 112.376 454.37 112.395 454.177 112.395C453.98 112.395 453.795 112.368 453.622 112.315C453.449 112.258 453.297 112.175 453.167 112.065C453.04 111.955 452.939 111.816 452.862 111.65C452.789 111.48 452.752 111.28 452.752 111.05C452.752 110.85 452.807 110.658 452.917 110.475C453.027 110.288 453.205 110.123 453.452 109.98C453.699 109.836 454.02 109.72 454.417 109.63C454.814 109.536 455.3 109.483 455.877 109.47V109.075C455.877 108.681 455.792 108.385 455.622 108.185C455.452 107.981 455.204 107.88 454.877 107.88C454.657 107.88 454.472 107.908 454.322 107.965C454.175 108.018 454.047 108.08 453.937 108.15C453.83 108.216 453.737 108.278 453.657 108.335C453.58 108.388 453.504 108.415 453.427 108.415C453.367 108.415 453.315 108.4 453.272 108.37C453.229 108.336 453.192 108.296 453.162 108.25L453.002 107.965Z" fill="#707789"/>
        <path d="M462.356 107.25L459.531 113.81C459.501 113.876 459.462 113.93 459.416 113.97C459.372 114.01 459.304 114.03 459.211 114.03H458.551L459.476 112.02L457.386 107.25H458.156C458.232 107.25 458.292 107.27 458.336 107.31C458.382 107.346 458.414 107.388 458.431 107.435L459.786 110.625C459.839 110.765 459.884 110.911 459.921 111.065C459.967 110.908 460.017 110.76 460.071 110.62L461.386 107.435C461.406 107.381 461.439 107.338 461.486 107.305C461.536 107.268 461.591 107.25 461.651 107.25H462.356Z" fill="#707789"/>
        <path d="M469.841 111.635V112.315H466.001V111.635H467.536V106.75C467.536 106.603 467.541 106.455 467.551 106.305L466.276 107.4C466.233 107.436 466.19 107.46 466.146 107.47C466.103 107.476 466.063 107.476 466.026 107.47C465.99 107.463 465.955 107.45 465.921 107.43C465.891 107.41 465.868 107.388 465.851 107.365L465.571 106.98L467.706 105.135H468.431V111.635H469.841Z" fill="#707789"/>
        <path d="M476.052 108.735C476.052 109.361 475.984 109.905 475.847 110.365C475.714 110.821 475.53 111.2 475.297 111.5C475.064 111.8 474.787 112.023 474.467 112.17C474.15 112.316 473.81 112.39 473.447 112.39C473.08 112.39 472.739 112.316 472.422 112.17C472.109 112.023 471.835 111.8 471.602 111.5C471.369 111.2 471.185 110.821 471.052 110.365C470.919 109.905 470.852 109.361 470.852 108.735C470.852 108.108 470.919 107.565 471.052 107.105C471.185 106.645 471.369 106.265 471.602 105.965C471.835 105.661 472.109 105.436 472.422 105.29C472.739 105.143 473.08 105.07 473.447 105.07C473.81 105.07 474.15 105.143 474.467 105.29C474.787 105.436 475.064 105.661 475.297 105.965C475.53 106.265 475.714 106.645 475.847 107.105C475.984 107.565 476.052 108.108 476.052 108.735ZM475.127 108.735C475.127 108.188 475.08 107.73 474.987 107.36C474.897 106.986 474.774 106.686 474.617 106.46C474.464 106.233 474.285 106.071 474.082 105.975C473.879 105.875 473.667 105.825 473.447 105.825C473.227 105.825 473.015 105.875 472.812 105.975C472.609 106.071 472.43 106.233 472.277 106.46C472.124 106.686 472 106.986 471.907 107.36C471.817 107.73 471.772 108.188 471.772 108.735C471.772 109.281 471.817 109.74 471.907 110.11C472 110.48 472.124 110.778 472.277 111.005C472.43 111.231 472.609 111.395 472.812 111.495C473.015 111.591 473.227 111.64 473.447 111.64C473.667 111.64 473.879 111.591 474.082 111.495C474.285 111.395 474.464 111.231 474.617 111.005C474.774 110.778 474.897 110.48 474.987 110.11C475.08 109.74 475.127 109.281 475.127 108.735Z" fill="#707789"/>
        <path d="M476.978 111.765C476.978 111.678 476.993 111.596 477.023 111.52C477.056 111.443 477.099 111.376 477.153 111.32C477.209 111.263 477.276 111.218 477.353 111.185C477.429 111.151 477.511 111.135 477.598 111.135C477.684 111.135 477.766 111.151 477.843 111.185C477.919 111.218 477.986 111.263 478.043 111.32C478.099 111.376 478.144 111.443 478.178 111.52C478.211 111.596 478.228 111.678 478.228 111.765C478.228 111.855 478.211 111.938 478.178 112.015C478.144 112.088 478.099 112.153 478.043 112.21C477.986 112.266 477.919 112.31 477.843 112.34C477.766 112.373 477.684 112.39 477.598 112.39C477.511 112.39 477.429 112.373 477.353 112.34C477.276 112.31 477.209 112.266 477.153 112.21C477.099 112.153 477.056 112.088 477.023 112.015C476.993 111.938 476.978 111.855 476.978 111.765ZM476.978 108.015C476.978 107.928 476.993 107.846 477.023 107.77C477.056 107.693 477.099 107.626 477.153 107.57C477.209 107.513 477.276 107.468 477.353 107.435C477.429 107.401 477.511 107.385 477.598 107.385C477.684 107.385 477.766 107.401 477.843 107.435C477.919 107.468 477.986 107.513 478.043 107.57C478.099 107.626 478.144 107.693 478.178 107.77C478.211 107.846 478.228 107.928 478.228 108.015C478.228 108.105 478.211 108.188 478.178 108.265C478.144 108.338 478.099 108.403 478.043 108.46C477.986 108.516 477.919 108.561 477.843 108.595C477.766 108.625 477.684 108.64 477.598 108.64C477.511 108.64 477.429 108.625 477.353 108.595C477.276 108.561 477.209 108.516 477.153 108.46C477.099 108.403 477.056 108.338 477.023 108.265C476.993 108.188 476.978 108.105 476.978 108.015Z" fill="#707789"/>
        <path d="M483.788 111.47C483.884 111.47 483.961 111.498 484.018 111.555C484.074 111.611 484.103 111.685 484.103 111.775V112.315H479.323V112.01C479.323 111.946 479.336 111.881 479.363 111.815C479.389 111.748 479.431 111.686 479.488 111.63L481.783 109.325C481.973 109.131 482.146 108.946 482.303 108.77C482.459 108.59 482.593 108.41 482.703 108.23C482.813 108.05 482.898 107.868 482.958 107.685C483.018 107.498 483.048 107.3 483.048 107.09C483.048 106.88 483.014 106.696 482.948 106.54C482.881 106.38 482.789 106.248 482.673 106.145C482.559 106.041 482.424 105.965 482.268 105.915C482.111 105.861 481.943 105.835 481.763 105.835C481.579 105.835 481.411 105.861 481.258 105.915C481.104 105.968 480.968 106.043 480.848 106.14C480.731 106.233 480.633 106.345 480.553 106.475C480.473 106.605 480.416 106.748 480.383 106.905C480.343 107.021 480.288 107.1 480.218 107.14C480.151 107.176 480.056 107.186 479.933 107.17L479.468 107.09C479.514 106.763 479.604 106.475 479.738 106.225C479.874 105.971 480.044 105.76 480.248 105.59C480.454 105.42 480.689 105.291 480.953 105.205C481.216 105.115 481.501 105.07 481.808 105.07C482.111 105.07 482.394 105.115 482.658 105.205C482.921 105.295 483.149 105.426 483.343 105.6C483.536 105.77 483.688 105.978 483.798 106.225C483.908 106.471 483.963 106.751 483.963 107.065C483.963 107.331 483.923 107.58 483.843 107.81C483.763 108.036 483.654 108.253 483.518 108.46C483.381 108.666 483.223 108.868 483.043 109.065C482.866 109.261 482.678 109.46 482.478 109.66L480.588 111.59C480.721 111.553 480.856 111.525 480.993 111.505C481.129 111.481 481.261 111.47 481.388 111.47H483.788Z" fill="#707789"/>
        <path d="M489.589 111.47C489.685 111.47 489.762 111.498 489.819 111.555C489.875 111.611 489.904 111.685 489.904 111.775V112.315H485.124V112.01C485.124 111.946 485.137 111.881 485.164 111.815C485.19 111.748 485.232 111.686 485.289 111.63L487.584 109.325C487.774 109.131 487.947 108.946 488.104 108.77C488.26 108.59 488.394 108.41 488.504 108.23C488.614 108.05 488.699 107.868 488.759 107.685C488.819 107.498 488.849 107.3 488.849 107.09C488.849 106.88 488.815 106.696 488.749 106.54C488.682 106.38 488.59 106.248 488.474 106.145C488.36 106.041 488.225 105.965 488.069 105.915C487.912 105.861 487.744 105.835 487.564 105.835C487.38 105.835 487.212 105.861 487.059 105.915C486.905 105.968 486.769 106.043 486.649 106.14C486.532 106.233 486.434 106.345 486.354 106.475C486.274 106.605 486.217 106.748 486.184 106.905C486.144 107.021 486.089 107.1 486.019 107.14C485.952 107.176 485.857 107.186 485.734 107.17L485.269 107.09C485.315 106.763 485.405 106.475 485.539 106.225C485.675 105.971 485.845 105.76 486.049 105.59C486.255 105.42 486.49 105.291 486.754 105.205C487.017 105.115 487.302 105.07 487.609 105.07C487.912 105.07 488.195 105.115 488.459 105.205C488.722 105.295 488.95 105.426 489.144 105.6C489.337 105.77 489.489 105.978 489.599 106.225C489.709 106.471 489.764 106.751 489.764 107.065C489.764 107.331 489.724 107.58 489.644 107.81C489.564 108.036 489.455 108.253 489.319 108.46C489.182 108.666 489.024 108.868 488.844 109.065C488.667 109.261 488.479 109.46 488.279 109.66L486.389 111.59C486.522 111.553 486.657 111.525 486.794 111.505C486.93 111.481 487.062 111.47 487.189 111.47H489.589Z" fill="#707789"/>
        <path d="M497.401 109.655L496.276 106.74C496.243 106.653 496.208 106.553 496.171 106.44C496.134 106.323 496.099 106.2 496.066 106.07C495.996 106.34 495.924 106.565 495.851 106.745L494.726 109.655H497.401ZM499.421 112.315H498.671C498.584 112.315 498.514 112.293 498.461 112.25C498.408 112.206 498.368 112.151 498.341 112.085L497.671 110.355H494.456L493.786 112.085C493.766 112.145 493.728 112.198 493.671 112.245C493.614 112.291 493.544 112.315 493.461 112.315H492.711L495.576 105.15H496.556L499.421 112.315Z" fill="#707789"/>
        <path d="M507.818 105.15V112.315H506.969V107.05C506.969 106.98 506.97 106.905 506.973 106.825C506.98 106.745 506.987 106.663 506.993 106.58L504.534 111.06C504.457 111.21 504.34 111.285 504.184 111.285H504.043C503.887 111.285 503.77 111.21 503.693 111.06L501.184 106.56C501.204 106.736 501.214 106.9 501.214 107.05V112.315H500.363V105.15H501.078C501.165 105.15 501.232 105.158 501.279 105.175C501.325 105.191 501.37 105.238 501.413 105.315L503.888 109.725C503.928 109.805 503.967 109.888 504.004 109.975C504.044 110.061 504.08 110.15 504.113 110.24C504.147 110.15 504.182 110.061 504.219 109.975C504.255 109.885 504.295 109.8 504.339 109.72L506.768 105.315C506.808 105.238 506.852 105.191 506.898 105.175C506.948 105.158 507.017 105.15 507.103 105.15H507.818Z" fill="#707789"/>
      </g>
    </g>
    <rect id="eth_3" x="98.97" y="85.6123" width="396.06" height="74.1728" fill="#E4E8F2"/>
    <rect id="eth_2" x="84.53" y="68.524" width="424.94" height="79.5813" fill="#F0F3F9"/>
    <g id="eth_1">
      <rect id="Rectangle_2" x="69.53" y="54.2148" width="454.94" height="85.1996" fill="white"/>
      <g id="Vector_4" opacity="0.8">
        <path d="M146.543 93.8026L146.535 95.3146H139.351V83.7946H146.535V85.3066H141.231V88.7786H145.471V90.2426H141.231V93.8026H146.543Z" fill="black"/>
        <path d="M150.522 95.4426C149.845 95.4426 149.322 95.2533 148.954 94.8746C148.591 94.4906 148.41 93.952 148.41 93.2586V88.5066H147.514C147.418 88.5066 147.335 88.4773 147.266 88.4186C147.197 88.3546 147.162 88.2613 147.162 88.1386V87.4426L148.482 87.2506L148.858 84.8906C148.885 84.8 148.93 84.728 148.994 84.6746C149.058 84.616 149.143 84.5866 149.25 84.5866H150.13V87.2666H152.394V88.5066H150.13V93.1386C150.13 93.432 150.202 93.656 150.346 93.8106C150.49 93.9653 150.682 94.0426 150.922 94.0426C151.055 94.0426 151.17 94.0266 151.266 93.9946C151.362 93.9573 151.445 93.92 151.514 93.8826C151.583 93.84 151.642 93.8026 151.69 93.7706C151.743 93.7333 151.794 93.7146 151.842 93.7146C151.938 93.7146 152.015 93.768 152.074 93.8746L152.586 94.7146C152.319 94.9493 152.005 95.1306 151.642 95.2586C151.279 95.3813 150.906 95.4426 150.522 95.4426Z" fill="black"/>
        <path d="M155.47 88.1226C155.806 87.792 156.174 87.528 156.574 87.3306C156.974 87.128 157.441 87.0266 157.974 87.0266C158.422 87.0266 158.814 87.1013 159.15 87.2506C159.491 87.4 159.777 87.6106 160.006 87.8826C160.241 88.1546 160.417 88.4826 160.534 88.8666C160.651 89.2453 160.71 89.664 160.71 90.1226V95.3146H158.998V90.1226C158.998 89.5733 158.87 89.1466 158.614 88.8426C158.363 88.5386 157.979 88.3866 157.462 88.3866C157.078 88.3866 156.721 88.4746 156.39 88.6506C156.065 88.8266 155.758 89.0666 155.47 89.3706V95.3146H153.75V83.4746H155.47V88.1226Z" fill="black"/>
        <path d="M168.071 90.3146C168.071 90.0266 168.028 89.76 167.943 89.5146C167.863 89.264 167.743 89.048 167.583 88.8666C167.423 88.68 167.223 88.536 166.983 88.4346C166.748 88.328 166.476 88.2746 166.167 88.2746C165.543 88.2746 165.052 88.4533 164.695 88.8106C164.337 89.168 164.111 89.6693 164.015 90.3146H168.071ZM163.967 91.3706C163.988 91.8346 164.06 92.2373 164.183 92.5786C164.305 92.9146 164.468 93.1946 164.671 93.4186C164.879 93.6426 165.124 93.8106 165.407 93.9226C165.695 94.0293 166.015 94.0826 166.367 94.0826C166.703 94.0826 166.993 94.0453 167.239 93.9706C167.484 93.8906 167.697 93.8053 167.879 93.7146C168.06 93.6186 168.215 93.5333 168.343 93.4586C168.471 93.3786 168.588 93.3386 168.695 93.3386C168.833 93.3386 168.94 93.392 169.015 93.4986L169.503 94.1306C169.3 94.3706 169.071 94.5733 168.815 94.7386C168.559 94.904 168.287 95.04 167.999 95.1466C167.711 95.248 167.415 95.32 167.111 95.3626C166.807 95.4106 166.511 95.4346 166.223 95.4346C165.657 95.4346 165.132 95.3413 164.647 95.1546C164.167 94.9626 163.748 94.6826 163.391 94.3146C163.039 93.9466 162.761 93.4906 162.559 92.9466C162.361 92.4026 162.263 91.776 162.263 91.0666C162.263 90.5013 162.351 89.9733 162.527 89.4826C162.708 88.992 162.964 88.5653 163.295 88.2026C163.631 87.84 164.036 87.5546 164.511 87.3466C164.991 87.1333 165.532 87.0266 166.135 87.0266C166.636 87.0266 167.1 87.1093 167.527 87.2746C167.953 87.4346 168.321 87.672 168.631 87.9866C168.94 88.3013 169.18 88.688 169.351 89.1466C169.527 89.6 169.615 90.1173 169.615 90.6986C169.615 90.9653 169.585 91.144 169.527 91.2346C169.468 91.3253 169.361 91.3706 169.207 91.3706H163.967Z" fill="black"/>
        <path d="M172.843 88.6666C173.099 88.1493 173.408 87.744 173.771 87.4506C174.133 87.152 174.568 87.0026 175.075 87.0026C175.251 87.0026 175.416 87.024 175.571 87.0666C175.725 87.104 175.864 87.1626 175.987 87.2426L175.867 88.5386C175.845 88.6293 175.811 88.6933 175.763 88.7306C175.72 88.7626 175.661 88.7786 175.587 88.7786C175.507 88.7786 175.392 88.7653 175.243 88.7386C175.093 88.7066 174.936 88.6906 174.771 88.6906C174.531 88.6906 174.317 88.7253 174.131 88.7946C173.949 88.864 173.784 88.9653 173.635 89.0986C173.491 89.232 173.363 89.3946 173.251 89.5866C173.139 89.7786 173.035 89.9973 172.939 90.2426V95.3146H171.219V87.1546H172.219C172.4 87.1546 172.525 87.1893 172.595 87.2586C172.664 87.3226 172.712 87.4373 172.739 87.6026L172.843 88.6666Z" fill="black"/>
        <path d="M182.196 90.3146C182.196 90.0266 182.153 89.76 182.068 89.5146C181.988 89.264 181.868 89.048 181.708 88.8666C181.548 88.68 181.348 88.536 181.108 88.4346C180.873 88.328 180.601 88.2746 180.292 88.2746C179.668 88.2746 179.177 88.4533 178.82 88.8106C178.462 89.168 178.236 89.6693 178.14 90.3146H182.196ZM178.092 91.3706C178.113 91.8346 178.185 92.2373 178.308 92.5786C178.43 92.9146 178.593 93.1946 178.796 93.4186C179.004 93.6426 179.249 93.8106 179.532 93.9226C179.82 94.0293 180.14 94.0826 180.492 94.0826C180.828 94.0826 181.118 94.0453 181.364 93.9706C181.609 93.8906 181.822 93.8053 182.004 93.7146C182.185 93.6186 182.34 93.5333 182.468 93.4586C182.596 93.3786 182.713 93.3386 182.82 93.3386C182.958 93.3386 183.065 93.392 183.14 93.4986L183.628 94.1306C183.425 94.3706 183.196 94.5733 182.94 94.7386C182.684 94.904 182.412 95.04 182.124 95.1466C181.836 95.248 181.54 95.32 181.236 95.3626C180.932 95.4106 180.636 95.4346 180.348 95.4346C179.782 95.4346 179.257 95.3413 178.772 95.1546C178.292 94.9626 177.873 94.6826 177.516 94.3146C177.164 93.9466 176.886 93.4906 176.684 92.9466C176.486 92.4026 176.388 91.776 176.388 91.0666C176.388 90.5013 176.476 89.9733 176.652 89.4826C176.833 88.992 177.089 88.5653 177.42 88.2026C177.756 87.84 178.161 87.5546 178.636 87.3466C179.116 87.1333 179.657 87.0266 180.26 87.0266C180.761 87.0266 181.225 87.1093 181.652 87.2746C182.078 87.4346 182.446 87.672 182.756 87.9866C183.065 88.3013 183.305 88.688 183.476 89.1466C183.652 89.6 183.74 90.1173 183.74 90.6986C183.74 90.9653 183.71 91.144 183.652 91.2346C183.593 91.3253 183.486 91.3706 183.332 91.3706H178.092Z" fill="black"/>
        <path d="M192.224 87.1546V95.3146H191.184C190.954 95.3146 190.808 95.2053 190.744 94.9866L190.616 94.2266C190.445 94.408 190.264 94.5733 190.072 94.7226C189.885 94.872 189.685 95 189.472 95.1066C189.258 95.2133 189.029 95.296 188.784 95.3546C188.544 95.4133 188.285 95.4426 188.008 95.4426C187.56 95.4426 187.165 95.368 186.824 95.2186C186.482 95.0693 186.194 94.8586 185.96 94.5866C185.73 94.3146 185.557 93.9893 185.44 93.6106C185.322 93.2266 185.264 92.8053 185.264 92.3466V87.1546H186.984V92.3466C186.984 92.896 187.109 93.3226 187.36 93.6266C187.616 93.9306 188.002 94.0826 188.52 94.0826C188.898 94.0826 189.25 93.9973 189.576 93.8266C189.906 93.6506 190.216 93.4106 190.504 93.1066V87.1546H192.224Z" fill="black"/>
        <path d="M194.312 95.3146V87.1546H195.352C195.587 87.1546 195.736 87.264 195.8 87.4826L195.912 88.1946C196.062 88.024 196.216 87.8693 196.376 87.7306C196.536 87.5866 196.707 87.464 196.888 87.3626C197.075 87.256 197.272 87.1733 197.48 87.1146C197.694 87.056 197.923 87.0266 198.168 87.0266C198.43 87.0266 198.67 87.064 198.888 87.1386C199.107 87.2133 199.299 87.32 199.464 87.4586C199.635 87.5973 199.782 87.7653 199.904 87.9626C200.027 88.16 200.128 88.3813 200.208 88.6266C200.331 88.344 200.486 88.1013 200.672 87.8986C200.859 87.696 201.067 87.5306 201.296 87.4026C201.526 87.2746 201.768 87.1813 202.024 87.1226C202.286 87.0586 202.55 87.0266 202.816 87.0266C203.254 87.0266 203.643 87.096 203.984 87.2346C204.331 87.3733 204.622 87.576 204.856 87.8426C205.096 88.104 205.278 88.4266 205.4 88.8106C205.523 89.1946 205.584 89.632 205.584 90.1226V95.3146H203.864V90.1226C203.864 89.5466 203.739 89.1146 203.488 88.8266C203.243 88.5333 202.878 88.3866 202.392 88.3866C202.174 88.3866 201.968 88.424 201.776 88.4986C201.584 88.5733 201.416 88.6826 201.272 88.8266C201.128 88.9706 201.014 89.152 200.928 89.3706C200.848 89.584 200.808 89.8346 200.808 90.1226V95.3146H199.088V90.1226C199.088 89.5253 198.968 89.088 198.728 88.8106C198.488 88.528 198.136 88.3866 197.672 88.3866C197.352 88.3866 197.056 88.4693 196.784 88.6346C196.512 88.7946 196.262 89.016 196.032 89.2986V95.3146H194.312Z" fill="black"/>
        <path d="M146.353 105.15V112.315H145.503V107.05C145.503 106.98 145.505 106.905 145.508 106.825C145.515 106.745 145.521 106.663 145.528 106.58L143.068 111.06C142.991 111.21 142.875 111.285 142.718 111.285H142.578C142.421 111.285 142.305 111.21 142.228 111.06L139.718 106.56C139.738 106.736 139.748 106.9 139.748 107.05V112.315H138.898V105.15H139.613C139.7 105.15 139.766 105.158 139.813 105.175C139.86 105.191 139.905 105.238 139.948 105.315L142.423 109.725C142.463 109.805 142.501 109.888 142.538 109.975C142.578 110.061 142.615 110.15 142.648 110.24C142.681 110.15 142.716 110.061 142.753 109.975C142.79 109.885 142.83 109.8 142.873 109.72L145.303 105.315C145.343 105.238 145.386 105.191 145.433 105.175C145.483 105.158 145.551 105.15 145.638 105.15H146.353Z" fill="#707789"/>
        <path d="M150.574 110.035C150.164 110.048 149.814 110.081 149.524 110.135C149.237 110.185 149.002 110.251 148.819 110.335C148.639 110.418 148.507 110.516 148.424 110.63C148.344 110.743 148.304 110.87 148.304 111.01C148.304 111.143 148.325 111.258 148.369 111.355C148.412 111.451 148.47 111.531 148.544 111.595C148.62 111.655 148.709 111.7 148.809 111.73C148.912 111.756 149.022 111.77 149.139 111.77C149.295 111.77 149.439 111.755 149.569 111.725C149.699 111.691 149.82 111.645 149.934 111.585C150.05 111.525 150.16 111.453 150.264 111.37C150.37 111.286 150.474 111.191 150.574 111.085V110.035ZM147.699 107.965C147.979 107.695 148.28 107.493 148.604 107.36C148.927 107.226 149.285 107.16 149.679 107.16C149.962 107.16 150.214 107.206 150.434 107.3C150.654 107.393 150.839 107.523 150.989 107.69C151.139 107.856 151.252 108.058 151.329 108.295C151.405 108.531 151.444 108.791 151.444 109.075V112.315H151.049C150.962 112.315 150.895 112.301 150.849 112.275C150.802 112.245 150.765 112.188 150.739 112.105L150.639 111.625C150.505 111.748 150.375 111.858 150.249 111.955C150.122 112.048 149.989 112.128 149.849 112.195C149.709 112.258 149.559 112.306 149.399 112.34C149.242 112.376 149.067 112.395 148.874 112.395C148.677 112.395 148.492 112.368 148.319 112.315C148.145 112.258 147.994 112.175 147.864 112.065C147.737 111.955 147.635 111.816 147.559 111.65C147.485 111.48 147.449 111.28 147.449 111.05C147.449 110.85 147.504 110.658 147.614 110.475C147.724 110.288 147.902 110.123 148.149 109.98C148.395 109.836 148.717 109.72 149.114 109.63C149.51 109.536 149.997 109.483 150.574 109.47V109.075C150.574 108.681 150.489 108.385 150.319 108.185C150.149 107.981 149.9 107.88 149.574 107.88C149.354 107.88 149.169 107.908 149.019 107.965C148.872 108.018 148.744 108.08 148.634 108.15C148.527 108.216 148.434 108.278 148.354 108.335C148.277 108.388 148.2 108.415 148.124 108.415C148.064 108.415 148.012 108.4 147.969 108.37C147.925 108.336 147.889 108.296 147.859 108.25L147.699 107.965Z" fill="#707789"/>
        <path d="M153.644 108.265C153.804 107.918 154.001 107.648 154.234 107.455C154.468 107.258 154.753 107.16 155.089 107.16C155.196 107.16 155.298 107.171 155.394 107.195C155.494 107.218 155.583 107.255 155.659 107.305L155.594 107.97C155.574 108.053 155.524 108.095 155.444 108.095C155.398 108.095 155.329 108.085 155.239 108.065C155.149 108.045 155.048 108.035 154.934 108.035C154.774 108.035 154.631 108.058 154.504 108.105C154.381 108.151 154.269 108.221 154.169 108.315C154.073 108.405 153.984 108.518 153.904 108.655C153.828 108.788 153.758 108.941 153.694 109.115V112.315H152.799V107.25H153.309C153.406 107.25 153.473 107.268 153.509 107.305C153.546 107.341 153.571 107.405 153.584 107.495L153.644 108.265Z" fill="#707789"/>
        <path d="M157.337 104.95V109.285H157.567C157.634 109.285 157.689 109.276 157.732 109.26C157.779 109.24 157.827 109.201 157.877 109.145L159.477 107.43C159.524 107.373 159.572 107.33 159.622 107.3C159.675 107.266 159.745 107.25 159.832 107.25H160.637L158.772 109.235C158.682 109.348 158.585 109.436 158.482 109.5C158.542 109.54 158.595 109.586 158.642 109.64C158.692 109.69 158.739 109.748 158.782 109.815L160.762 112.315H159.967C159.89 112.315 159.824 112.303 159.767 112.28C159.714 112.253 159.667 112.206 159.627 112.14L157.962 110.065C157.912 109.995 157.862 109.95 157.812 109.93C157.765 109.906 157.692 109.895 157.592 109.895H157.337V112.315H156.442V104.95H157.337Z" fill="#707789"/>
        <path d="M164.627 109.23C164.627 109.023 164.597 108.835 164.537 108.665C164.48 108.491 164.395 108.343 164.282 108.22C164.172 108.093 164.037 107.996 163.877 107.93C163.717 107.86 163.535 107.825 163.332 107.825C162.905 107.825 162.567 107.95 162.317 108.2C162.07 108.446 161.917 108.79 161.857 109.23H164.627ZM165.347 111.605C165.237 111.738 165.105 111.855 164.952 111.955C164.799 112.051 164.634 112.131 164.457 112.195C164.284 112.258 164.104 112.305 163.917 112.335C163.73 112.368 163.545 112.385 163.362 112.385C163.012 112.385 162.689 112.326 162.392 112.21C162.099 112.09 161.844 111.916 161.627 111.69C161.414 111.46 161.247 111.176 161.127 110.84C161.007 110.503 160.947 110.116 160.947 109.68C160.947 109.326 161 108.996 161.107 108.69C161.217 108.383 161.374 108.118 161.577 107.895C161.78 107.668 162.029 107.491 162.322 107.365C162.615 107.235 162.945 107.17 163.312 107.17C163.615 107.17 163.895 107.221 164.152 107.325C164.412 107.425 164.635 107.571 164.822 107.765C165.012 107.955 165.16 108.191 165.267 108.475C165.374 108.755 165.427 109.075 165.427 109.435C165.427 109.575 165.412 109.668 165.382 109.715C165.352 109.761 165.295 109.785 165.212 109.785H161.827C161.837 110.105 161.88 110.383 161.957 110.62C162.037 110.856 162.147 111.055 162.287 111.215C162.427 111.371 162.594 111.49 162.787 111.57C162.98 111.646 163.197 111.685 163.437 111.685C163.66 111.685 163.852 111.66 164.012 111.61C164.175 111.556 164.315 111.5 164.432 111.44C164.549 111.38 164.645 111.325 164.722 111.275C164.802 111.221 164.87 111.195 164.927 111.195C165 111.195 165.057 111.223 165.097 111.28L165.347 111.605Z" fill="#707789"/>
        <path d="M168.036 112.395C167.636 112.395 167.328 112.283 167.111 112.06C166.898 111.836 166.791 111.515 166.791 111.095V107.995H166.181C166.128 107.995 166.083 107.98 166.046 107.95C166.009 107.916 165.991 107.866 165.991 107.8V107.445L166.821 107.34L167.026 105.775C167.036 105.725 167.058 105.685 167.091 105.655C167.128 105.621 167.174 105.605 167.231 105.605H167.681V107.35H169.146V107.995H167.681V111.035C167.681 111.248 167.733 111.406 167.836 111.51C167.939 111.613 168.073 111.665 168.236 111.665C168.329 111.665 168.409 111.653 168.476 111.63C168.546 111.603 168.606 111.575 168.656 111.545C168.706 111.515 168.748 111.488 168.781 111.465C168.818 111.438 168.849 111.425 168.876 111.425C168.923 111.425 168.964 111.453 169.001 111.51L169.261 111.935C169.108 112.078 168.923 112.191 168.706 112.275C168.489 112.355 168.266 112.395 168.036 112.395Z" fill="#707789"/>
        <path d="M179.454 108.735C179.454 109.271 179.369 109.765 179.199 110.215C179.029 110.661 178.789 111.046 178.479 111.37C178.169 111.693 177.795 111.945 177.359 112.125C176.925 112.301 176.445 112.39 175.919 112.39C175.392 112.39 174.912 112.301 174.479 112.125C174.045 111.945 173.674 111.693 173.364 111.37C173.054 111.046 172.814 110.661 172.644 110.215C172.474 109.765 172.389 109.271 172.389 108.735C172.389 108.198 172.474 107.706 172.644 107.26C172.814 106.81 173.054 106.423 173.364 106.1C173.674 105.773 174.045 105.52 174.479 105.34C174.912 105.16 175.392 105.07 175.919 105.07C176.445 105.07 176.925 105.16 177.359 105.34C177.795 105.52 178.169 105.773 178.479 106.1C178.789 106.423 179.029 106.81 179.199 107.26C179.369 107.706 179.454 108.198 179.454 108.735ZM178.459 108.735C178.459 108.295 178.399 107.9 178.279 107.55C178.159 107.2 177.989 106.905 177.769 106.665C177.549 106.421 177.282 106.235 176.969 106.105C176.655 105.975 176.305 105.91 175.919 105.91C175.535 105.91 175.187 105.975 174.874 106.105C174.56 106.235 174.292 106.421 174.069 106.665C173.849 106.905 173.679 107.2 173.559 107.55C173.439 107.9 173.379 108.295 173.379 108.735C173.379 109.175 173.439 109.57 173.559 109.92C173.679 110.266 173.849 110.561 174.069 110.805C174.292 111.045 174.56 111.23 174.874 111.36C175.187 111.486 175.535 111.55 175.919 111.55C176.305 111.55 176.655 111.486 176.969 111.36C177.282 111.23 177.549 111.045 177.769 110.805C177.989 110.561 178.159 110.266 178.279 109.92C178.399 109.57 178.459 109.175 178.459 108.735Z" fill="#707789"/>
        <path d="M181.379 108.265C181.539 107.918 181.736 107.648 181.969 107.455C182.202 107.258 182.487 107.16 182.824 107.16C182.931 107.16 183.032 107.171 183.129 107.195C183.229 107.218 183.317 107.255 183.394 107.305L183.329 107.97C183.309 108.053 183.259 108.095 183.179 108.095C183.132 108.095 183.064 108.085 182.974 108.065C182.884 108.045 182.782 108.035 182.669 108.035C182.509 108.035 182.366 108.058 182.239 108.105C182.116 108.151 182.004 108.221 181.904 108.315C181.807 108.405 181.719 108.518 181.639 108.655C181.562 108.788 181.492 108.941 181.429 109.115V112.315H180.534V107.25H181.044C181.141 107.25 181.207 107.268 181.244 107.305C181.281 107.341 181.306 107.405 181.319 107.495L181.379 108.265Z" fill="#707789"/>
        <path d="M187.281 108.455C187.114 108.231 186.934 108.076 186.741 107.99C186.548 107.9 186.331 107.855 186.091 107.855C185.621 107.855 185.259 108.023 185.006 108.36C184.753 108.696 184.626 109.176 184.626 109.8C184.626 110.13 184.654 110.413 184.711 110.65C184.768 110.883 184.851 111.076 184.961 111.23C185.071 111.38 185.206 111.49 185.366 111.56C185.526 111.63 185.708 111.665 185.911 111.665C186.204 111.665 186.459 111.598 186.676 111.465C186.896 111.331 187.098 111.143 187.281 110.9V108.455ZM188.171 104.95V112.315H187.641C187.514 112.315 187.434 112.253 187.401 112.13L187.321 111.515C187.104 111.775 186.858 111.985 186.581 112.145C186.304 112.305 185.984 112.385 185.621 112.385C185.331 112.385 185.068 112.33 184.831 112.22C184.594 112.106 184.393 111.941 184.226 111.725C184.059 111.508 183.931 111.238 183.841 110.915C183.751 110.591 183.706 110.22 183.706 109.8C183.706 109.426 183.756 109.08 183.856 108.76C183.956 108.436 184.099 108.156 184.286 107.92C184.473 107.683 184.701 107.498 184.971 107.365C185.244 107.228 185.551 107.16 185.891 107.16C186.201 107.16 186.466 107.213 186.686 107.32C186.909 107.423 187.108 107.568 187.281 107.755V104.95H188.171Z" fill="#707789"/>
        <path d="M192.967 109.23C192.967 109.023 192.937 108.835 192.877 108.665C192.82 108.491 192.735 108.343 192.622 108.22C192.512 108.093 192.377 107.996 192.217 107.93C192.057 107.86 191.875 107.825 191.672 107.825C191.245 107.825 190.907 107.95 190.657 108.2C190.41 108.446 190.257 108.79 190.197 109.23H192.967ZM193.687 111.605C193.577 111.738 193.445 111.855 193.292 111.955C193.138 112.051 192.973 112.131 192.797 112.195C192.623 112.258 192.443 112.305 192.257 112.335C192.07 112.368 191.885 112.385 191.702 112.385C191.352 112.385 191.028 112.326 190.732 112.21C190.438 112.09 190.183 111.916 189.967 111.69C189.753 111.46 189.587 111.176 189.467 110.84C189.347 110.503 189.287 110.116 189.287 109.68C189.287 109.326 189.34 108.996 189.447 108.69C189.557 108.383 189.713 108.118 189.917 107.895C190.12 107.668 190.368 107.491 190.662 107.365C190.955 107.235 191.285 107.17 191.652 107.17C191.955 107.17 192.235 107.221 192.492 107.325C192.752 107.425 192.975 107.571 193.162 107.765C193.352 107.955 193.5 108.191 193.607 108.475C193.713 108.755 193.767 109.075 193.767 109.435C193.767 109.575 193.752 109.668 193.722 109.715C193.692 109.761 193.635 109.785 193.552 109.785H190.167C190.177 110.105 190.22 110.383 190.297 110.62C190.377 110.856 190.487 111.055 190.627 111.215C190.767 111.371 190.933 111.49 191.127 111.57C191.32 111.646 191.537 111.685 191.777 111.685C192 111.685 192.192 111.66 192.352 111.61C192.515 111.556 192.655 111.5 192.772 111.44C192.888 111.38 192.985 111.325 193.062 111.275C193.142 111.221 193.21 111.195 193.267 111.195C193.34 111.195 193.397 111.223 193.437 111.28L193.687 111.605Z" fill="#707789"/>
        <path d="M195.705 108.265C195.865 107.918 196.062 107.648 196.295 107.455C196.528 107.258 196.813 107.16 197.15 107.16C197.257 107.16 197.358 107.171 197.455 107.195C197.555 107.218 197.643 107.255 197.72 107.305L197.655 107.97C197.635 108.053 197.585 108.095 197.505 108.095C197.458 108.095 197.39 108.085 197.3 108.065C197.21 108.045 197.108 108.035 196.995 108.035C196.835 108.035 196.692 108.058 196.565 108.105C196.442 108.151 196.33 108.221 196.23 108.315C196.133 108.405 196.045 108.518 195.965 108.655C195.888 108.788 195.818 108.941 195.755 109.115V112.315H194.86V107.25H195.37C195.467 107.25 195.533 107.268 195.57 107.305C195.607 107.341 195.632 107.405 195.645 107.495L195.705 108.265Z" fill="#707789"/>
        <path d="M427.982 90.5946H424.806V93.9466H423.406V90.5946H420.246V89.2986H423.406V85.9546H424.806V89.2986H427.982V90.5946Z" fill="black"/>
        <path d="M437.712 93.9706C438.346 93.896 438.826 93.688 439.152 93.3466C439.482 93.0053 439.648 92.5653 439.648 92.0266C439.648 91.7973 439.605 91.5973 439.52 91.4266C439.434 91.256 439.317 91.1066 439.168 90.9786C439.024 90.8506 438.85 90.7413 438.648 90.6506C438.445 90.5546 438.226 90.4666 437.992 90.3866L437.712 93.9706ZM437.32 85.1626C437 85.1946 436.725 85.2613 436.496 85.3626C436.266 85.4586 436.077 85.5786 435.928 85.7226C435.778 85.8613 435.669 86.0186 435.6 86.1946C435.53 86.3706 435.496 86.5573 435.496 86.7546C435.496 86.9786 435.536 87.176 435.616 87.3466C435.696 87.5173 435.805 87.6693 435.944 87.8026C436.088 87.9306 436.256 88.0453 436.448 88.1466C436.64 88.2426 436.848 88.3333 437.072 88.4186L437.32 85.1626ZM438.12 88.7546C438.504 88.872 438.882 89.0026 439.256 89.1466C439.634 89.2853 439.973 89.4666 440.272 89.6906C440.57 89.9093 440.81 90.184 440.992 90.5146C441.178 90.8453 441.272 91.2586 441.272 91.7546C441.272 92.24 441.189 92.6986 441.024 93.1306C440.864 93.5573 440.626 93.936 440.312 94.2666C439.997 94.592 439.61 94.8586 439.152 95.0666C438.698 95.2693 438.181 95.3893 437.6 95.4266L437.504 96.7066C437.498 96.8186 437.453 96.92 437.368 97.0106C437.282 97.1066 437.173 97.1546 437.04 97.1546H436.4L436.536 95.4026C435.906 95.328 435.32 95.1626 434.776 94.9066C434.237 94.6453 433.776 94.32 433.392 93.9306L433.912 93.1386C433.96 93.0693 434.021 93.0133 434.096 92.9706C434.176 92.9226 434.261 92.8986 434.352 92.8986C434.464 92.8986 434.584 92.944 434.712 93.0346C434.845 93.1253 435 93.232 435.176 93.3546C435.352 93.472 435.56 93.5893 435.8 93.7066C436.04 93.8186 436.322 93.9013 436.648 93.9546L436.944 90.0746C436.57 89.9626 436.2 89.8373 435.832 89.6986C435.469 89.5546 435.141 89.3653 434.848 89.1306C434.56 88.896 434.325 88.6026 434.144 88.2506C433.968 87.8986 433.88 87.456 433.88 86.9226C433.88 86.5226 433.957 86.1333 434.112 85.7546C434.272 85.376 434.501 85.04 434.8 84.7466C435.104 84.448 435.477 84.2053 435.92 84.0186C436.362 83.8266 436.869 83.7173 437.44 83.6906L437.52 82.6186C437.525 82.5013 437.57 82.3973 437.656 82.3066C437.741 82.216 437.85 82.1706 437.984 82.1706H438.624L438.504 83.7386C439.064 83.8186 439.549 83.9733 439.96 84.2026C440.37 84.4266 440.728 84.688 441.032 84.9866L440.616 85.6266C440.498 85.8133 440.354 85.9066 440.184 85.9066C440.104 85.9066 440.008 85.8773 439.896 85.8186C439.789 85.76 439.661 85.6906 439.512 85.6106C439.368 85.5306 439.202 85.4506 439.016 85.3706C438.829 85.2906 438.621 85.2293 438.392 85.1866L438.12 88.7546Z" fill="black"/>
        <path d="M446.945 86.9626C447.025 86.4186 447.175 85.9413 447.393 85.5306C447.617 85.12 447.897 84.7786 448.233 84.5066C448.569 84.2293 448.953 84.0213 449.385 83.8826C449.823 83.7386 450.295 83.6666 450.801 83.6666C451.313 83.6666 451.777 83.7413 452.193 83.8906C452.615 84.0346 452.975 84.2373 453.273 84.4986C453.577 84.76 453.809 85.072 453.969 85.4346C454.135 85.7973 454.217 86.1946 454.217 86.6266C454.217 86.9946 454.172 87.32 454.081 87.6026C453.996 87.88 453.871 88.1253 453.705 88.3386C453.545 88.552 453.348 88.7306 453.113 88.8746C452.879 89.0186 452.615 89.1386 452.321 89.2346C453.036 89.4426 453.572 89.776 453.929 90.2346C454.287 90.688 454.465 91.2586 454.465 91.9466C454.465 92.5013 454.361 92.9946 454.153 93.4266C453.945 93.8586 453.663 94.224 453.305 94.5226C452.953 94.8213 452.54 95.0506 452.065 95.2106C451.596 95.3653 451.097 95.4426 450.569 95.4426C449.977 95.4426 449.465 95.3733 449.033 95.2346C448.601 95.0906 448.228 94.888 447.913 94.6266C447.604 94.36 447.345 94.04 447.137 93.6666C446.929 93.2933 446.753 92.8746 446.609 92.4106L447.353 92.0986C447.551 92.0133 447.737 91.9893 447.913 92.0266C448.095 92.064 448.225 92.1626 448.305 92.3226C448.391 92.4933 448.487 92.6773 448.593 92.8746C448.7 93.0666 448.836 93.2453 449.001 93.4106C449.172 93.5706 449.38 93.7066 449.625 93.8186C449.876 93.9253 450.183 93.9786 450.545 93.9786C450.913 93.9786 451.233 93.92 451.505 93.8026C451.783 93.68 452.012 93.5253 452.193 93.3386C452.38 93.1466 452.519 92.9333 452.609 92.6986C452.7 92.464 452.745 92.232 452.745 92.0026C452.745 91.7146 452.711 91.4506 452.641 91.2106C452.572 90.9653 452.436 90.7573 452.233 90.5866C452.036 90.416 451.753 90.2826 451.385 90.1866C451.023 90.0853 450.545 90.0346 449.953 90.0346V88.7946C450.439 88.7893 450.847 88.7413 451.177 88.6506C451.513 88.5546 451.78 88.4266 451.977 88.2666C452.18 88.1013 452.324 87.904 452.409 87.6746C452.5 87.4453 452.545 87.1946 452.545 86.9226C452.545 86.6293 452.5 86.3706 452.409 86.1466C452.319 85.9226 452.191 85.736 452.025 85.5866C451.865 85.432 451.673 85.3173 451.449 85.2426C451.225 85.168 450.977 85.1306 450.705 85.1306C450.444 85.1306 450.201 85.168 449.977 85.2426C449.759 85.3173 449.561 85.4213 449.385 85.5546C449.215 85.688 449.071 85.848 448.953 86.0346C448.836 86.216 448.751 86.416 448.697 86.6346C448.623 86.8533 448.521 87 448.393 87.0746C448.271 87.1493 448.089 87.1653 447.849 87.1226L446.945 86.9626Z" fill="black"/>
        <path d="M457.098 95.3066C456.944 95.3066 456.802 95.28 456.674 95.2266C456.546 95.168 456.434 95.0906 456.338 94.9946C456.248 94.8933 456.176 94.776 456.122 94.6426C456.074 94.5093 456.05 94.3626 456.05 94.2026C456.05 94.064 456.074 93.9333 456.122 93.8106C456.176 93.688 456.248 93.5813 456.338 93.4906C456.434 93.4 456.546 93.3306 456.674 93.2826C456.808 93.2293 456.952 93.2026 457.106 93.2026C457.288 93.2026 457.448 93.2373 457.586 93.3066C457.725 93.3706 457.84 93.4613 457.93 93.5786C458.026 93.6906 458.096 93.824 458.138 93.9786C458.186 94.128 458.21 94.288 458.21 94.4586C458.21 94.704 458.173 94.9626 458.098 95.2346C458.029 95.5066 457.922 95.776 457.778 96.0426C457.64 96.3146 457.466 96.5786 457.258 96.8346C457.056 97.0906 456.824 97.3253 456.562 97.5386L456.266 97.2666C456.224 97.224 456.192 97.184 456.17 97.1466C456.154 97.1093 456.146 97.0613 456.146 97.0026C456.146 96.912 456.192 96.8266 456.282 96.7466C456.336 96.688 456.405 96.6106 456.49 96.5146C456.576 96.4186 456.661 96.3093 456.746 96.1866C456.832 96.064 456.909 95.928 456.978 95.7786C457.053 95.6293 457.106 95.472 457.138 95.3066H457.098Z" fill="black"/>
        <path d="M467.81 89.5546C467.81 90.5626 467.701 91.4346 467.482 92.1706C467.269 92.9066 466.973 93.5173 466.594 94.0026C466.215 94.488 465.77 94.848 465.258 95.0826C464.746 95.3173 464.194 95.4346 463.602 95.4346C463.01 95.4346 462.458 95.3173 461.946 95.0826C461.434 94.848 460.989 94.488 460.61 94.0026C460.237 93.5173 459.943 92.9066 459.73 92.1706C459.517 91.4346 459.41 90.5626 459.41 89.5546C459.41 88.5466 459.517 87.6746 459.73 86.9386C459.943 86.1973 460.237 85.5866 460.61 85.1066C460.989 84.6213 461.434 84.2613 461.946 84.0266C462.458 83.7866 463.01 83.6666 463.602 83.6666C464.194 83.6666 464.746 83.7866 465.258 84.0266C465.77 84.2613 466.215 84.6213 466.594 85.1066C466.973 85.5866 467.269 86.1973 467.482 86.9386C467.701 87.6746 467.81 88.5466 467.81 89.5546ZM466.034 89.5546C466.034 88.7013 465.965 87.992 465.826 87.4266C465.693 86.856 465.514 86.4 465.29 86.0586C465.066 85.7173 464.807 85.4746 464.514 85.3306C464.221 85.1866 463.917 85.1146 463.602 85.1146C463.282 85.1146 462.975 85.1866 462.682 85.3306C462.394 85.4746 462.138 85.7173 461.914 86.0586C461.69 86.4 461.511 86.856 461.378 87.4266C461.245 87.992 461.178 88.7013 461.178 89.5546C461.178 90.408 461.245 91.12 461.378 91.6906C461.511 92.256 461.69 92.7093 461.914 93.0506C462.138 93.392 462.394 93.6346 462.682 93.7786C462.975 93.9226 463.282 93.9946 463.602 93.9946C463.917 93.9946 464.221 93.9226 464.514 93.7786C464.807 93.6346 465.066 93.392 465.29 93.0506C465.514 92.7093 465.693 92.256 465.826 91.6906C465.965 91.12 466.034 90.408 466.034 89.5546Z" fill="black"/>
        <path d="M477.091 89.5546C477.091 90.5626 476.982 91.4346 476.763 92.1706C476.55 92.9066 476.254 93.5173 475.875 94.0026C475.497 94.488 475.051 94.848 474.539 95.0826C474.027 95.3173 473.475 95.4346 472.883 95.4346C472.291 95.4346 471.739 95.3173 471.227 95.0826C470.715 94.848 470.27 94.488 469.891 94.0026C469.518 93.5173 469.225 92.9066 469.011 92.1706C468.798 91.4346 468.691 90.5626 468.691 89.5546C468.691 88.5466 468.798 87.6746 469.011 86.9386C469.225 86.1973 469.518 85.5866 469.891 85.1066C470.27 84.6213 470.715 84.2613 471.227 84.0266C471.739 83.7866 472.291 83.6666 472.883 83.6666C473.475 83.6666 474.027 83.7866 474.539 84.0266C475.051 84.2613 475.497 84.6213 475.875 85.1066C476.254 85.5866 476.55 86.1973 476.763 86.9386C476.982 87.6746 477.091 88.5466 477.091 89.5546ZM475.315 89.5546C475.315 88.7013 475.246 87.992 475.107 87.4266C474.974 86.856 474.795 86.4 474.571 86.0586C474.347 85.7173 474.089 85.4746 473.795 85.3306C473.502 85.1866 473.198 85.1146 472.883 85.1146C472.563 85.1146 472.257 85.1866 471.963 85.3306C471.675 85.4746 471.419 85.7173 471.195 86.0586C470.971 86.4 470.793 86.856 470.659 87.4266C470.526 87.992 470.459 88.7013 470.459 89.5546C470.459 90.408 470.526 91.12 470.659 91.6906C470.793 92.256 470.971 92.7093 471.195 93.0506C471.419 93.392 471.675 93.6346 471.963 93.7786C472.257 93.9226 472.563 93.9946 472.883 93.9946C473.198 93.9946 473.502 93.9226 473.795 93.7786C474.089 93.6346 474.347 93.392 474.571 93.0506C474.795 92.7093 474.974 92.256 475.107 91.6906C475.246 91.12 475.315 90.408 475.315 89.5546Z" fill="black"/>
        <path d="M486.372 89.5546C486.372 90.5626 486.263 91.4346 486.044 92.1706C485.831 92.9066 485.535 93.5173 485.156 94.0026C484.778 94.488 484.332 94.848 483.82 95.0826C483.308 95.3173 482.756 95.4346 482.164 95.4346C481.572 95.4346 481.02 95.3173 480.508 95.0826C479.996 94.848 479.551 94.488 479.172 94.0026C478.799 93.5173 478.506 92.9066 478.292 92.1706C478.079 91.4346 477.972 90.5626 477.972 89.5546C477.972 88.5466 478.079 87.6746 478.292 86.9386C478.506 86.1973 478.799 85.5866 479.172 85.1066C479.551 84.6213 479.996 84.2613 480.508 84.0266C481.02 83.7866 481.572 83.6666 482.164 83.6666C482.756 83.6666 483.308 83.7866 483.82 84.0266C484.332 84.2613 484.778 84.6213 485.156 85.1066C485.535 85.5866 485.831 86.1973 486.044 86.9386C486.263 87.6746 486.372 88.5466 486.372 89.5546ZM484.596 89.5546C484.596 88.7013 484.527 87.992 484.388 87.4266C484.255 86.856 484.076 86.4 483.852 86.0586C483.628 85.7173 483.37 85.4746 483.076 85.3306C482.783 85.1866 482.479 85.1146 482.164 85.1146C481.844 85.1146 481.538 85.1866 481.244 85.3306C480.956 85.4746 480.7 85.7173 480.476 86.0586C480.252 86.4 480.074 86.856 479.94 87.4266C479.807 87.992 479.74 88.7013 479.74 89.5546C479.74 90.408 479.807 91.12 479.94 91.6906C480.074 92.256 480.252 92.7093 480.476 93.0506C480.7 93.392 480.956 93.6346 481.244 93.7786C481.538 93.9226 481.844 93.9946 482.164 93.9946C482.479 93.9946 482.783 93.9226 483.076 93.7786C483.37 93.6346 483.628 93.392 483.852 93.0506C484.076 92.7093 484.255 92.256 484.388 91.6906C484.527 91.12 484.596 90.408 484.596 89.5546Z" fill="black"/>
        <path d="M487.598 94.3226C487.598 94.168 487.624 94.024 487.678 93.8906C487.736 93.752 487.814 93.632 487.91 93.5306C488.011 93.4293 488.128 93.3493 488.262 93.2906C488.4 93.232 488.547 93.2026 488.702 93.2026C488.856 93.2026 489 93.232 489.134 93.2906C489.272 93.3493 489.392 93.4293 489.494 93.5306C489.595 93.632 489.675 93.752 489.734 93.8906C489.792 94.024 489.822 94.168 489.822 94.3226C489.822 94.4826 489.792 94.6293 489.734 94.7626C489.675 94.896 489.595 95.0133 489.494 95.1146C489.392 95.216 489.272 95.2933 489.134 95.3466C489 95.4053 488.856 95.4346 488.702 95.4346C488.547 95.4346 488.4 95.4053 488.262 95.3466C488.128 95.2933 488.011 95.216 487.91 95.1146C487.814 95.0133 487.736 94.896 487.678 94.7626C487.624 94.6293 487.598 94.4826 487.598 94.3226Z" fill="black"/>
        <path d="M499.435 89.5546C499.435 90.5626 499.326 91.4346 499.107 92.1706C498.894 92.9066 498.598 93.5173 498.219 94.0026C497.84 94.488 497.395 94.848 496.883 95.0826C496.371 95.3173 495.819 95.4346 495.227 95.4346C494.635 95.4346 494.083 95.3173 493.571 95.0826C493.059 94.848 492.614 94.488 492.235 94.0026C491.862 93.5173 491.568 92.9066 491.355 92.1706C491.142 91.4346 491.035 90.5626 491.035 89.5546C491.035 88.5466 491.142 87.6746 491.355 86.9386C491.568 86.1973 491.862 85.5866 492.235 85.1066C492.614 84.6213 493.059 84.2613 493.571 84.0266C494.083 83.7866 494.635 83.6666 495.227 83.6666C495.819 83.6666 496.371 83.7866 496.883 84.0266C497.395 84.2613 497.84 84.6213 498.219 85.1066C498.598 85.5866 498.894 86.1973 499.107 86.9386C499.326 87.6746 499.435 88.5466 499.435 89.5546ZM497.659 89.5546C497.659 88.7013 497.59 87.992 497.451 87.4266C497.318 86.856 497.139 86.4 496.915 86.0586C496.691 85.7173 496.432 85.4746 496.139 85.3306C495.846 85.1866 495.542 85.1146 495.227 85.1146C494.907 85.1146 494.6 85.1866 494.307 85.3306C494.019 85.4746 493.763 85.7173 493.539 86.0586C493.315 86.4 493.136 86.856 493.003 87.4266C492.87 87.992 492.803 88.7013 492.803 89.5546C492.803 90.408 492.87 91.12 493.003 91.6906C493.136 92.256 493.315 92.7093 493.539 93.0506C493.763 93.392 494.019 93.6346 494.307 93.7786C494.6 93.9226 494.907 93.9946 495.227 93.9946C495.542 93.9946 495.846 93.9226 496.139 93.7786C496.432 93.6346 496.691 93.392 496.915 93.0506C497.139 92.7093 497.318 92.256 497.451 91.6906C497.59 91.12 497.659 90.408 497.659 89.5546Z" fill="black"/>
        <path d="M508.716 89.5546C508.716 90.5626 508.607 91.4346 508.388 92.1706C508.175 92.9066 507.879 93.5173 507.5 94.0026C507.122 94.488 506.676 94.848 506.164 95.0826C505.652 95.3173 505.1 95.4346 504.508 95.4346C503.916 95.4346 503.364 95.3173 502.852 95.0826C502.34 94.848 501.895 94.488 501.516 94.0026C501.143 93.5173 500.85 92.9066 500.636 92.1706C500.423 91.4346 500.316 90.5626 500.316 89.5546C500.316 88.5466 500.423 87.6746 500.636 86.9386C500.85 86.1973 501.143 85.5866 501.516 85.1066C501.895 84.6213 502.34 84.2613 502.852 84.0266C503.364 83.7866 503.916 83.6666 504.508 83.6666C505.1 83.6666 505.652 83.7866 506.164 84.0266C506.676 84.2613 507.122 84.6213 507.5 85.1066C507.879 85.5866 508.175 86.1973 508.388 86.9386C508.607 87.6746 508.716 88.5466 508.716 89.5546ZM506.94 89.5546C506.94 88.7013 506.871 87.992 506.732 87.4266C506.599 86.856 506.42 86.4 506.196 86.0586C505.972 85.7173 505.714 85.4746 505.42 85.3306C505.127 85.1866 504.823 85.1146 504.508 85.1146C504.188 85.1146 503.882 85.1866 503.588 85.3306C503.3 85.4746 503.044 85.7173 502.82 86.0586C502.596 86.4 502.418 86.856 502.284 87.4266C502.151 87.992 502.084 88.7013 502.084 89.5546C502.084 90.408 502.151 91.12 502.284 91.6906C502.418 92.256 502.596 92.7093 502.82 93.0506C503.044 93.392 503.3 93.6346 503.588 93.7786C503.882 93.9226 504.188 93.9946 504.508 93.9946C504.823 93.9946 505.127 93.9226 505.42 93.7786C505.714 93.6346 505.972 93.392 506.196 93.0506C506.42 92.7093 506.599 92.256 506.732 91.6906C506.871 91.12 506.94 90.408 506.94 89.5546Z" fill="black"/>
        <path d="M442.23 105.965H439.91V112.315H438.945V105.965H436.62V105.15H442.23V105.965Z" fill="#707789"/>
        <path d="M443.997 107.17C444.367 107.17 444.701 107.231 444.997 107.355C445.294 107.478 445.547 107.653 445.757 107.88C445.967 108.106 446.127 108.381 446.237 108.705C446.351 109.025 446.407 109.383 446.407 109.78C446.407 110.18 446.351 110.54 446.237 110.86C446.127 111.18 445.967 111.453 445.757 111.68C445.547 111.906 445.294 112.081 444.997 112.205C444.701 112.325 444.367 112.385 443.997 112.385C443.624 112.385 443.287 112.325 442.987 112.205C442.691 112.081 442.437 111.906 442.227 111.68C442.017 111.453 441.856 111.18 441.742 110.86C441.632 110.54 441.577 110.18 441.577 109.78C441.577 109.383 441.632 109.025 441.742 108.705C441.856 108.381 442.017 108.106 442.227 107.88C442.437 107.653 442.691 107.478 442.987 107.355C443.287 107.231 443.624 107.17 443.997 107.17ZM443.997 111.69C444.497 111.69 444.871 111.523 445.117 111.19C445.364 110.853 445.487 110.385 445.487 109.785C445.487 109.181 445.364 108.711 445.117 108.375C444.871 108.038 444.497 107.87 443.997 107.87C443.744 107.87 443.522 107.913 443.332 108C443.146 108.086 442.989 108.211 442.862 108.375C442.739 108.538 442.646 108.74 442.582 108.98C442.522 109.216 442.492 109.485 442.492 109.785C442.492 110.385 442.616 110.853 442.862 111.19C443.112 111.523 443.491 111.69 443.997 111.69Z" fill="#707789"/>
        <path d="M450.836 108.455C450.67 108.231 450.49 108.076 450.296 107.99C450.103 107.9 449.886 107.855 449.646 107.855C449.176 107.855 448.815 108.023 448.561 108.36C448.308 108.696 448.181 109.176 448.181 109.8C448.181 110.13 448.21 110.413 448.266 110.65C448.323 110.883 448.406 111.076 448.516 111.23C448.626 111.38 448.761 111.49 448.921 111.56C449.081 111.63 449.263 111.665 449.466 111.665C449.76 111.665 450.015 111.598 450.231 111.465C450.451 111.331 450.653 111.143 450.836 110.9V108.455ZM451.726 104.95V112.315H451.196C451.07 112.315 450.99 112.253 450.956 112.13L450.876 111.515C450.66 111.775 450.413 111.985 450.136 112.145C449.86 112.305 449.54 112.385 449.176 112.385C448.886 112.385 448.623 112.33 448.386 112.22C448.15 112.106 447.948 111.941 447.781 111.725C447.615 111.508 447.486 111.238 447.396 110.915C447.306 110.591 447.261 110.22 447.261 109.8C447.261 109.426 447.311 109.08 447.411 108.76C447.511 108.436 447.655 108.156 447.841 107.92C448.028 107.683 448.256 107.498 448.526 107.365C448.8 107.228 449.106 107.16 449.446 107.16C449.756 107.16 450.021 107.213 450.241 107.32C450.465 107.423 450.663 107.568 450.836 107.755V104.95H451.726Z" fill="#707789"/>
        <path d="M455.877 110.035C455.467 110.048 455.117 110.081 454.827 110.135C454.54 110.185 454.305 110.251 454.122 110.335C453.942 110.418 453.81 110.516 453.727 110.63C453.647 110.743 453.607 110.87 453.607 111.01C453.607 111.143 453.629 111.258 453.672 111.355C453.715 111.451 453.774 111.531 453.847 111.595C453.924 111.655 454.012 111.7 454.112 111.73C454.215 111.756 454.325 111.77 454.442 111.77C454.599 111.77 454.742 111.755 454.872 111.725C455.002 111.691 455.124 111.645 455.237 111.585C455.354 111.525 455.464 111.453 455.567 111.37C455.674 111.286 455.777 111.191 455.877 111.085V110.035ZM453.002 107.965C453.282 107.695 453.584 107.493 453.907 107.36C454.23 107.226 454.589 107.16 454.982 107.16C455.265 107.16 455.517 107.206 455.737 107.3C455.957 107.393 456.142 107.523 456.292 107.69C456.442 107.856 456.555 108.058 456.632 108.295C456.709 108.531 456.747 108.791 456.747 109.075V112.315H456.352C456.265 112.315 456.199 112.301 456.152 112.275C456.105 112.245 456.069 112.188 456.042 112.105L455.942 111.625C455.809 111.748 455.679 111.858 455.552 111.955C455.425 112.048 455.292 112.128 455.152 112.195C455.012 112.258 454.862 112.306 454.702 112.34C454.545 112.376 454.37 112.395 454.177 112.395C453.98 112.395 453.795 112.368 453.622 112.315C453.449 112.258 453.297 112.175 453.167 112.065C453.04 111.955 452.939 111.816 452.862 111.65C452.789 111.48 452.752 111.28 452.752 111.05C452.752 110.85 452.807 110.658 452.917 110.475C453.027 110.288 453.205 110.123 453.452 109.98C453.699 109.836 454.02 109.72 454.417 109.63C454.814 109.536 455.3 109.483 455.877 109.47V109.075C455.877 108.681 455.792 108.385 455.622 108.185C455.452 107.981 455.204 107.88 454.877 107.88C454.657 107.88 454.472 107.908 454.322 107.965C454.175 108.018 454.047 108.08 453.937 108.15C453.83 108.216 453.737 108.278 453.657 108.335C453.58 108.388 453.504 108.415 453.427 108.415C453.367 108.415 453.315 108.4 453.272 108.37C453.229 108.336 453.192 108.296 453.162 108.25L453.002 107.965Z" fill="#707789"/>
        <path d="M462.356 107.25L459.531 113.81C459.501 113.876 459.462 113.93 459.416 113.97C459.372 114.01 459.304 114.03 459.211 114.03H458.551L459.476 112.02L457.386 107.25H458.156C458.232 107.25 458.292 107.27 458.336 107.31C458.382 107.346 458.414 107.388 458.431 107.435L459.786 110.625C459.839 110.765 459.884 110.911 459.921 111.065C459.967 110.908 460.017 110.76 460.071 110.62L461.386 107.435C461.406 107.381 461.439 107.338 461.486 107.305C461.536 107.268 461.591 107.25 461.651 107.25H462.356Z" fill="#707789"/>
        <path d="M469.841 111.635V112.315H466.001V111.635H467.536V106.75C467.536 106.603 467.541 106.455 467.551 106.305L466.276 107.4C466.233 107.436 466.19 107.46 466.146 107.47C466.103 107.476 466.063 107.476 466.026 107.47C465.99 107.463 465.955 107.45 465.921 107.43C465.891 107.41 465.868 107.388 465.851 107.365L465.571 106.98L467.706 105.135H468.431V111.635H469.841Z" fill="#707789"/>
        <path d="M475.642 111.635V112.315H471.802V111.635H473.337V106.75C473.337 106.603 473.342 106.455 473.352 106.305L472.077 107.4C472.034 107.436 471.99 107.46 471.947 107.47C471.904 107.476 471.864 107.476 471.827 107.47C471.79 107.463 471.755 107.45 471.722 107.43C471.692 107.41 471.669 107.388 471.652 107.365L471.372 106.98L473.507 105.135H474.232V111.635H475.642Z" fill="#707789"/>
        <path d="M476.978 111.765C476.978 111.678 476.993 111.596 477.023 111.52C477.056 111.443 477.099 111.376 477.153 111.32C477.209 111.263 477.276 111.218 477.353 111.185C477.429 111.151 477.511 111.135 477.598 111.135C477.684 111.135 477.766 111.151 477.843 111.185C477.919 111.218 477.986 111.263 478.043 111.32C478.099 111.376 478.144 111.443 478.178 111.52C478.211 111.596 478.228 111.678 478.228 111.765C478.228 111.855 478.211 111.938 478.178 112.015C478.144 112.088 478.099 112.153 478.043 112.21C477.986 112.266 477.919 112.31 477.843 112.34C477.766 112.373 477.684 112.39 477.598 112.39C477.511 112.39 477.429 112.373 477.353 112.34C477.276 112.31 477.209 112.266 477.153 112.21C477.099 112.153 477.056 112.088 477.023 112.015C476.993 111.938 476.978 111.855 476.978 111.765ZM476.978 108.015C476.978 107.928 476.993 107.846 477.023 107.77C477.056 107.693 477.099 107.626 477.153 107.57C477.209 107.513 477.276 107.468 477.353 107.435C477.429 107.401 477.511 107.385 477.598 107.385C477.684 107.385 477.766 107.401 477.843 107.435C477.919 107.468 477.986 107.513 478.043 107.57C478.099 107.626 478.144 107.693 478.178 107.77C478.211 107.846 478.228 107.928 478.228 108.015C478.228 108.105 478.211 108.188 478.178 108.265C478.144 108.338 478.099 108.403 478.043 108.46C477.986 108.516 477.919 108.561 477.843 108.595C477.766 108.625 477.684 108.64 477.598 108.64C477.511 108.64 477.429 108.625 477.353 108.595C477.276 108.561 477.209 108.516 477.153 108.46C477.099 108.403 477.056 108.338 477.023 108.265C476.993 108.188 476.978 108.105 476.978 108.015Z" fill="#707789"/>
        <path d="M479.503 107.09C479.549 106.763 479.639 106.475 479.773 106.225C479.906 105.971 480.074 105.76 480.278 105.59C480.484 105.42 480.719 105.291 480.983 105.205C481.249 105.115 481.536 105.07 481.843 105.07C482.146 105.07 482.426 105.113 482.683 105.2C482.939 105.286 483.159 105.41 483.343 105.57C483.529 105.73 483.674 105.923 483.778 106.15C483.881 106.376 483.933 106.628 483.933 106.905C483.933 107.131 483.903 107.335 483.843 107.515C483.786 107.691 483.703 107.846 483.593 107.98C483.486 108.113 483.356 108.226 483.203 108.32C483.049 108.413 482.878 108.49 482.688 108.55C483.154 108.67 483.504 108.876 483.738 109.17C483.974 109.46 484.093 109.823 484.093 110.26C484.093 110.59 484.029 110.886 483.903 111.15C483.779 111.413 483.609 111.638 483.393 111.825C483.176 112.008 482.923 112.15 482.633 112.25C482.346 112.346 482.038 112.395 481.708 112.395C481.328 112.395 481.003 112.348 480.733 112.255C480.463 112.158 480.234 112.026 480.048 111.86C479.861 111.693 479.708 111.496 479.588 111.27C479.468 111.04 479.366 110.791 479.283 110.525L479.668 110.365C479.768 110.321 479.864 110.31 479.958 110.33C480.054 110.35 480.124 110.405 480.168 110.495C480.211 110.588 480.264 110.7 480.328 110.83C480.394 110.96 480.484 111.085 480.598 111.205C480.711 111.325 480.854 111.426 481.028 111.51C481.204 111.593 481.428 111.635 481.698 111.635C481.948 111.635 482.166 111.595 482.353 111.515C482.543 111.431 482.699 111.325 482.823 111.195C482.949 111.065 483.044 110.92 483.108 110.76C483.171 110.6 483.203 110.441 483.203 110.285C483.203 110.091 483.178 109.915 483.128 109.755C483.078 109.595 482.984 109.456 482.848 109.34C482.711 109.223 482.523 109.131 482.283 109.065C482.046 108.998 481.741 108.965 481.368 108.965V108.32C481.674 108.316 481.934 108.283 482.148 108.22C482.364 108.156 482.539 108.07 482.673 107.96C482.809 107.85 482.908 107.718 482.968 107.565C483.031 107.411 483.063 107.241 483.063 107.055C483.063 106.848 483.029 106.668 482.963 106.515C482.899 106.361 482.811 106.235 482.698 106.135C482.584 106.035 482.449 105.96 482.293 105.91C482.139 105.86 481.973 105.835 481.793 105.835C481.613 105.835 481.444 105.861 481.288 105.915C481.134 105.968 480.998 106.043 480.878 106.14C480.761 106.233 480.663 106.345 480.583 106.475C480.503 106.605 480.446 106.748 480.413 106.905C480.369 107.021 480.314 107.1 480.248 107.14C480.184 107.176 480.091 107.186 479.968 107.17L479.503 107.09Z" fill="#707789"/>
        <path d="M490.059 105.15V105.55C490.059 105.663 490.045 105.756 490.019 105.83C489.995 105.903 489.972 105.965 489.949 106.015L486.979 112C486.935 112.086 486.875 112.161 486.799 112.225C486.722 112.285 486.62 112.315 486.494 112.315H485.854L488.864 106.405C488.907 106.321 488.952 106.245 488.999 106.175C489.045 106.105 489.095 106.038 489.149 105.975H485.409C485.352 105.975 485.302 105.953 485.259 105.91C485.215 105.863 485.194 105.811 485.194 105.755V105.15H490.059Z" fill="#707789"/>
        <path d="M497.401 109.655L496.276 106.74C496.243 106.653 496.208 106.553 496.171 106.44C496.134 106.323 496.099 106.2 496.066 106.07C495.996 106.34 495.924 106.565 495.851 106.745L494.726 109.655H497.401ZM499.421 112.315H498.671C498.584 112.315 498.514 112.293 498.461 112.25C498.408 112.206 498.368 112.151 498.341 112.085L497.671 110.355H494.456L493.786 112.085C493.766 112.145 493.728 112.198 493.671 112.245C493.614 112.291 493.544 112.315 493.461 112.315H492.711L495.576 105.15H496.556L499.421 112.315Z" fill="#707789"/>
        <path d="M507.818 105.15V112.315H506.968V107.05C506.968 106.98 506.97 106.905 506.973 106.825C506.98 106.745 506.987 106.663 506.993 106.58L504.533 111.06C504.457 111.21 504.34 111.285 504.183 111.285H504.043C503.887 111.285 503.77 111.21 503.693 111.06L501.183 106.56C501.203 106.736 501.214 106.9 501.214 107.05V112.315H500.363V105.15H501.078C501.165 105.15 501.232 105.158 501.278 105.175C501.325 105.191 501.37 105.238 501.413 105.315L503.888 109.725C503.928 109.805 503.967 109.888 504.003 109.975C504.043 110.061 504.08 110.15 504.113 110.24C504.147 110.15 504.182 110.061 504.218 109.975C504.255 109.885 504.295 109.8 504.339 109.72L506.768 105.315C506.808 105.238 506.852 105.191 506.898 105.175C506.948 105.158 507.017 105.15 507.103 105.15H507.818Z" fill="#707789"/>
        <path d="M101.715 103.372L112.276 97.1324L101.715 92.3412L91.1665 97.1324L101.715 103.372Z" fill="black"/>
        <path d="M101.715 92.3412L101.715 79.6198L91.1665 97.1324L101.715 103.372V92.3412Z" fill="black"/>
        <path d="M101.715 103.372L112.276 97.1324L101.715 79.6198L101.715 92.3412V103.372Z" fill="black"/>
        <path d="M101.715 105.368L91.1665 99.1403L101.715 114.01V105.368Z" fill="black"/>
        <path d="M112.276 99.1403L101.715 105.368V114.01L112.276 99.1403Z" fill="black"/>
      </g>
    </g>
  </g>

  <defs>

    <clipPath id="clip0_44_21">
      <rect width="594" height="214" fill="white" />
    </clipPath>
    <style>


#bit_1,
      #bit_2,
      #bit_3,
      #eth_1,
      #eth_2,
      #eth_3 {
        transform-box: fill-box;
        transform-origin: center;
      }

      #bit_1 {
        animation: bit_1 6s ease-in-out infinite;
      }

      @keyframes bit_1 {
        0% {
          transform: translateY(200px);
        }

        10%,
        40% {
          transform: translateY(0px);
        }

        50%,
        100% {
          transform: translateY(-200px);
        }
      }

      #bit_2 {
        animation: bit_2 6s ease-in-out infinite;
      }

      @keyframes bit_2 {
        0% {
          transform: translateY(200px);
        }

        12%,
        42% {
          transform: translateY(0px);
        }

        52%,
        100% {
          transform: translateY(-200px);
        }
      }

      #bit_3 {
        animation: bit_3 6s ease-in-out infinite;
      }

      @keyframes bit_3 {
        0% {
          transform: translateY(200px);
        }

        14%,
        44% {
          transform: translateY(0px);
        }

        54%,
        100% {
          transform: translateY(-200px);
        }
      }

      #eth_1 {
        animation: eth_1 6s ease-in-out infinite;
      }

      @keyframes eth_1 {
        0%,
        40% {
          transform: translateY(200px);
        }

        50%,
        80% {
          transform: translateY(0px);
        }

        90%,
        100% {
          transform: translateY(-200px);
        }
      }

      #eth_2 {
        animation: eth_2 6s ease-in-out infinite;
      }

      @keyframes eth_2 {
        0%,
        42% {
          transform: translateY(200px);
        }

        52%,
        82% {
          transform: translateY(0px);
        }

        92%,
        100% {
          transform: translateY(-200px);
        }
      }

      #eth_3 {
        animation: eth_3 6s ease-in-out infinite;
      }

      @keyframes eth_3 {
        0%,
        44% {
          transform: translateY(200px);
        }

        54%,
        84% {
          transform: translateY(0px);
        }

        94%,
        100% {
          transform: translateY(-200px);
        }
      }
    </style>
  </defs>
</svg>
