<svg width="167" height="36" viewBox="0 0 167 36" fill="none" xmlns="http://www.w3.org/2000/svg">
<path d="M34.632 22.1903C32.3185 31.4696 22.9202 37.1168 13.6398 34.8028C4.36322 32.4894 -1.28402 23.0905 1.03052 13.8117C3.3429 4.53137 12.7413 -1.11642 22.0189 1.19704C31.2987 3.51051 36.9454 12.9105 34.632 22.1903Z" fill="#F7931A"/>
<path d="M25.468 15.5325C25.8128 13.2277 24.058 11.9887 21.6584 11.1621L22.4368 8.03997L20.5364 7.56634L19.7786 10.6062C19.2789 10.4817 18.7658 10.3643 18.2559 10.2479L19.0191 7.18798L17.1198 6.71436L16.3408 9.83542C15.9273 9.74123 15.5213 9.64813 15.1273 9.55016L15.1294 9.54041L12.5085 8.886L12.003 10.9158C12.003 10.9158 13.413 11.239 13.3833 11.259C14.153 11.4512 14.2921 11.9605 14.2688 12.3643L13.3822 15.9211C13.4352 15.9346 13.504 15.9541 13.5797 15.9844C13.5164 15.9687 13.4487 15.9514 13.3789 15.9346L12.1361 20.9172C12.0419 21.151 11.8032 21.5018 11.2652 21.3686C11.2841 21.3962 9.88383 21.0238 9.88383 21.0238L8.94037 23.1992L11.4135 23.8158C11.8736 23.9311 12.3245 24.0518 12.7683 24.1654L11.9819 27.3233L13.8802 27.7969L14.6591 24.6726C15.1776 24.8134 15.681 24.9433 16.1736 25.0656L15.3974 28.1753L17.2978 28.6489L18.0843 25.497C21.325 26.1103 23.7619 25.8629 24.7876 22.9319C25.6142 20.5718 24.7465 19.2105 23.0414 18.3228C24.2831 18.0365 25.2185 17.2197 25.468 15.5325ZM21.1258 21.6214C20.5385 23.9814 16.5649 22.7056 15.2767 22.3857L16.3203 18.2021C17.6085 18.5236 21.7396 19.1602 21.1258 21.6214ZM21.7137 15.4984C21.1778 17.6451 17.8705 16.5544 16.7977 16.287L17.7439 12.4926C18.8167 12.76 22.2717 13.2591 21.7137 15.4984Z" fill="white"/>
<path d="M51.2711 11.1588C52.6758 11.1588 53.8893 11.4105 54.9091 11.9047C55.9338 12.4038 56.7793 13.0761 57.4575 13.9216C58.1265 14.7714 58.6245 15.7646 58.946 16.903C59.2654 18.0445 59.4256 19.2716 59.4256 20.5853C59.4256 22.6033 59.0559 24.5097 58.3095 26.3067C57.563 28.1065 56.5503 29.6676 55.262 30.9992C53.9748 32.3291 52.4549 33.3776 50.7022 34.1521C48.9522 34.9273 47.0496 35.3148 45.0068 35.3148C44.7427 35.3148 44.2782 35.3073 43.6222 35.2937C42.9662 35.2802 42.2121 35.2125 41.3677 35.0983C40.5179 34.9798 39.6194 34.8044 38.6705 34.5695C37.7222 34.3389 36.8215 34.0157 35.9733 33.6054L43.5578 1.73664L50.3509 0.683838L47.6353 11.9929C48.2166 11.731 48.8023 11.528 49.3869 11.3802C49.972 11.2346 50.5999 11.1588 51.2711 11.1588ZM45.573 29.9258C46.596 29.9258 47.5601 29.6741 48.4656 29.1799C49.3739 28.6852 50.1577 28.0172 50.8143 27.1852C51.4709 26.3495 51.9905 25.4082 52.3694 24.3565C52.7483 23.3048 52.9399 22.2076 52.9399 21.066C52.9399 19.6635 52.7055 18.5696 52.2384 17.7788C51.7713 16.9912 50.9068 16.595 49.6516 16.595C49.2402 16.595 48.7103 16.6735 48.0532 16.8136C47.3939 16.9625 46.8039 17.2716 46.275 17.7365L43.3835 29.7466C43.5578 29.7775 43.712 29.8067 43.8436 29.8343C43.9724 29.8641 44.1148 29.8852 44.2566 29.8998C44.4065 29.9166 44.5781 29.9252 44.7854 29.9252C44.9927 29.9252 45.252 29.9258 45.573 29.9258ZM66.4705 34.7048H59.982L65.4615 11.6476H71.9943L66.4705 34.7048ZM69.6278 8.83833C68.7222 8.83833 67.9011 8.56877 67.1725 8.02856C66.438 7.4916 66.0742 6.66506 66.0742 5.55109C66.0742 4.93835 66.1987 4.36351 66.4456 3.82114C66.6962 3.27985 67.0237 2.8138 67.4339 2.41758C67.8437 2.02461 68.3184 1.71066 68.8575 1.47412C69.3999 1.24136 69.9769 1.12499 70.5918 1.12499C71.4968 1.12499 72.3136 1.39455 73.0449 1.93475C73.7735 2.47766 74.14 3.30421 74.14 4.41222C74.14 5.02712 74.016 5.60414 73.767 6.14542C73.5196 6.68671 73.1922 7.15276 72.7819 7.54898C72.3754 7.9425 71.8963 8.25536 71.3583 8.48974C70.8154 8.72628 70.2405 8.83833 69.6278 8.83833ZM77.6805 5.90293L84.4764 4.85012L82.8076 11.6465H90.0857L88.7715 16.9934H81.5372L79.6102 25.0585C79.4327 25.7308 79.332 26.3587 79.3038 26.9422C79.2719 27.5284 79.3461 28.0318 79.5214 28.4556C79.6957 28.8806 80.0091 29.208 80.4638 29.4397C80.9163 29.6752 81.5642 29.7937 82.4141 29.7937C83.1139 29.7937 83.796 29.7271 84.4553 29.5951C85.1108 29.4651 85.7749 29.2844 86.4472 29.0478L86.9311 34.0471C86.0542 34.3687 85.1048 34.6453 84.0818 34.878C83.0571 35.114 81.8441 35.2277 80.4422 35.2277C78.4264 35.2277 76.8637 34.9284 75.7503 34.3324C74.6385 33.7321 73.8525 32.9121 73.3821 31.8739C72.9183 30.8395 72.711 29.647 72.7689 28.3035C72.829 26.9568 73.0319 25.5414 73.3821 24.0507L77.6805 5.90293ZM89.7999 25.4975C89.7999 23.5115 90.1214 21.6387 90.764 19.8855C91.4054 18.1306 92.3294 16.5961 93.5283 15.2791C94.7229 13.9686 96.1784 12.9305 97.8916 12.1683C99.5967 11.4105 101.506 11.0284 103.61 11.0284C104.927 11.0284 106.103 11.1529 107.138 11.4024C108.177 11.6541 109.117 11.9794 109.968 12.3875L107.73 17.4756C107.145 17.2386 106.539 17.0296 105.911 16.8402C105.283 16.6469 104.517 16.5538 103.61 16.5538C101.445 16.5538 99.7325 17.3003 98.4584 18.7883C97.189 20.2773 96.5498 22.2817 96.5498 24.796C96.5498 26.2862 96.8713 27.4911 97.5165 28.4129C98.1585 29.3347 99.3444 29.7932 101.066 29.7932C101.916 29.7932 102.736 29.7044 103.522 29.5312C104.313 29.3558 105.012 29.135 105.627 28.8741L106.112 34.0899C105.291 34.4082 104.386 34.6956 103.393 34.9473C102.398 35.1903 101.214 35.3165 99.8408 35.3165C98.028 35.3165 96.4935 35.0512 95.2382 34.5289C93.9825 33.9984 92.9448 33.2942 92.1275 32.4022C91.3058 31.508 90.7158 30.4638 90.351 29.2654C89.9861 28.0681 89.7999 26.8101 89.7999 25.4975ZM118.623 35.3165C117.075 35.3165 115.73 35.0805 114.589 34.6133C113.451 34.1462 112.509 33.4907 111.763 32.6409C111.017 31.7954 110.458 30.7935 110.075 29.6389C109.693 28.4849 109.509 27.2069 109.509 25.8066C109.509 24.0501 109.791 22.2942 110.361 20.5431C110.928 18.7883 111.77 17.2115 112.884 15.8101C113.989 14.4065 115.352 13.259 116.958 12.3643C118.562 11.4755 120.406 11.0284 122.478 11.0284C123.999 11.0284 125.337 11.2649 126.494 11.732C127.645 12.1981 128.593 12.859 129.343 13.7045C130.085 14.5543 130.648 15.5519 131.027 16.7081C131.409 17.86 131.597 19.1412 131.597 20.5426C131.597 22.2936 131.319 24.0496 130.767 25.806C130.214 27.5539 129.394 29.1344 128.311 30.5391C127.231 31.9405 125.88 33.0874 124.257 33.9784C122.637 34.8694 120.757 35.3165 118.623 35.3165ZM121.866 16.5544C120.904 16.5544 120.054 16.8337 119.326 17.3852C118.595 17.9433 117.981 18.6448 117.487 19.4909C116.987 20.3407 116.616 21.2674 116.365 22.2747C116.117 23.2842 115.995 24.2385 115.995 25.1451C115.995 26.6082 116.231 27.7476 116.695 28.5677C117.165 29.3834 118.01 29.7937 119.238 29.7937C120.203 29.7937 121.05 29.5166 121.782 28.959C122.508 28.4053 123.123 27.7033 123.621 26.8556C124.118 26.0101 124.492 25.0807 124.743 24.0718C124.988 23.0655 125.113 22.1058 125.113 21.2008C125.113 19.7415 124.878 18.5994 124.41 17.7804C123.942 16.9647 123.093 16.5544 121.866 16.5544ZM138.667 34.7048H132.173L137.653 11.6476H144.189L138.667 34.7048ZM141.82 8.83833C140.915 8.83833 140.094 8.56877 139.367 8.02856C138.636 7.4916 138.269 6.66506 138.269 5.55109C138.269 4.93835 138.395 4.36351 138.642 3.82114C138.89 3.27985 139.219 2.8138 139.63 2.41758C140.037 2.02461 140.516 1.71066 141.054 1.47412C141.594 1.24136 142.171 1.12499 142.783 1.12499C143.69 1.12499 144.51 1.39455 145.24 1.93475C145.97 2.47766 146.338 3.30421 146.338 4.41222C146.338 5.02712 146.207 5.60414 145.962 6.14542C145.717 6.68671 145.387 7.15276 144.979 7.54898C144.567 7.9425 144.094 8.25536 143.555 8.48974C143.012 8.72628 142.436 8.83833 141.82 8.83833ZM148.865 12.6961C149.358 12.5521 149.908 12.3789 150.506 12.1905C151.106 12.0021 151.777 11.8268 152.526 11.6687C153.267 11.5058 154.103 11.3737 155.023 11.2714C155.942 11.1669 156.99 11.1161 158.155 11.1161C161.577 11.1161 163.936 12.1126 165.238 14.0996C166.539 16.0867 166.764 18.8061 165.92 22.253L162.935 34.7026H156.404L159.297 22.515C159.473 21.754 159.612 21.0184 159.714 20.2995C159.818 19.5872 159.812 18.9593 159.691 18.4159C159.576 17.8789 159.304 17.4394 158.882 17.0989C158.454 16.7638 157.807 16.5955 156.93 16.5955C156.084 16.5955 155.223 16.6864 154.345 16.8618L150.092 34.7021H143.558L148.865 12.6961Z" fill="#4D4D4D"/>
</svg>
