<svg width="165" height="34" viewBox="0 0 165 34" fill="none" xmlns="http://www.w3.org/2000/svg">
<path d="M10.413 16.8763C10.3765 17.5114 10.5937 18.1351 11.0168 18.6102C11.4399 19.0853 12.0343 19.3731 12.6694 19.4102H12.8003C13.268 19.4097 13.7254 19.2722 14.1159 19.0147C14.5064 18.7573 14.813 18.3911 14.9979 17.9615C15.1827 17.5318 15.2377 17.0574 15.156 16.5968C15.0743 16.1362 14.8596 15.7097 14.5383 15.3697C14.217 15.0298 13.8032 14.7914 13.3479 14.6839C12.8927 14.5765 12.4159 14.6047 11.9765 14.765C11.5371 14.9254 11.1543 15.2109 10.8753 15.5863C10.5963 15.9617 10.4333 16.4106 10.4064 16.8776L10.413 16.8763Z" fill="#0033AD"/>
<path d="M1.48154 16.269C1.32884 16.2605 1.17703 16.2974 1.04531 16.3751C0.913581 16.4528 0.807845 16.5678 0.741462 16.7056C0.675079 16.8434 0.651028 16.9977 0.672349 17.1492C0.693671 17.3006 0.759407 17.4423 0.861251 17.5564C0.963095 17.6705 1.09647 17.7519 1.24453 17.7902C1.39259 17.8285 1.54869 17.8221 1.69309 17.7717C1.83749 17.7213 1.96372 17.6293 2.05583 17.5072C2.14793 17.3851 2.20177 17.2384 2.21055 17.0857C2.21656 16.9842 2.20245 16.8825 2.16903 16.7864C2.1356 16.6903 2.08352 16.6018 2.01578 16.5259C1.94804 16.45 1.86597 16.3882 1.77428 16.3441C1.6826 16.3001 1.58311 16.2745 1.48154 16.269Z" fill="#0033AD"/>
<path d="M10.2611 2.97531C10.3971 2.90547 10.5094 2.79696 10.5839 2.66344C10.6583 2.52991 10.6916 2.37734 10.6796 2.22494C10.6675 2.07253 10.6106 1.9271 10.5161 1.80695C10.4216 1.6868 10.2936 1.5973 10.1483 1.54971C10.003 1.50213 9.84689 1.49859 9.6996 1.53955C9.5523 1.5805 9.42041 1.66411 9.32053 1.77986C9.22065 1.8956 9.15725 2.03831 9.1383 2.19001C9.11935 2.34172 9.1457 2.49564 9.21404 2.6324C9.25998 2.72394 9.32358 2.80548 9.40118 2.87232C9.47877 2.93917 9.56884 2.99 9.66617 3.02187C9.7635 3.05375 9.86618 3.06605 9.96829 3.05805C10.0704 3.05006 10.1699 3.02194 10.2611 2.97531Z" fill="#0033AD"/>
<path d="M12.6916 7.21343C12.9029 7.10689 13.0777 6.94012 13.1942 6.7342C13.3106 6.52828 13.3634 6.29246 13.3458 6.05655C13.3283 5.82064 13.2412 5.59523 13.0955 5.40883C12.9499 5.22242 12.7522 5.08338 12.5276 5.00929C12.3029 4.93519 12.0613 4.92937 11.8333 4.99256C11.6054 5.05575 11.4013 5.1851 11.2468 5.36428C11.0923 5.54345 10.9945 5.7644 10.9656 5.99919C10.9367 6.23398 10.978 6.47207 11.0844 6.68336C11.1551 6.82374 11.2527 6.94881 11.3718 7.05143C11.4908 7.15405 11.6289 7.23221 11.7782 7.28144C11.9274 7.33066 12.0849 7.35 12.2417 7.33833C12.3984 7.32666 12.5513 7.28422 12.6916 7.21343Z" fill="#0033AD"/>
<path d="M4.51283 10.1281C4.67574 10.2352 4.86677 10.2916 5.06175 10.2902C5.25672 10.2887 5.44688 10.2294 5.60817 10.1198C5.76945 10.0103 5.89461 9.85533 5.9678 9.67461C6.041 9.49389 6.05894 9.29552 6.01936 9.10459C5.97979 8.91367 5.88447 8.73878 5.74547 8.60204C5.60646 8.46531 5.43003 8.37288 5.23848 8.33645C5.04693 8.30002 4.84888 8.32122 4.66939 8.39738C4.48989 8.47354 4.33703 8.60123 4.23012 8.76429C4.08695 8.98269 4.0363 9.24898 4.08931 9.50468C4.14231 9.76039 4.29464 9.9846 4.51283 10.1281Z" fill="#0033AD"/>
<path d="M5.96953 15.8333C5.73336 15.82 5.49854 15.877 5.29476 15.9971C5.09097 16.1172 4.92736 16.295 4.82462 16.5081C4.72187 16.7211 4.6846 16.9599 4.71751 17.1941C4.75042 17.4284 4.85204 17.6476 5.00952 17.8241C5.167 18.0006 5.37327 18.1265 5.60227 18.1858C5.83126 18.2451 6.07269 18.2351 6.29605 18.1572C6.5194 18.0794 6.71465 17.937 6.85711 17.7482C6.99958 17.5593 7.08286 17.3325 7.09643 17.0963C7.1143 16.7795 7.00565 16.4684 6.79435 16.2316C6.58305 15.9948 6.28639 15.8515 5.96953 15.8333Z" fill="#0033AD"/>
<path d="M4.64367 23.876C4.46973 23.9639 4.32577 24.1014 4.22996 24.2711C4.13416 24.4408 4.09083 24.6351 4.10543 24.8294C4.12004 25.0238 4.19194 25.2094 4.31204 25.3629C4.43213 25.5164 4.59504 25.6308 4.78016 25.6917C4.96528 25.7526 5.1643 25.7573 5.35207 25.7051C5.53984 25.653 5.70793 25.5463 5.83508 25.3986C5.96224 25.2509 6.04275 25.0688 6.06644 24.8754C6.09013 24.6819 6.05595 24.4858 5.9682 24.3118C5.90989 24.1962 5.82936 24.0932 5.73123 24.0087C5.63309 23.9242 5.51926 23.8599 5.39625 23.8194C5.27324 23.7789 5.14346 23.7631 5.01433 23.7728C4.8852 23.7825 4.75924 23.8176 4.64367 23.876Z" fill="#0033AD"/>
<path d="M9.29391 13.3608C9.52686 13.5135 9.79985 13.5937 10.0784 13.5912C10.3569 13.5887 10.6284 13.5037 10.8586 13.3469C11.0888 13.1902 11.2673 12.9686 11.3716 12.7104C11.4759 12.4522 11.5013 12.1688 11.4446 11.8961C11.3879 11.6234 11.2516 11.3737 11.0529 11.1785C10.8543 10.9833 10.6022 10.8513 10.3286 10.7994C10.0549 10.7474 9.77203 10.7778 9.51565 10.8866C9.25927 10.9954 9.0409 11.1778 8.88817 11.4107C8.78657 11.5653 8.71646 11.7385 8.68186 11.9202C8.64726 12.102 8.64885 12.2888 8.68654 12.4699C8.72423 12.6511 8.79727 12.823 8.90149 12.9759C9.00571 13.1287 9.13907 13.2596 9.29391 13.3608Z" fill="#0033AD"/>
<path d="M24.0471 7.11908C24.2454 7.24846 24.4777 7.31613 24.7145 7.31354C24.9513 7.31094 25.182 7.23821 25.3775 7.10452C25.5729 6.97083 25.7244 6.78219 25.8126 6.56245C25.9009 6.34271 25.9221 6.10173 25.8734 5.86997C25.8247 5.63822 25.7085 5.42609 25.5393 5.2604C25.3701 5.09471 25.1556 4.98291 24.9228 4.93911C24.6901 4.89532 24.4496 4.92151 24.2318 5.01437C24.0139 5.10722 23.8285 5.26258 23.699 5.4608C23.6127 5.59247 23.5532 5.73987 23.5241 5.89455C23.4949 6.04923 23.4965 6.20815 23.5288 6.3622C23.5612 6.51626 23.6236 6.66241 23.7125 6.79229C23.8015 6.92217 23.9152 7.03323 24.0471 7.11908Z" fill="#0033AD"/>
<path d="M26.5024 2.89415C26.6306 2.97819 26.7809 3.02231 26.9341 3.02093C27.0874 3.01955 27.2368 2.97274 27.3635 2.88641C27.4902 2.80009 27.5884 2.67813 27.6457 2.53597C27.7031 2.3938 27.717 2.23783 27.6856 2.08778C27.6543 1.93772 27.5792 1.80033 27.4697 1.69299C27.3603 1.58565 27.2215 1.51318 27.0709 1.48475C26.9202 1.45633 26.7646 1.47322 26.6235 1.53329C26.4825 1.59336 26.3625 1.69391 26.2786 1.82223C26.1663 1.99409 26.1267 2.20351 26.1687 2.4045C26.2107 2.60548 26.3307 2.7816 26.5024 2.89415Z" fill="#0033AD"/>
<path d="M24.2355 14.5965C23.9214 14.5784 23.6068 14.6224 23.3097 14.726C23.0126 14.8295 22.7388 14.9905 22.5039 15.1999C22.0296 15.6227 21.7426 16.2166 21.7062 16.8509C21.6697 17.4853 21.8868 18.1082 22.3095 18.5825C22.7323 19.0568 23.3262 19.3438 23.9606 19.3802C24.0064 19.3802 24.0535 19.3802 24.0993 19.3802C24.5615 19.38 25.0136 19.2461 25.4014 18.9947C25.7891 18.7432 26.0958 18.385 26.2845 17.9632C26.4732 17.5413 26.5359 17.0739 26.4649 16.6173C26.394 16.1606 26.1924 15.7343 25.8846 15.3896C25.6761 15.1546 25.4229 14.9634 25.1398 14.8272C24.8567 14.691 24.5492 14.6126 24.2355 14.5965Z" fill="#0033AD"/>
<path d="M13.4782 13.1947C13.6771 13.5919 13.9829 13.9258 14.3612 14.1586C14.7395 14.3915 15.1753 14.5141 15.6195 14.5127C16.029 14.5128 16.4318 14.4079 16.7893 14.2081C17.1468 14.0083 17.4471 13.7202 17.6616 13.3713C17.876 13.0224 17.9975 12.6243 18.0144 12.2151C18.0313 11.8059 17.9431 11.3992 17.7581 11.0338C17.5579 10.6384 17.2515 10.3065 16.8733 10.0754C16.4952 9.8442 16.0601 9.72288 15.6169 9.725C15.2086 9.7257 14.8072 9.8307 14.4509 10.03C14.0946 10.2294 13.7951 10.5165 13.5809 10.864C13.3666 11.2116 13.2448 11.6081 13.2268 12.016C13.2088 12.4239 13.2954 12.8296 13.4782 13.1947Z" fill="#0033AD"/>
<path d="M32.2598 10.1254C32.4338 10.0376 32.5778 9.90023 32.6737 9.73061C32.7696 9.56098 32.8131 9.36673 32.7986 9.17241C32.7842 8.97809 32.7124 8.79241 32.5925 8.63885C32.4725 8.48529 32.3097 8.37074 32.1247 8.30966C31.9396 8.24859 31.7407 8.24375 31.5529 8.29574C31.3651 8.34773 31.1969 8.45422 31.0696 8.60176C30.9423 8.7493 30.8616 8.93126 30.8377 9.12465C30.8138 9.31804 30.8478 9.51417 30.9353 9.68827C31.0531 9.92177 31.2587 10.099 31.5071 10.1809C31.7554 10.2629 32.0262 10.2429 32.2598 10.1254Z" fill="#0033AD"/>
<path d="M26.1857 10.8885C25.9369 11.0138 25.7309 11.21 25.5936 11.4524C25.4564 11.6948 25.3941 11.9724 25.4147 12.2502C25.4352 12.528 25.5377 12.7934 25.7091 13.013C25.8805 13.2325 26.1132 13.3963 26.3777 13.4836C26.6422 13.5709 26.9266 13.5778 27.195 13.5035C27.4635 13.4291 27.7038 13.2769 27.8857 13.0659C28.0676 12.855 28.1828 12.5948 28.2169 12.3184C28.2509 12.0419 28.2022 11.7616 28.0769 11.5128C27.9938 11.3475 27.879 11.2002 27.739 11.0794C27.5989 10.9585 27.4364 10.8664 27.2607 10.8085C27.0851 10.7505 26.8997 10.7277 26.7152 10.7414C26.5308 10.7552 26.3508 10.8051 26.1857 10.8885Z" fill="#0033AD"/>
<path d="M18.3615 2.53297C18.5561 2.54406 18.7497 2.49717 18.9176 2.39823C19.0856 2.29929 19.2205 2.15276 19.3052 1.97716C19.3899 1.80156 19.4206 1.60479 19.3934 1.41173C19.3663 1.21868 19.2825 1.03801 19.1526 0.892596C19.0228 0.747178 18.8527 0.643538 18.6639 0.594787C18.4752 0.546037 18.2762 0.554365 18.0922 0.618719C17.9081 0.683073 17.7473 0.800561 17.6301 0.956321C17.5128 1.11208 17.4444 1.29912 17.4335 1.49377C17.4189 1.7546 17.5084 2.01058 17.6824 2.20545C17.8564 2.40031 18.1006 2.51812 18.3615 2.53297Z" fill="#0033AD"/>
<path d="M18.351 8.7354C18.629 8.75099 18.9054 8.68381 19.1453 8.54235C19.3851 8.40089 19.5776 8.19151 19.6985 7.94066C19.8194 7.68981 19.8632 7.40876 19.8244 7.13303C19.7856 6.85729 19.6659 6.59925 19.4805 6.39152C19.295 6.18378 19.0522 6.03568 18.7826 5.96592C18.513 5.89617 18.2288 5.9079 17.9659 5.99962C17.703 6.09135 17.4732 6.25895 17.3055 6.48126C17.1378 6.70356 17.0398 6.97058 17.0239 7.24858C17.0028 7.62171 17.1307 7.98794 17.3796 8.26675C17.6285 8.54557 17.9779 8.71414 18.351 8.7354Z" fill="#0033AD"/>
<path d="M10.7205 23.1117C10.9693 22.9863 11.1752 22.79 11.3123 22.5475C11.4495 22.305 11.5116 22.0274 11.4909 21.7496C11.4702 21.4718 11.3676 21.2064 11.1961 20.9869C11.0245 20.7674 10.7917 20.6038 10.5271 20.5166C10.2626 20.4295 9.97809 20.4227 9.70968 20.4973C9.44128 20.5718 9.20101 20.7243 9.01927 20.9354C8.83752 21.1465 8.72246 21.4067 8.68864 21.6832C8.65482 21.9597 8.70376 22.24 8.82927 22.4887C8.9975 22.8221 9.29124 23.075 9.6459 23.1918C10.0006 23.3086 10.3871 23.2798 10.7205 23.1117Z" fill="#0033AD"/>
<path d="M19.2607 10.7903C18.9686 11.236 18.8335 11.7664 18.8768 12.2976C18.9201 12.8288 19.1393 13.3303 19.4997 13.7229C19.8601 14.1154 20.3411 14.3766 20.8667 14.465C21.3922 14.5534 21.9322 14.464 22.4012 14.211C22.8702 13.958 23.2415 13.5558 23.4562 13.068C23.6709 12.5803 23.7168 12.0349 23.5867 11.5181C23.4565 11.0013 23.1577 10.5427 22.7376 10.2148C22.3175 9.88696 21.8 9.70857 21.2671 9.70789C20.8691 9.70761 20.4773 9.80641 20.127 9.99537C19.7768 10.1843 19.479 10.4575 19.2607 10.7903Z" fill="#0033AD"/>
<path d="M23.4253 20.8068C23.2334 20.4263 22.9434 20.1038 22.5854 19.8727C22.2273 19.6417 21.814 19.5103 21.3882 19.4923C20.9624 19.4742 20.5395 19.5701 20.1631 19.77C19.7868 19.9699 19.4705 20.2666 19.2471 20.6295C19.0237 20.9924 18.9011 21.4084 18.8921 21.8345C18.883 22.2606 18.9879 22.6813 19.1957 23.0534C19.4036 23.4255 19.7069 23.7353 20.0745 23.951C20.442 24.1667 20.8605 24.2804 21.2867 24.2804C21.6616 24.2778 22.0308 24.1882 22.3651 24.0186C22.9307 23.7324 23.3598 23.2336 23.5585 22.6317C23.7572 22.0297 23.7093 21.3735 23.4253 20.8068Z" fill="#0033AD"/>
<path d="M27.6109 20.6392C27.378 20.4864 27.1051 20.406 26.8266 20.4082C26.5481 20.4105 26.2765 20.4953 26.0461 20.6519C25.8158 20.8086 25.6371 21.03 25.5326 21.2882C25.4281 21.5464 25.4025 21.8297 25.4591 22.1025C25.5156 22.3752 25.6518 22.625 25.8504 22.8204C26.0489 23.0157 26.3009 23.1478 26.5745 23.1999C26.8482 23.252 27.1311 23.2218 27.3875 23.1132C27.644 23.0045 27.8625 22.8222 28.0153 22.5894C28.2196 22.2769 28.2917 21.8963 28.2159 21.5307C28.1401 21.1652 27.9226 20.8446 27.6109 20.6392Z" fill="#0033AD"/>
<path d="M32.1971 17.0413C32.2104 16.8051 32.1534 16.5703 32.0333 16.3665C31.9132 16.1627 31.7354 15.9991 31.5223 15.8963C31.3093 15.7936 31.0705 15.7563 30.8363 15.7892C30.602 15.8221 30.3828 15.9238 30.2063 16.0812C30.0298 16.2387 29.9039 16.445 29.8447 16.674C29.7854 16.903 29.7953 17.1444 29.8732 17.3678C29.9511 17.5911 30.0934 17.7864 30.2823 17.9288C30.4711 18.0713 30.6979 18.1546 30.9341 18.1681C31.2509 18.186 31.562 18.0774 31.7988 17.8661C32.0356 17.6548 32.1789 17.3581 32.1971 17.0413Z" fill="#0033AD"/>
<path d="M35.511 16.1893C35.358 16.1805 35.2058 16.2172 35.0737 16.2949C34.9416 16.3726 34.8355 16.4877 34.7688 16.6257C34.7022 16.7636 34.6779 16.9183 34.6991 17.0701C34.7203 17.2218 34.7861 17.3639 34.888 17.4783C34.99 17.5927 35.1236 17.6743 35.2719 17.7128C35.4203 17.7513 35.5767 17.7449 35.7214 17.6945C35.8661 17.6441 35.9926 17.5519 36.0849 17.4296C36.1773 17.3072 36.2312 17.1603 36.24 17.0073C36.2515 16.8022 36.1812 16.601 36.0445 16.4477C35.9079 16.2943 35.716 16.2014 35.511 16.1893Z" fill="#0033AD"/>
<path d="M32.3908 23.8722C32.2277 23.7654 32.0367 23.7093 31.8418 23.7111C31.6469 23.7129 31.457 23.7724 31.2959 23.8821C31.1348 23.9918 31.0099 24.1468 30.9369 24.3276C30.864 24.5083 30.8462 24.7065 30.8859 24.8974C30.9256 25.0882 31.021 25.2629 31.16 25.3995C31.299 25.5361 31.4753 25.6284 31.6668 25.6648C31.8583 25.7012 32.0562 25.68 32.2356 25.6039C32.415 25.5278 32.5679 25.4002 32.6748 25.2373C32.7458 25.129 32.7948 25.0078 32.819 24.8806C32.8432 24.7534 32.842 24.6226 32.8157 24.4959C32.7893 24.3691 32.7382 24.2487 32.6653 24.1417C32.5924 24.0347 32.4991 23.9431 32.3908 23.8722Z" fill="#0033AD"/>
<path d="M10.4025 31.1059C10.2744 31.0218 10.1242 30.9776 9.97099 30.9789C9.81777 30.9802 9.66836 31.0268 9.54166 31.113C9.41496 31.1992 9.31665 31.321 9.25917 31.463C9.20168 31.6051 9.1876 31.761 9.21871 31.911C9.24981 32.061 9.32471 32.1985 9.43392 32.306C9.54313 32.4134 9.68176 32.4861 9.83228 32.5148C9.98279 32.5435 10.1384 32.5269 10.2795 32.4672C10.4206 32.4074 10.5409 32.3072 10.625 32.1791C10.6809 32.0941 10.7194 31.9988 10.7385 31.8988C10.7576 31.7988 10.7568 31.6961 10.7361 31.5964C10.7154 31.4967 10.6753 31.4021 10.6181 31.318C10.5608 31.2338 10.4876 31.1617 10.4025 31.1059Z" fill="#0033AD"/>
<path d="M26.6424 31.0247C26.5055 31.0936 26.3922 31.2016 26.3167 31.335C26.2413 31.4684 26.2071 31.6212 26.2184 31.774C26.2298 31.9269 26.2863 32.0729 26.3806 32.1937C26.475 32.3144 26.6031 32.4045 26.7486 32.4524C26.8942 32.5004 27.0507 32.5041 27.1984 32.4632C27.346 32.4222 27.4782 32.3383 27.5782 32.2222C27.6783 32.106 27.7416 31.9629 27.7602 31.8107C27.7788 31.6586 27.7519 31.5044 27.6829 31.3676C27.6372 31.2766 27.574 31.1956 27.497 31.1291C27.4199 31.0626 27.3305 31.012 27.2338 30.9802C27.1372 30.9483 27.0352 30.9358 26.9337 30.9435C26.8322 30.9511 26.7332 30.9787 26.6424 31.0247Z" fill="#0033AD"/>
<path d="M17.6429 23.2058C17.9351 22.76 18.0701 22.2296 18.0268 21.6984C17.9835 21.1671 17.7642 20.6656 17.4037 20.273C17.0432 19.8805 16.5621 19.6194 16.0365 19.531C15.5109 19.4427 14.9708 19.5322 14.5018 19.7854C14.0328 20.0386 13.6617 20.441 13.4471 20.9288C13.2326 21.4167 13.1868 21.9622 13.3172 22.479C13.4476 22.9958 13.7466 23.4543 14.1669 23.782C14.5872 24.1097 15.1049 24.2878 15.6378 24.2882C16.0359 24.2896 16.4279 24.1912 16.7781 24.0022C17.1284 23.8131 17.4257 23.5393 17.6429 23.2058Z" fill="#0033AD"/>
<path d="M12.8565 26.8823C12.6586 26.7528 12.4267 26.6849 12.1901 26.6872C11.9536 26.6895 11.7231 26.7618 11.5276 26.8951C11.3322 27.0284 11.1807 27.2166 11.0922 27.436C11.0037 27.6554 10.9823 27.896 11.0306 28.1276C11.0789 28.3592 11.1947 28.5712 11.3635 28.737C11.5323 28.9027 11.7464 29.0147 11.9788 29.0587C12.2112 29.1028 12.4515 29.077 12.6692 28.9845C12.8869 28.892 13.0724 28.7371 13.2021 28.5393C13.3758 28.2737 13.437 27.95 13.3722 27.6393C13.3074 27.3286 13.1219 27.0564 12.8565 26.8823Z" fill="#0033AD"/>
<path d="M18.4414 31.4672C18.2468 31.4561 18.0533 31.503 17.8853 31.6019C17.7174 31.7008 17.5825 31.8472 17.4978 32.0227C17.4131 32.1983 17.3823 32.395 17.4094 32.588C17.4365 32.781 17.5201 32.9616 17.6499 33.1071C17.7796 33.2525 17.9495 33.3563 18.1382 33.4052C18.3268 33.454 18.5258 33.4459 18.7098 33.3817C18.8938 33.3176 19.0547 33.2003 19.1721 33.0447C19.2895 32.8891 19.3581 32.7023 19.3693 32.5077C19.3767 32.3784 19.3586 32.249 19.316 32.1267C19.2734 32.0044 19.2071 31.8918 19.1209 31.7952C19.0347 31.6985 18.9304 31.6198 18.8138 31.5635C18.6972 31.5073 18.5706 31.4745 18.4414 31.4672Z" fill="#0033AD"/>
<path d="M18.4517 25.266C18.1735 25.2491 17.8965 25.3152 17.6558 25.4558C17.4151 25.5965 17.2215 25.8054 17.0997 26.0561C16.9778 26.3069 16.9331 26.5881 16.9712 26.8643C17.0093 27.1404 17.1286 27.3991 17.3138 27.6074C17.499 27.8157 17.7419 27.9644 18.0117 28.0346C18.2815 28.1048 18.566 28.0934 18.8293 28.0017C19.0926 27.9101 19.3227 27.7424 19.4906 27.5198C19.6585 27.2972 19.7565 27.0299 19.7723 26.7515C19.7938 26.3795 19.6668 26.0142 19.4192 25.7357C19.1716 25.4572 18.8237 25.2883 18.4517 25.266Z" fill="#0033AD"/>
<path d="M24.2119 26.7866C24.0006 26.8939 23.8258 27.0614 23.7097 27.268C23.5936 27.4746 23.5415 27.711 23.5598 27.9473C23.5781 28.1835 23.6662 28.409 23.8127 28.5953C23.9593 28.7815 24.1578 28.92 24.3832 28.9934C24.6085 29.0667 24.8505 29.0716 25.0786 29.0073C25.3067 28.943 25.5106 28.8125 25.6645 28.6323C25.8184 28.4521 25.9154 28.2302 25.9431 27.9949C25.9709 27.7595 25.9282 27.5212 25.8205 27.3102C25.7493 27.1701 25.6513 27.0454 25.5319 26.9432C25.4125 26.841 25.2742 26.7634 25.1248 26.7148C24.9754 26.6662 24.8178 26.6475 24.6612 26.6598C24.5045 26.6721 24.3519 26.7152 24.2119 26.7866Z" fill="#0033AD"/>
<path d="M50.6423 11.3414C52.9616 11.3414 54.5858 12.6162 54.5858 14.9825H57.6236C57.6236 10.8309 54.5622 8.83105 50.5965 8.83105C45.7251 8.83105 42.8954 11.4762 42.8954 17.0662C42.8954 22.7949 45.7251 25.3 50.5965 25.3C54.6094 25.3 57.6236 23.3525 57.6236 19.1996H54.701C54.701 21.5188 53.1003 22.7949 50.6436 22.7949C47.4187 22.7949 45.9319 21.0084 45.9319 17.2978V16.8345C45.9345 13.196 47.4409 11.3414 50.6423 11.3414Z" fill="#0033AD"/>
<path d="M65.6559 9.11377L59.4625 25.0265H62.5252L63.8 21.5699H71.0783L72.3872 25.0265H75.5886L69.3913 9.11377H65.6559ZM64.7279 19.0608L66.3522 14.6985C66.6768 13.8412 67.2566 11.9853 67.3731 11.6607H67.4882C67.6047 11.9853 68.1845 13.8635 68.5091 14.6985L70.1321 19.0595L64.7279 19.0608Z" fill="#0033AD"/>
<path d="M92.1505 13.9381C92.1505 10.9932 90.4568 9.11377 86.9544 9.11377H78.557V25.0265H81.5267V18.875H86.4662L89.4765 25.0265H92.7237L89.3208 18.4156C91.1989 17.6735 92.1505 16.0963 92.1505 13.9381ZM86.7215 16.3738H81.5267V11.6424H86.7215C88.3221 11.6424 89.1572 12.501 89.1572 13.9381C89.1572 15.4472 88.2528 16.3738 86.7215 16.3738Z" fill="#0033AD"/>
<path d="M102.566 9.11377H96.2078V25.0265H102.563C107.364 25.0265 110.285 22.5214 110.285 17.0701C110.285 11.6189 107.367 9.11377 102.566 9.11377ZM107.252 17.3018C107.228 20.7819 105.582 22.4978 102.566 22.4978H99.1801V11.6424H102.566C105.576 11.6424 107.252 13.3596 107.252 16.8385V17.3018Z" fill="#0033AD"/>
<path d="M118.065 9.11377L111.869 25.0265H114.931L116.207 21.5699H123.49L124.789 25.0265H127.99L121.797 9.11377H118.065ZM117.137 19.0608L118.759 14.6985C119.083 13.8412 119.663 11.9853 119.78 11.6607H119.898C120.013 11.9853 120.594 13.8635 120.918 14.6985L122.541 19.0595L117.137 19.0608Z" fill="#0033AD"/>
<path d="M141.564 18.5779C141.564 18.8789 141.61 19.6904 141.61 19.8304L141.494 19.8762C141.425 19.7846 140.96 18.9718 140.709 18.6014L133.797 9.11377H130.964V25.0265H133.817V15.493C133.817 15.1003 133.77 14.3334 133.77 14.2169L133.886 14.1475C133.956 14.2404 134.304 14.9132 134.671 15.4472L141.63 25.0265H144.413V9.11377H141.561V18.5779H141.564Z" fill="#0033AD"/>
<path d="M156.241 8.83618C151.254 8.83618 148.239 11.48 148.239 17.07C148.239 22.66 151.249 25.3038 156.241 25.3038C161.233 25.3038 164.267 22.66 164.267 17.07C164.267 11.48 161.228 8.83618 156.241 8.83618ZM161.228 17.3252C161.228 20.9664 159.488 22.7987 156.241 22.7987C153.017 22.7987 151.278 20.9664 151.278 17.3252V16.8383C151.278 13.1959 153.041 11.3413 156.241 11.3413C159.466 11.3413 161.228 13.1959 161.228 16.8383V17.3252Z" fill="#0033AD"/>
</svg>
