<svg width="100%" min-height="0" viewBox="0 0 1548 300" fill="none"
    xmlns="http://www.w3.org/2000/svg">
    <g id="Cave Animaion">
        <g clip-path="url(#clip0_28_12)">
            <rect width="1548" height="300" rx="150" fill="white" />
            <rect id="body" width="1548" height="300" rx="150" fill="#F7F9FC" />
            <path id="bottom" d="M1075.18 16.286C1152.72 16.286 1290.95 16.286 1394.36 16.286C1468.21 16.286 1528 76.1519 1528 150V150C1528 223.849 1468.2 283.715 1394.35 283.715C1292.14 283.715 1155.51 283.715 1075.18 283.715C988.456 283.715 993.459 16.286 1075.18 16.286Z" fill="white" />
            <g id="Group 1">
                <path id="mouth" d="M1143.5 150.849C1143.5 224.698 1119.26 286.849 1078.58 286.849C1037.9 286.849 1012 224.698 1012 150.849C1012 77.0009 1037.9 16.8491 1078.58 16.8491C1119.26 16.8491 1143.5 77.0009 1143.5 150.849Z" fill="url(#paint0_linear_28_12)" fill-opacity="0.8" />
                <path id="shadow" d="M1143.5 150.849C1143.5 224.698 1119.26 286.849 1078.58 286.849C1037.9 286.849 1012 224.698 1012 150.849C1012 77.001 1037.9 16.8492 1078.58 16.8492C1119.26 16.8492 1143.5 77.001 1143.5 150.849Z" fill="url(#paint1_linear_28_12)" fill-opacity="0.27" />
                <path id="shadow_2" d="M1143.5 150.85C1143.5 224.698 1119.26 286.85 1078.58 286.85C1037.9 286.85 1012 224.698 1012 150.85C1012 77.0014 1037.9 16.8496 1078.58 16.8496C1119.26 16.8496 1143.5 77.0014 1143.5 150.85Z" fill="url(#paint2_linear_28_12)" fill-opacity="0.07" />
            </g>
            <g id="ball_1">
                <circle id="Ellipse 9" cx="1376.31" cy="151.17" r="130.806" fill="white" />
                <g id="logo_1">
                    <path id="Vector" d="M1312.43 156.651C1309.4 168.789 1297.11 176.176 1284.97 173.149C1272.83 170.123 1265.45 157.829 1268.48 145.692C1271.5 133.553 1283.79 126.165 1295.93 129.191C1308.07 132.217 1315.45 144.513 1312.43 156.651V156.651Z" fill="#F7931A" />
                    <path id="Vector_2" d="M1300.44 147.943C1300.89 144.928 1298.6 143.307 1295.46 142.226L1296.48 138.142L1293.99 137.523L1293 141.499C1292.35 141.336 1291.67 141.182 1291.01 141.03L1292.01 137.028L1289.52 136.408L1288.5 140.491C1287.96 140.367 1287.43 140.246 1286.91 140.117L1286.92 140.105L1283.49 139.249L1282.83 141.904C1282.83 141.904 1284.67 142.327 1284.63 142.353C1285.64 142.604 1285.82 143.27 1285.79 143.799L1284.63 148.451C1284.7 148.469 1284.79 148.494 1284.89 148.534C1284.81 148.513 1284.72 148.491 1284.63 148.469L1283 154.986C1282.88 155.292 1282.57 155.751 1281.86 155.577C1281.89 155.613 1280.06 155.126 1280.06 155.126L1278.82 157.971L1282.06 158.778C1282.66 158.929 1283.25 159.086 1283.83 159.235L1282.8 163.366L1285.28 163.985L1286.3 159.899C1286.98 160.083 1287.64 160.253 1288.28 160.413L1287.27 164.48L1289.75 165.1L1290.78 160.977C1295.02 161.779 1298.21 161.455 1299.55 157.621C1300.63 154.534 1299.5 152.754 1297.27 151.593C1298.89 151.218 1300.11 150.15 1300.44 147.943V147.943ZM1294.76 155.907C1293.99 158.994 1288.8 157.326 1287.11 156.907L1288.48 151.435C1290.16 151.855 1295.56 152.688 1294.76 155.907ZM1295.53 147.898C1294.83 150.706 1290.5 149.279 1289.1 148.93L1290.34 143.966C1291.74 144.316 1296.26 144.969 1295.53 147.898V147.898Z" fill="white" />
                    <path id="Vector_3" d="M1334.19 142.222C1336.03 142.222 1337.62 142.551 1338.95 143.197C1340.29 143.85 1341.4 144.73 1342.29 145.835C1343.16 146.947 1343.81 148.246 1344.23 149.735C1344.65 151.229 1344.86 152.834 1344.86 154.552C1344.86 157.192 1344.38 159.685 1343.4 162.036C1342.42 164.39 1341.1 166.432 1339.41 168.174C1337.73 169.914 1335.74 171.285 1333.45 172.298C1331.16 173.312 1328.67 173.819 1326 173.819C1325.65 173.819 1325.05 173.809 1324.19 173.791C1323.33 173.774 1322.34 173.685 1321.24 173.536C1320.13 173.381 1318.95 173.151 1317.71 172.844C1316.47 172.542 1315.29 172.12 1314.18 171.583L1324.1 129.897L1332.99 128.52L1329.44 143.313C1330.2 142.97 1330.96 142.705 1331.73 142.511C1332.49 142.321 1333.32 142.222 1334.19 142.222V142.222ZM1326.74 166.77C1328.08 166.77 1329.34 166.441 1330.52 165.794C1331.71 165.147 1332.74 164.273 1333.6 163.185C1334.45 162.092 1335.13 160.861 1335.63 159.485C1336.13 158.109 1336.38 156.674 1336.38 155.181C1336.38 153.346 1336.07 151.915 1335.46 150.881C1334.85 149.851 1333.72 149.332 1332.07 149.332C1331.54 149.332 1330.84 149.435 1329.98 149.618C1329.12 149.813 1328.35 150.217 1327.66 150.826L1323.88 166.536C1324.1 166.576 1324.31 166.614 1324.48 166.65C1324.65 166.689 1324.83 166.717 1325.02 166.736C1325.21 166.758 1325.44 166.769 1325.71 166.769C1325.98 166.769 1326.32 166.77 1326.74 166.77V166.77ZM1354.07 173.021H1345.59L1352.75 142.861H1361.3L1354.07 173.021ZM1358.2 139.186C1357.02 139.186 1355.95 138.834 1354.99 138.127C1354.03 137.425 1353.56 136.344 1353.56 134.886C1353.56 134.085 1353.72 133.333 1354.04 132.624C1354.37 131.916 1354.8 131.306 1355.33 130.788C1355.87 130.274 1356.49 129.863 1357.2 129.554C1357.91 129.249 1358.66 129.097 1359.47 129.097C1360.65 129.097 1361.72 129.449 1362.67 130.156C1363.63 130.866 1364.11 131.947 1364.11 133.397C1364.11 134.201 1363.94 134.956 1363.62 135.664C1363.3 136.372 1362.87 136.981 1362.33 137.5C1361.8 138.015 1361.17 138.424 1360.47 138.73C1359.76 139.04 1359.01 139.186 1358.2 139.186V139.186ZM1368.74 135.347L1377.63 133.97L1375.44 142.86H1384.96L1383.25 149.854H1373.78L1371.26 160.403C1371.03 161.283 1370.9 162.104 1370.86 162.867C1370.82 163.634 1370.92 164.292 1371.15 164.847C1371.37 165.403 1371.78 165.831 1372.38 166.134C1372.97 166.442 1373.82 166.597 1374.93 166.597C1375.85 166.597 1376.74 166.51 1377.6 166.337C1378.46 166.167 1379.33 165.931 1380.21 165.621L1380.84 172.161C1379.69 172.581 1378.45 172.943 1377.11 173.248C1375.77 173.556 1374.18 173.705 1372.35 173.705C1369.71 173.705 1367.67 173.314 1366.21 172.534C1364.76 171.749 1363.73 170.676 1363.12 169.318C1362.51 167.965 1362.24 166.405 1362.31 164.648C1362.39 162.886 1362.66 161.035 1363.12 159.085L1368.74 135.347ZM1384.59 160.977C1384.59 158.38 1385.01 155.93 1385.85 153.637C1386.69 151.341 1387.9 149.334 1389.47 147.611C1391.03 145.897 1392.93 144.539 1395.18 143.542C1397.41 142.551 1399.9 142.051 1402.65 142.051C1404.38 142.051 1405.92 142.214 1407.27 142.54C1408.63 142.869 1409.86 143.295 1410.97 143.829L1408.04 150.484C1407.28 150.174 1406.49 149.901 1405.67 149.653C1404.84 149.4 1403.84 149.279 1402.66 149.279C1399.82 149.279 1397.58 150.255 1395.92 152.201C1394.26 154.149 1393.42 156.771 1393.42 160.06C1393.42 162.009 1393.84 163.585 1394.68 164.791C1395.52 165.997 1397.08 166.596 1399.33 166.596C1400.44 166.596 1401.51 166.48 1402.54 166.254C1403.57 166.024 1404.49 165.735 1405.29 165.394L1405.93 172.217C1404.85 172.633 1403.67 173.009 1402.37 173.338C1401.07 173.656 1399.52 173.821 1397.72 173.821C1395.35 173.821 1393.35 173.474 1391.7 172.791C1390.06 172.097 1388.7 171.176 1387.64 170.009C1386.56 168.839 1385.79 167.474 1385.31 165.906C1384.83 164.34 1384.59 162.694 1384.59 160.977V160.977ZM1422.29 173.821C1420.27 173.821 1418.51 173.512 1417.02 172.901C1415.53 172.29 1414.3 171.433 1413.32 170.321C1412.34 169.215 1411.61 167.905 1411.11 166.395C1410.61 164.885 1410.37 163.213 1410.37 161.382C1410.37 159.084 1410.74 156.787 1411.49 154.497C1412.23 152.201 1413.33 150.139 1414.79 148.306C1416.23 146.47 1418.02 144.969 1420.12 143.798C1422.21 142.636 1424.63 142.051 1427.34 142.051C1429.33 142.051 1431.08 142.36 1432.59 142.971C1434.09 143.581 1435.33 144.446 1436.32 145.552C1437.29 146.663 1438.02 147.968 1438.52 149.48C1439.02 150.987 1439.26 152.663 1439.26 154.496C1439.26 156.787 1438.9 159.083 1438.18 161.381C1437.45 163.667 1436.38 165.735 1434.97 167.572C1433.55 169.405 1431.79 170.906 1429.66 172.071C1427.54 173.236 1425.08 173.821 1422.29 173.821V173.821ZM1426.54 149.279C1425.28 149.279 1424.17 149.645 1423.21 150.366C1422.26 151.096 1421.45 152.014 1420.81 153.12C1420.15 154.232 1419.67 155.444 1419.34 156.762C1419.01 158.082 1418.86 159.331 1418.86 160.517C1418.86 162.43 1419.16 163.921 1419.77 164.993C1420.39 166.06 1421.49 166.597 1423.1 166.597C1424.36 166.597 1425.47 166.235 1426.43 165.505C1427.38 164.781 1428.18 163.863 1428.83 162.754C1429.48 161.648 1429.97 160.432 1430.3 159.112C1430.62 157.796 1430.78 156.541 1430.78 155.357C1430.78 153.448 1430.48 151.954 1429.86 150.883C1429.25 149.816 1428.14 149.279 1426.54 149.279V149.279ZM1448.51 173.021H1440.02L1447.19 142.861H1455.73L1448.51 173.021ZM1452.64 139.186C1451.45 139.186 1450.38 138.834 1449.43 138.127C1448.47 137.425 1447.99 136.344 1447.99 134.886C1447.99 134.085 1448.16 133.333 1448.48 132.624C1448.8 131.916 1449.23 131.306 1449.77 130.788C1450.3 130.274 1450.93 129.863 1451.63 129.554C1452.34 129.249 1453.09 129.097 1453.9 129.097C1455.08 129.097 1456.15 129.449 1457.11 130.156C1458.06 130.866 1458.55 131.947 1458.55 133.397C1458.55 134.201 1458.38 134.956 1458.05 135.664C1457.73 136.372 1457.3 136.981 1456.77 137.5C1456.23 138.015 1455.61 138.424 1454.91 138.73C1454.19 139.04 1453.44 139.186 1452.64 139.186V139.186ZM1461.85 144.232C1462.5 144.044 1463.22 143.818 1464 143.571C1464.78 143.325 1465.66 143.095 1466.64 142.889C1467.61 142.675 1468.7 142.503 1469.91 142.369C1471.11 142.232 1472.48 142.166 1474 142.166C1478.48 142.166 1481.56 143.469 1483.27 146.068C1484.97 148.668 1485.26 152.225 1484.16 156.734L1480.26 173.018H1471.71L1475.5 157.076C1475.73 156.081 1475.91 155.118 1476.04 154.178C1476.18 153.246 1476.17 152.425 1476.01 151.714C1475.86 151.012 1475.51 150.437 1474.95 149.992C1474.39 149.553 1473.55 149.333 1472.4 149.333C1471.29 149.333 1470.17 149.452 1469.02 149.681L1463.46 173.018H1454.91L1461.85 144.232Z" fill="#4D4D4D" />
                </g>
                <path id="top_border" d="M1277.93 64.9555C1277.93 64.9555 1312.59 20.087 1376.31 20.087C1440.02 20.087 1474.68 64.9555 1474.68 64.9555" stroke="url(#paint3_linear_28_12)" stroke-width="1.5" />
                <path id="bottom_border" d="M1277.93 237.101C1277.93 237.101 1315.99 282.912 1376.31 282.912C1436.62 282.912 1474.68 237.101 1474.68 237.101" stroke="url(#paint4_linear_28_12)" stroke-width="1.5" />
            </g>
            <g id="ball_2">
                <circle id="Ellipse 10" cx="1376.31" cy="151.17" r="130.806" fill="white" />
                <g id="logo_2">
                    <path id="Vector_4" d="M1328.44 155.347C1328.44 155.736 1328.11 156.064 1327.7 156.064H1314.13C1314.47 159.421 1316.99 162.492 1320.56 162.492C1322.99 162.492 1324.79 161.571 1326.14 159.626C1326.29 159.421 1326.49 159.278 1326.74 159.278C1327.13 159.278 1327.41 159.565 1327.41 159.954C1327.41 160.097 1327.37 160.199 1327.31 160.302C1325.94 162.677 1323.22 163.844 1320.56 163.844C1315.99 163.844 1312.71 159.749 1312.71 155.388C1312.71 151.007 1315.97 146.932 1320.56 146.932C1325.12 146.932 1328.42 150.986 1328.44 155.347V155.347ZM1326.98 154.712C1326.7 151.355 1324.12 148.284 1320.56 148.284C1316.99 148.284 1314.47 151.355 1314.13 154.712H1326.98ZM1344.92 147.26C1345.31 147.26 1345.59 147.608 1345.59 147.936C1345.59 148.325 1345.31 148.611 1344.92 148.611H1341.27V162.922C1341.27 163.27 1340.99 163.598 1340.6 163.598C1340.21 163.598 1339.92 163.25 1339.92 162.922V148.611H1336.42C1336.03 148.611 1335.75 148.325 1335.75 147.936C1335.75 147.587 1336.03 147.26 1336.42 147.26H1339.92V142.039C1339.92 141.691 1340.19 141.363 1340.54 141.322C1340.97 141.282 1341.3 141.589 1341.3 141.998V147.26H1344.92ZM1367.15 154.18V162.841C1367.15 163.23 1366.81 163.516 1366.48 163.516C1366.09 163.516 1365.8 163.23 1365.8 162.841V154.18C1365.8 151.252 1364.14 148.345 1360.89 148.345C1356.71 148.345 1354.91 151.989 1355.16 155.736C1355.16 155.838 1355.2 156.268 1355.2 156.33V162.82C1355.2 163.168 1354.93 163.496 1354.58 163.537C1354.15 163.578 1353.83 163.27 1353.83 162.861V134.382C1353.83 134.034 1354.11 133.706 1354.5 133.706C1354.89 133.706 1355.18 134.054 1355.18 134.382V150.474C1356.34 148.386 1358.43 146.973 1360.87 146.973C1364.88 146.973 1367.15 150.474 1367.15 154.18ZM1391.54 155.347C1391.54 155.736 1391.21 156.064 1390.8 156.064H1377.23C1377.57 159.421 1380.09 162.492 1383.66 162.492C1386.09 162.492 1387.89 161.571 1389.24 159.626C1389.39 159.421 1389.59 159.278 1389.84 159.278C1390.23 159.278 1390.51 159.565 1390.51 159.954C1390.51 160.097 1390.47 160.199 1390.41 160.302C1389.04 162.677 1386.32 163.844 1383.66 163.844C1379.09 163.844 1375.81 159.749 1375.81 155.388C1375.81 151.007 1379.07 146.932 1383.66 146.932C1388.2 146.932 1391.5 150.986 1391.54 155.347V155.347ZM1390.06 154.712C1389.78 151.355 1387.2 148.284 1383.64 148.284C1380.09 148.284 1377.55 151.355 1377.21 154.712H1390.06ZM1408.2 147.895C1408.2 148.325 1407.96 148.57 1407.57 148.632C1403.58 149.225 1401.77 152.481 1401.77 156.268V162.759C1401.77 163.107 1401.51 163.434 1401.16 163.475C1400.73 163.516 1400.4 163.209 1400.4 162.8V147.997C1400.4 147.649 1400.67 147.321 1401.02 147.28C1401.45 147.239 1401.77 147.547 1401.77 147.956V150.966C1402.9 149.062 1405.13 147.26 1407.47 147.26C1407.81 147.26 1408.2 147.506 1408.2 147.895V147.895ZM1430.54 155.347C1430.54 155.736 1430.21 156.064 1429.8 156.064H1416.23C1416.58 159.421 1419.1 162.492 1422.66 162.492C1425.09 162.492 1426.9 161.571 1428.25 159.626C1428.39 159.421 1428.6 159.278 1428.84 159.278C1429.23 159.278 1429.52 159.565 1429.52 159.954C1429.52 160.097 1429.48 160.199 1429.41 160.302C1428.04 162.677 1425.32 163.844 1422.66 163.844C1418.09 163.844 1414.82 159.749 1414.82 155.388C1414.82 151.007 1418.07 146.932 1422.66 146.932C1427.22 146.932 1430.52 150.986 1430.54 155.347V155.347ZM1429.09 154.712C1428.8 151.355 1426.22 148.284 1422.66 148.284C1419.1 148.284 1416.58 151.355 1416.23 154.712H1429.09ZM1452.49 148.058V162.922C1452.49 163.311 1452.14 163.598 1451.81 163.598C1451.42 163.598 1451.14 163.311 1451.14 162.922V160.097C1450.01 162.329 1448.03 163.946 1445.49 163.946C1441.45 163.946 1439.22 160.445 1439.22 156.739V148.038C1439.22 147.69 1439.51 147.362 1439.9 147.362C1440.29 147.362 1440.57 147.71 1440.57 148.038V156.739C1440.57 159.667 1442.23 162.574 1445.49 162.574C1450.05 162.574 1451.14 158.295 1451.14 153.566V148.017C1451.14 147.608 1451.57 147.198 1452.06 147.383C1452.3 147.506 1452.49 147.772 1452.49 148.058V148.058ZM1486.86 154.119V162.82C1486.86 163.209 1486.52 163.496 1486.19 163.496C1485.8 163.496 1485.51 163.209 1485.51 162.82V154.119C1485.51 151.191 1483.85 148.325 1480.6 148.325C1476.5 148.325 1474.95 152.706 1474.95 156.105V162.82C1474.95 163.209 1474.6 163.496 1474.27 163.496C1473.88 163.496 1473.6 163.209 1473.6 162.82V154.119C1473.6 151.191 1471.94 148.325 1468.68 148.325C1464.55 148.325 1462.85 151.58 1462.99 155.92C1462.99 156.023 1463.03 156.207 1462.99 156.268V162.8C1462.99 163.148 1462.73 163.475 1462.38 163.516C1461.95 163.557 1461.62 163.25 1461.62 162.841V147.997C1461.62 147.649 1461.89 147.321 1462.23 147.28C1462.66 147.239 1462.99 147.547 1462.99 147.956V150.433C1464.16 148.345 1466.25 146.973 1468.68 146.973C1471.45 146.973 1473.6 148.734 1474.48 151.293C1475.6 148.754 1477.79 146.973 1480.6 146.973C1484.59 146.973 1486.86 150.433 1486.86 154.119Z" fill="#3B3B3B" />
                    <path id="Vector_5" opacity="0.6" d="M1282.74 161.735L1299.75 151.682L1282.74 143.964L1265.75 151.682L1282.74 161.735Z" fill="black" />
                    <path id="Vector_6" opacity="0.45" d="M1282.74 143.964V123.469L1265.75 151.682L1282.74 161.735V143.964Z" fill="black" />
                    <path id="Vector_7" opacity="0.8" d="M1282.74 161.735L1299.75 151.682L1282.74 123.469V143.964V161.735Z" fill="black" />
                    <path id="Vector_8" opacity="0.45" d="M1282.74 164.949L1265.75 154.917L1282.74 178.871V164.949Z" fill="black" />
                    <path id="Vector_9" opacity="0.8" d="M1299.75 154.917L1282.74 164.949V178.871L1299.75 154.917Z" fill="black" />
                </g>
                <path id="top_border_2" d="M1277.93 64.9555C1277.93 64.9555 1312.59 20.087 1376.31 20.087C1440.02 20.087 1474.68 64.9555 1474.68 64.9555" stroke="url(#paint5_linear_28_12)" stroke-width="1.5" />
                <path id="bottom_border_2" d="M1277.93 237.101C1277.93 237.101 1315.99 282.912 1376.31 282.912C1436.62 282.912 1474.68 237.101 1474.68 237.101" stroke="url(#paint6_linear_28_12)" stroke-width="1.5" />
            </g>
            <g id="ball_3">
                <circle id="Ellipse 13" cx="1376.31" cy="151.17" r="130.806" fill="white" />
                <g id="logo_3">
                    <path id="Vector_10" d="M1304.3 178.11C1319.17 178.11 1331.24 166.049 1331.24 151.17C1331.24 136.292 1319.17 124.23 1304.3 124.23C1289.42 124.23 1277.36 136.292 1277.36 151.17C1277.36 166.049 1289.42 178.11 1304.3 178.11Z" fill="#26A17B" />
                    <g id="Group">
                        <path id="Vector_11" d="M1307.17 153.656V153.652C1306.98 153.665 1306.02 153.721 1303.88 153.721C1302.17 153.721 1300.97 153.673 1300.54 153.652V153.656C1293.97 153.366 1289.06 152.223 1289.06 150.85C1289.06 149.481 1293.97 148.333 1300.54 148.043V152.517C1300.97 152.547 1302.21 152.621 1303.91 152.621C1305.95 152.621 1306.98 152.534 1307.17 152.517V148.047C1313.73 148.342 1318.63 149.485 1318.63 150.854C1318.63 152.223 1313.73 153.366 1307.17 153.66M1307.17 147.584V143.582H1316.33V137.479H1291.39V143.582H1300.55V147.584C1293.1 147.926 1287.51 149.399 1287.51 151.166C1287.51 152.933 1293.11 154.405 1300.55 154.752V167.581H1307.17V154.752C1314.6 154.41 1320.19 152.937 1320.19 151.17C1320.19 149.407 1314.6 147.93 1307.17 147.588" fill="white" />
                    </g>
                    <path id="Vector_12" d="M1354.12 139.147V145.618H1360.41V150.473H1354.08V160.318C1354.08 162.492 1355.28 163.553 1357.03 163.553C1357.91 163.553 1358.93 163.276 1359.76 162.86L1361.34 167.668C1359.72 168.313 1358.38 168.59 1356.67 168.638C1351.72 168.824 1348.48 166.005 1348.48 160.318V150.473H1344.23V145.618H1348.48V139.749L1354.12 139.147ZM1462.54 145.315L1462.96 147.948C1464.72 145.128 1467.07 144.712 1469.39 144.712C1471.74 144.712 1474.01 145.635 1475.25 146.882L1472.71 151.781C1471.56 150.811 1470.49 150.3 1468.65 150.3C1465.69 150.3 1462.96 151.872 1462.96 156.078V168.097H1457.32V145.306L1462.54 145.315ZM1448.72 154.051C1448.35 151.092 1446.04 149.611 1442.81 149.611C1439.76 149.611 1437.26 151.092 1436.43 154.051H1448.72ZM1436.33 158.72C1436.7 161.539 1439.15 163.575 1443.13 163.575C1445.21 163.575 1447.94 162.787 1449.23 161.448L1452.84 165.008C1450.43 167.503 1446.5 168.707 1443.03 168.707C1435.18 168.707 1430.5 163.852 1430.5 156.55C1430.5 149.615 1435.22 144.622 1442.62 144.622C1450.25 144.622 1455.01 149.338 1454.13 158.72H1436.33ZM1411.46 135.743V148.407C1413.5 145.774 1416 144.985 1418.59 144.985C1425.06 144.985 1427.92 149.377 1427.92 156.082V168.101H1422.28V156.13C1422.28 151.967 1420.11 150.213 1417.1 150.213C1413.77 150.213 1411.46 153.033 1411.46 156.454V168.105H1405.83V135.747L1411.46 135.743ZM1396.49 138.887V145.358H1402.78V150.213H1396.44V160.058C1396.44 162.232 1397.65 163.293 1399.4 163.293C1400.28 163.293 1401.3 163.016 1402.13 162.6L1403.7 167.408C1402.09 168.053 1400.74 168.331 1399.03 168.378C1394.09 168.564 1390.85 165.74 1390.85 160.058V150.213H1386.6V145.358H1390.85V139.489L1396.49 138.887ZM1380.91 154.051C1380.54 151.092 1378.23 149.611 1374.99 149.611C1371.94 149.611 1369.44 151.092 1368.61 154.051H1380.91ZM1368.52 158.72C1368.89 161.539 1371.34 163.575 1375.32 163.575C1377.4 163.575 1380.12 162.787 1381.42 161.448L1385.02 165.008C1382.62 167.503 1378.69 168.707 1375.22 168.707C1367.36 168.707 1362.69 163.852 1362.69 156.55C1362.69 149.615 1367.41 144.622 1374.8 144.622C1382.43 144.622 1387.19 149.338 1386.31 158.72H1368.52Z" fill="#5B5A5D" />
                </g>
                <path id="top_border_3" d="M1277.93 64.9555C1277.93 64.9555 1312.59 20.087 1376.31 20.087C1440.02 20.087 1474.68 64.9555 1474.68 64.9555" stroke="url(#paint7_linear_28_12)" stroke-width="1.5" />
                <path id="bottom_border_3" d="M1277.93 237.101C1277.93 237.101 1315.99 282.912 1376.31 282.912C1436.62 282.912 1474.68 237.101 1474.68 237.101" stroke="url(#paint8_linear_28_12)" stroke-width="1.5" />
            </g>
            <g id="ball_4">
                <circle id="Ellipse 12" cx="1376.31" cy="151.17" r="130.806" fill="white" />
                <g id="logo_4">
                    <g id="_345517616">
                        <path id="Vector_13" d="M1334.88 138.619H1336.5C1336.91 138.619 1337.25 138.958 1337.25 139.371V153.884C1337.25 158.471 1339.73 161.361 1344.36 161.361C1348.98 161.361 1351.47 158.471 1351.47 153.884V139.371C1351.47 138.958 1351.81 138.619 1352.22 138.619H1353.84C1354.26 138.619 1354.6 138.958 1354.6 139.371V153.913C1354.6 160.152 1351.17 164.134 1344.37 164.134C1337.58 164.134 1334.15 160.123 1334.15 153.943V139.357C1334.14 138.944 1334.48 138.604 1334.91 138.604L1334.88 138.619ZM1359.34 158.382C1359.58 158.072 1360.04 158.043 1360.32 158.308C1362 159.946 1364.51 161.347 1367.69 161.347C1372.16 161.347 1373.59 158.943 1373.59 157.025C1373.59 154.017 1370.55 153.191 1367.25 152.291C1363.24 151.229 1358.75 150.108 1358.75 145.182C1358.75 141.053 1362.44 138.236 1367.37 138.236C1370.91 138.236 1373.71 139.312 1375.77 141.23C1376.07 141.495 1376.1 141.952 1375.85 142.262L1374.87 143.457C1374.64 143.752 1374.2 143.766 1373.92 143.516C1372.09 141.805 1369.67 141.008 1367.16 141.008C1364.15 141.008 1362.01 142.631 1362.01 144.99C1362.01 147.513 1364.9 148.265 1368.11 149.12C1372.21 150.211 1376.87 151.495 1376.87 156.76C1376.87 160.403 1374.39 164.119 1367.62 164.119C1363.58 164.119 1360.52 162.689 1358.44 160.624C1358.18 160.359 1358.15 159.931 1358.39 159.621L1359.37 158.367L1359.34 158.382ZM1380.54 139.371C1380.54 138.958 1380.88 138.619 1381.29 138.619H1389.11C1396.88 138.619 1401.97 144.061 1401.97 151.17C1401.97 158.308 1396.89 163.692 1389.11 163.692H1381.29C1380.88 163.692 1380.54 163.352 1380.54 162.94V139.371ZM1389.11 160.904C1395.2 160.904 1398.72 156.539 1398.72 151.17C1398.72 145.757 1395.3 141.392 1389.11 141.392H1383.66V160.904H1389.11ZM1433.16 154.592C1433.16 149.327 1436.63 145.079 1442.14 145.079C1447.67 145.079 1451.12 149.327 1451.12 154.592C1451.12 159.857 1447.66 164.149 1442.14 164.149C1436.61 164.149 1433.16 159.857 1433.16 154.592ZM1448.16 154.592C1448.16 150.905 1446.02 147.601 1442.14 147.601C1438.26 147.601 1436.1 150.905 1436.1 154.592C1436.1 158.308 1438.28 161.627 1442.14 161.627C1446.02 161.627 1448.16 158.323 1448.16 154.592ZM1453.84 140.566C1453.84 139.504 1454.71 138.693 1455.71 138.693C1456.77 138.693 1457.63 139.519 1457.63 140.566C1457.63 141.628 1456.76 142.483 1455.71 142.483C1454.69 142.483 1453.84 141.613 1453.84 140.566ZM1455.08 145.521H1456.39C1456.8 145.521 1457.14 145.861 1457.14 146.274V162.925C1457.14 163.338 1456.8 163.677 1456.39 163.677H1455.08C1454.66 163.677 1454.33 163.338 1454.33 162.925V146.274C1454.33 145.861 1454.66 145.521 1455.08 145.521ZM1473.38 151.804C1473.38 148.604 1471.76 147.601 1469.32 147.601C1467.11 147.601 1465 148.958 1463.94 150.418V162.94C1463.94 163.352 1463.6 163.692 1463.19 163.692H1461.88C1461.46 163.692 1461.12 163.352 1461.12 162.94V146.288C1461.12 145.875 1461.46 145.536 1461.88 145.536H1463.19C1463.6 145.536 1463.94 145.875 1463.94 146.288V148.161C1465.21 146.657 1467.7 145.079 1470.4 145.079C1474.21 145.079 1476.2 146.996 1476.2 150.934V162.925C1476.2 163.338 1475.86 163.677 1475.45 163.677H1474.13C1473.72 163.677 1473.38 163.338 1473.38 162.925L1473.37 151.804H1473.38ZM1409.09 151.155C1409.09 143.442 1414.77 138.191 1421.88 138.191C1426.08 138.191 1429.05 140.02 1431.04 142.542C1431.29 142.852 1431.2 143.324 1430.85 143.53L1429.44 144.312C1429.13 144.489 1428.72 144.415 1428.5 144.135C1427.01 142.292 1424.61 140.994 1421.88 140.994C1416.5 140.994 1412.32 145.197 1412.32 151.185C1412.32 157.129 1416.5 161.376 1421.88 161.376C1424.61 161.376 1427.03 160.108 1428.5 158.235C1428.74 157.94 1429.12 157.866 1429.44 158.043L1430.86 158.825C1431.23 159.031 1431.32 159.503 1431.05 159.828C1428.99 162.364 1426.08 164.164 1421.88 164.164C1414.77 164.149 1409.09 158.898 1409.09 151.185V151.155Z" fill="#4D4D4F" />
                        <path id="Vector_14" d="M1300.87 126.717C1314.38 126.717 1325.32 137.661 1325.32 151.17C1325.32 164.68 1314.38 175.623 1300.87 175.623C1287.36 175.623 1276.41 164.68 1276.41 151.17C1276.41 137.661 1287.36 126.717 1300.87 126.717Z" fill="#2675CA" />
                        <path id="Vector_15" d="M1296.28 168.175C1296.28 168.751 1295.82 169.075 1295.28 168.898C1287.89 166.538 1282.52 159.606 1282.52 151.421C1282.52 143.236 1287.87 136.304 1295.28 133.944C1295.84 133.767 1296.28 134.091 1296.28 134.667V136.082C1296.28 136.466 1295.98 136.923 1295.62 137.041C1289.76 139.194 1285.57 144.814 1285.57 151.392C1285.57 157.984 1289.76 163.603 1295.62 165.742C1295.98 165.875 1296.28 166.317 1296.28 166.701V168.146V168.175Z" fill="white" />
                        <path id="Vector_16" d="M1302.4 162.895C1302.4 163.323 1302.06 163.662 1301.63 163.662H1300.11C1299.69 163.662 1299.35 163.323 1299.35 162.895V160.477C1296.01 160.019 1294.38 158.161 1293.93 155.61C1293.86 155.182 1294.2 154.784 1294.64 154.784H1296.38C1296.75 154.784 1297.06 155.049 1297.14 155.403C1297.46 156.922 1298.33 158.073 1301.01 158.073C1302.99 158.073 1304.39 156.966 1304.39 155.315C1304.39 153.663 1303.57 153.043 1300.67 152.557C1296.4 151.981 1294.38 150.684 1294.38 147.336C1294.38 144.74 1296.34 142.734 1299.36 142.306V139.932C1299.36 139.504 1299.7 139.165 1300.13 139.165H1301.65C1302.08 139.165 1302.42 139.504 1302.42 139.932V142.365C1304.88 142.808 1306.44 144.209 1306.96 146.524C1307.06 146.967 1306.71 147.38 1306.26 147.38H1304.66C1304.32 147.38 1304.02 147.144 1303.92 146.819C1303.49 145.345 1302.43 144.71 1300.6 144.71C1298.58 144.71 1297.53 145.684 1297.53 147.055C1297.53 148.501 1298.12 149.238 1301.24 149.681C1305.44 150.256 1307.61 151.45 1307.61 155.034C1307.61 157.748 1305.59 159.946 1302.44 160.447V162.866H1302.43L1302.4 162.895Z" fill="white" />
                        <path id="Vector_17" d="M1306.46 168.913C1305.9 169.09 1305.45 168.765 1305.45 168.19V166.774C1305.45 166.346 1305.72 165.963 1306.12 165.815C1311.97 163.662 1316.16 158.043 1316.16 151.465C1316.16 144.872 1311.97 139.253 1306.12 137.115C1305.75 136.982 1305.45 136.539 1305.45 136.156V134.74C1305.45 134.165 1305.91 133.826 1306.46 134.017C1313.85 136.377 1319.21 143.309 1319.21 151.494C1319.2 159.65 1313.86 166.582 1306.46 168.942V168.913Z" fill="white" />
                    </g>
                </g>
                <path id="top_border_4" d="M1277.93 64.9555C1277.93 64.9555 1312.59 20.087 1376.31 20.087C1440.02 20.087 1474.68 64.9555 1474.68 64.9555" stroke="url(#paint9_linear_28_12)" stroke-width="1.5" />
                <path id="bottom_border_4" d="M1277.93 237.101C1277.93 237.101 1315.99 282.912 1376.31 282.912C1436.62 282.912 1474.68 237.101 1474.68 237.101" stroke="url(#paint10_linear_28_12)" stroke-width="1.5" />
            </g>
            <g id="ball_5">
                <path id="Ellipse 11" d="M1507.11 151.17C1507.11 223.412 1448.55 281.976 1376.31 281.976C1304.06 281.976 1245.5 223.412 1245.5 151.17C1245.5 78.9285 1304.06 20.3649 1376.31 20.3649C1448.55 20.3649 1507.11 78.9285 1507.11 151.17Z" fill="white" />
                <g id="logo_5">
                    <g id="Layer 1">
                        <path id="Vector_18" d="M1282.06 151.008C1282.01 151.839 1282.29 152.655 1282.85 153.276C1283.4 153.898 1284.18 154.274 1285.01 154.323H1285.18C1285.79 154.322 1286.39 154.142 1286.9 153.806C1287.41 153.469 1287.81 152.99 1288.05 152.428C1288.3 151.866 1288.37 151.245 1288.26 150.643C1288.15 150.04 1287.87 149.482 1287.45 149.038C1287.03 148.593 1286.49 148.281 1285.9 148.141C1285.3 148 1284.68 148.037 1284.1 148.247C1283.53 148.456 1283.03 148.83 1282.66 149.321C1282.3 149.812 1282.08 150.399 1282.05 151.01L1282.06 151.008Z" fill="#0033AD" />
                        <path id="Vector_19" d="M1270.37 150.214C1270.17 150.203 1269.98 150.251 1269.8 150.353C1269.63 150.455 1269.49 150.605 1269.41 150.785C1269.32 150.965 1269.29 151.167 1269.32 151.366C1269.34 151.564 1269.43 151.749 1269.56 151.898C1269.7 152.047 1269.87 152.154 1270.06 152.204C1270.26 152.254 1270.46 152.246 1270.65 152.18C1270.84 152.114 1271 151.993 1271.12 151.834C1271.25 151.674 1271.32 151.482 1271.33 151.283C1271.33 151.15 1271.32 151.017 1271.27 150.891C1271.23 150.765 1271.16 150.649 1271.07 150.55C1270.98 150.451 1270.88 150.37 1270.76 150.312C1270.64 150.255 1270.51 150.221 1270.37 150.214V150.214Z" fill="#0033AD" />
                        <path id="Vector_20" d="M1281.86 132.825C1282.04 132.734 1282.18 132.592 1282.28 132.417C1282.38 132.243 1282.42 132.043 1282.4 131.844C1282.39 131.644 1282.31 131.454 1282.19 131.297C1282.07 131.14 1281.9 131.023 1281.71 130.96C1281.52 130.898 1281.32 130.894 1281.12 130.947C1280.93 131.001 1280.76 131.11 1280.63 131.261C1280.5 131.413 1280.41 131.599 1280.39 131.798C1280.36 131.996 1280.4 132.198 1280.49 132.377C1280.55 132.496 1280.63 132.603 1280.73 132.69C1280.83 132.778 1280.95 132.844 1281.08 132.886C1281.21 132.928 1281.34 132.944 1281.47 132.933C1281.61 132.923 1281.74 132.886 1281.86 132.825V132.825Z" fill="#0033AD" />
                        <path id="Vector_21" d="M1285.04 138.369C1285.31 138.229 1285.54 138.011 1285.69 137.742C1285.85 137.473 1285.92 137.164 1285.89 136.856C1285.87 136.547 1285.76 136.252 1285.57 136.008C1285.37 135.765 1285.12 135.583 1284.82 135.486C1284.53 135.389 1284.21 135.381 1283.91 135.464C1283.62 135.546 1283.35 135.716 1283.15 135.95C1282.94 136.184 1282.82 136.473 1282.78 136.781C1282.74 137.088 1282.8 137.399 1282.93 137.675C1283.03 137.859 1283.15 138.023 1283.31 138.157C1283.47 138.291 1283.65 138.393 1283.84 138.458C1284.04 138.522 1284.24 138.547 1284.45 138.532C1284.65 138.517 1284.85 138.461 1285.04 138.369V138.369Z" fill="#0033AD" />
                        <path id="Vector_22" d="M1274.34 142.181C1274.55 142.322 1274.8 142.395 1275.06 142.393C1275.31 142.392 1275.56 142.314 1275.77 142.171C1275.98 142.027 1276.15 141.825 1276.24 141.588C1276.34 141.352 1276.36 141.092 1276.31 140.843C1276.26 140.593 1276.13 140.364 1275.95 140.185C1275.77 140.006 1275.54 139.886 1275.29 139.838C1275.04 139.79 1274.78 139.818 1274.54 139.918C1274.31 140.017 1274.11 140.184 1273.97 140.398C1273.78 140.683 1273.72 141.032 1273.78 141.366C1273.85 141.7 1274.05 141.994 1274.34 142.181V142.181Z" fill="#0033AD" />
                        <path id="Vector_23" d="M1276.24 149.644C1275.94 149.627 1275.63 149.701 1275.36 149.858C1275.09 150.015 1274.88 150.248 1274.75 150.527C1274.61 150.805 1274.56 151.118 1274.61 151.424C1274.65 151.731 1274.78 152.017 1274.99 152.248C1275.19 152.479 1275.46 152.644 1275.76 152.721C1276.06 152.799 1276.38 152.786 1276.67 152.684C1276.96 152.582 1277.22 152.396 1277.41 152.149C1277.59 151.902 1277.7 151.605 1277.72 151.296C1277.74 150.882 1277.6 150.475 1277.32 150.165C1277.05 149.855 1276.66 149.668 1276.24 149.644V149.644Z" fill="#0033AD" />
                        <path id="Vector_24" d="M1274.51 160.164C1274.28 160.279 1274.09 160.459 1273.97 160.681C1273.84 160.903 1273.79 161.157 1273.81 161.412C1273.82 161.666 1273.92 161.909 1274.08 162.109C1274.23 162.31 1274.45 162.46 1274.69 162.54C1274.93 162.619 1275.19 162.625 1275.44 162.557C1275.68 162.489 1275.9 162.349 1276.07 162.156C1276.23 161.963 1276.34 161.725 1276.37 161.472C1276.4 161.219 1276.36 160.962 1276.24 160.735C1276.17 160.583 1276.06 160.449 1275.93 160.338C1275.8 160.228 1275.65 160.143 1275.49 160.09C1275.33 160.038 1275.16 160.017 1274.99 160.03C1274.83 160.042 1274.66 160.088 1274.51 160.164V160.164Z" fill="#0033AD" />
                        <path id="Vector_25" d="M1280.59 146.41C1280.9 146.61 1281.25 146.715 1281.62 146.711C1281.98 146.708 1282.34 146.597 1282.64 146.392C1282.94 146.187 1283.17 145.897 1283.31 145.559C1283.45 145.221 1283.48 144.851 1283.41 144.494C1283.33 144.137 1283.15 143.811 1282.89 143.555C1282.63 143.3 1282.3 143.128 1281.95 143.06C1281.59 142.992 1281.22 143.031 1280.88 143.174C1280.55 143.316 1280.26 143.555 1280.06 143.859C1279.93 144.061 1279.84 144.288 1279.79 144.526C1279.75 144.763 1279.75 145.008 1279.8 145.245C1279.85 145.482 1279.94 145.707 1280.08 145.907C1280.22 146.107 1280.39 146.278 1280.59 146.41V146.41Z" fill="#0033AD" />
                        <path id="Vector_26" d="M1299.89 138.245C1300.15 138.415 1300.45 138.503 1300.76 138.5C1301.07 138.496 1301.38 138.401 1301.63 138.226C1301.89 138.051 1302.08 137.805 1302.2 137.517C1302.32 137.23 1302.34 136.915 1302.28 136.611C1302.22 136.308 1302.06 136.031 1301.84 135.814C1301.62 135.597 1301.34 135.451 1301.04 135.394C1300.73 135.337 1300.42 135.371 1300.13 135.492C1299.85 135.614 1299.6 135.817 1299.44 136.076C1299.32 136.248 1299.24 136.441 1299.21 136.644C1299.17 136.846 1299.17 137.054 1299.21 137.255C1299.25 137.457 1299.34 137.648 1299.45 137.818C1299.57 137.988 1299.72 138.133 1299.89 138.245V138.245Z" fill="#0033AD" />
                        <path id="Vector_27" d="M1303.1 132.719C1303.27 132.829 1303.47 132.887 1303.67 132.885C1303.87 132.883 1304.06 132.822 1304.23 132.709C1304.39 132.596 1304.52 132.436 1304.6 132.25C1304.67 132.064 1304.69 131.86 1304.65 131.664C1304.61 131.468 1304.51 131.288 1304.37 131.148C1304.22 131.007 1304.04 130.913 1303.85 130.875C1303.65 130.838 1303.45 130.86 1303.26 130.939C1303.08 131.017 1302.92 131.149 1302.81 131.317C1302.66 131.542 1302.61 131.816 1302.67 132.078C1302.72 132.341 1302.88 132.572 1303.1 132.719V132.719Z" fill="#0033AD" />
                        <path id="Vector_28" d="M1300.14 148.026C1299.73 148.003 1299.31 148.06 1298.93 148.196C1298.54 148.331 1298.18 148.542 1297.87 148.816C1297.25 149.369 1296.88 150.145 1296.83 150.975C1296.78 151.805 1297.06 152.62 1297.62 153.24C1298.17 153.861 1298.95 154.236 1299.78 154.284C1299.84 154.284 1299.9 154.284 1299.96 154.284C1300.56 154.283 1301.15 154.108 1301.66 153.779C1302.17 153.45 1302.57 152.982 1302.82 152.43C1303.06 151.878 1303.15 151.267 1303.05 150.67C1302.96 150.072 1302.7 149.515 1302.29 149.064C1302.02 148.756 1301.69 148.506 1301.32 148.328C1300.95 148.15 1300.55 148.047 1300.14 148.026V148.026Z" fill="#0033AD" />
                        <path id="Vector_29" d="M1286.07 146.193C1286.33 146.712 1286.73 147.149 1287.22 147.454C1287.72 147.758 1288.29 147.919 1288.87 147.917C1289.4 147.917 1289.93 147.78 1290.4 147.518C1290.86 147.257 1291.26 146.88 1291.54 146.424C1291.82 145.967 1291.98 145.447 1292 144.911C1292.02 144.376 1291.91 143.844 1291.66 143.366C1291.4 142.849 1291 142.415 1290.51 142.112C1290.01 141.81 1289.44 141.651 1288.86 141.654C1288.33 141.655 1287.8 141.792 1287.34 142.053C1286.87 142.314 1286.48 142.689 1286.2 143.144C1285.92 143.599 1285.76 144.117 1285.74 144.651C1285.71 145.185 1285.83 145.715 1286.07 146.193V146.193Z" fill="#0033AD" />
                        <path id="Vector_30" d="M1310.63 142.178C1310.86 142.063 1311.05 141.883 1311.17 141.662C1311.3 141.44 1311.36 141.186 1311.34 140.931C1311.32 140.677 1311.23 140.434 1311.07 140.233C1310.91 140.033 1310.7 139.883 1310.46 139.803C1310.21 139.723 1309.95 139.717 1309.71 139.785C1309.46 139.853 1309.24 139.992 1309.08 140.185C1308.91 140.378 1308.8 140.616 1308.77 140.869C1308.74 141.122 1308.79 141.378 1308.9 141.606C1309.05 141.912 1309.32 142.143 1309.65 142.251C1309.97 142.358 1310.33 142.332 1310.63 142.178V142.178Z" fill="#0033AD" />
                        <path id="Vector_31" d="M1302.69 143.176C1302.36 143.34 1302.09 143.597 1301.91 143.914C1301.73 144.231 1301.65 144.594 1301.68 144.957C1301.71 145.321 1301.84 145.668 1302.06 145.955C1302.29 146.242 1302.59 146.456 1302.94 146.571C1303.28 146.685 1303.66 146.694 1304.01 146.597C1304.36 146.499 1304.67 146.3 1304.91 146.024C1305.15 145.748 1305.3 145.408 1305.34 145.046C1305.39 144.685 1305.33 144.318 1305.16 143.993C1305.05 143.777 1304.9 143.584 1304.72 143.426C1304.54 143.268 1304.32 143.147 1304.09 143.071C1303.86 142.996 1303.62 142.966 1303.38 142.984C1303.14 143.002 1302.9 143.067 1302.69 143.176V143.176Z" fill="#0033AD" />
                        <path id="Vector_32" d="M1292.45 132.247C1292.71 132.261 1292.96 132.2 1293.18 132.07C1293.4 131.941 1293.58 131.749 1293.69 131.52C1293.8 131.29 1293.84 131.033 1293.8 130.78C1293.77 130.527 1293.66 130.291 1293.49 130.101C1293.32 129.911 1293.1 129.775 1292.85 129.711C1292.6 129.648 1292.34 129.658 1292.1 129.743C1291.86 129.827 1291.65 129.981 1291.5 130.184C1291.34 130.388 1291.25 130.633 1291.24 130.887C1291.22 131.228 1291.34 131.563 1291.57 131.818C1291.79 132.073 1292.11 132.227 1292.45 132.247Z" fill="#0033AD" />
                        <path id="Vector_33" d="M1292.44 140.36C1292.8 140.38 1293.16 140.292 1293.48 140.107C1293.79 139.922 1294.04 139.648 1294.2 139.32C1294.36 138.992 1294.42 138.624 1294.37 138.264C1294.32 137.903 1294.16 137.566 1293.92 137.294C1293.67 137.022 1293.36 136.828 1293 136.737C1292.65 136.646 1292.28 136.661 1291.94 136.781C1291.59 136.901 1291.29 137.12 1291.07 137.411C1290.85 137.702 1290.72 138.051 1290.7 138.415C1290.68 138.903 1290.84 139.382 1291.17 139.747C1291.49 140.111 1291.95 140.332 1292.44 140.36V140.36Z" fill="#0033AD" />
                        <path id="Vector_34" d="M1282.46 159.165C1282.78 159.001 1283.05 158.744 1283.23 158.427C1283.41 158.11 1283.49 157.746 1283.47 157.383C1283.44 157.02 1283.31 156.672 1283.08 156.385C1282.86 156.098 1282.55 155.884 1282.21 155.77C1281.86 155.656 1281.49 155.647 1281.14 155.745C1280.79 155.842 1280.47 156.042 1280.23 156.318C1280 156.594 1279.85 156.935 1279.8 157.296C1279.76 157.658 1279.82 158.025 1279.98 158.35C1280.2 158.786 1280.59 159.117 1281.05 159.27C1281.52 159.422 1282.02 159.385 1282.46 159.165V159.165Z" fill="#0033AD" />
                        <path id="Vector_35" d="M1293.63 143.048C1293.25 143.631 1293.07 144.324 1293.13 145.019C1293.18 145.714 1293.47 146.37 1293.94 146.884C1294.41 147.397 1295.04 147.739 1295.73 147.854C1296.42 147.97 1297.12 147.853 1297.74 147.522C1298.35 147.191 1298.84 146.665 1299.12 146.027C1299.4 145.389 1299.46 144.676 1299.29 144C1299.12 143.324 1298.73 142.724 1298.18 142.295C1297.63 141.866 1296.95 141.633 1296.25 141.632C1295.73 141.631 1295.22 141.761 1294.76 142.008C1294.3 142.255 1293.92 142.612 1293.63 143.048V143.048Z" fill="#0033AD" />
                        <path id="Vector_36" d="M1299.08 156.15C1298.83 155.652 1298.45 155.23 1297.98 154.928C1297.51 154.626 1296.97 154.454 1296.41 154.43C1295.86 154.407 1295.3 154.532 1294.81 154.794C1294.32 155.055 1293.9 155.443 1293.61 155.918C1293.32 156.393 1293.16 156.937 1293.15 157.494C1293.14 158.051 1293.27 158.602 1293.54 159.088C1293.82 159.575 1294.21 159.98 1294.69 160.263C1295.17 160.545 1295.72 160.693 1296.28 160.693C1296.77 160.69 1297.25 160.573 1297.69 160.351C1298.43 159.977 1298.99 159.324 1299.25 158.537C1299.51 157.749 1299.45 156.891 1299.08 156.15V156.15Z" fill="#0033AD" />
                        <path id="Vector_37" d="M1304.55 155.931C1304.25 155.731 1303.89 155.626 1303.53 155.628C1303.16 155.631 1302.81 155.742 1302.51 155.947C1302.2 156.152 1301.97 156.442 1301.83 156.779C1301.7 157.117 1301.66 157.488 1301.74 157.845C1301.81 158.201 1301.99 158.528 1302.25 158.784C1302.51 159.039 1302.84 159.212 1303.2 159.28C1303.55 159.348 1303.92 159.309 1304.26 159.167C1304.6 159.025 1304.88 158.786 1305.08 158.481C1305.35 158.073 1305.44 157.575 1305.34 157.097C1305.24 156.619 1304.96 156.199 1304.55 155.931V155.931Z" fill="#0033AD" />
                        <path id="Vector_38" d="M1310.55 151.224C1310.57 150.915 1310.49 150.608 1310.34 150.342C1310.18 150.075 1309.95 149.861 1309.67 149.727C1309.39 149.592 1309.08 149.543 1308.77 149.587C1308.46 149.63 1308.18 149.762 1307.95 149.968C1307.72 150.174 1307.55 150.444 1307.47 150.744C1307.4 151.043 1307.41 151.359 1307.51 151.651C1307.61 151.943 1307.8 152.199 1308.05 152.385C1308.29 152.572 1308.59 152.681 1308.9 152.698C1309.31 152.722 1309.72 152.58 1310.03 152.303C1310.34 152.027 1310.53 151.639 1310.55 151.224V151.224Z" fill="#0033AD" />
                        <path id="Vector_39" d="M1314.89 150.11C1314.69 150.098 1314.49 150.146 1314.31 150.248C1314.14 150.349 1314 150.5 1313.92 150.681C1313.83 150.861 1313.8 151.063 1313.82 151.262C1313.85 151.46 1313.94 151.646 1314.07 151.796C1314.2 151.946 1314.38 152.052 1314.57 152.103C1314.77 152.153 1314.97 152.145 1315.16 152.079C1315.35 152.013 1315.52 151.892 1315.64 151.732C1315.76 151.572 1315.83 151.38 1315.84 151.18C1315.85 150.911 1315.76 150.648 1315.58 150.448C1315.41 150.247 1315.15 150.126 1314.89 150.11V150.11Z" fill="#0033AD" />
                        <path id="Vector_40" d="M1310.8 160.159C1310.59 160.02 1310.34 159.946 1310.09 159.949C1309.83 159.951 1309.58 160.029 1309.37 160.172C1309.16 160.316 1309 160.519 1308.9 160.755C1308.81 160.992 1308.78 161.251 1308.84 161.5C1308.89 161.75 1309.01 161.979 1309.19 162.157C1309.38 162.336 1309.61 162.457 1309.86 162.504C1310.11 162.552 1310.37 162.524 1310.6 162.425C1310.84 162.325 1311.04 162.158 1311.18 161.945C1311.27 161.803 1311.33 161.645 1311.36 161.479C1311.4 161.312 1311.39 161.141 1311.36 160.975C1311.33 160.809 1311.26 160.652 1311.16 160.512C1311.07 160.372 1310.95 160.252 1310.8 160.159V160.159Z" fill="#0033AD" />
                        <path id="Vector_41" d="M1282.04 169.622C1281.88 169.512 1281.68 169.454 1281.48 169.455C1281.28 169.457 1281.08 169.518 1280.92 169.631C1280.75 169.744 1280.62 169.903 1280.55 170.089C1280.47 170.275 1280.45 170.478 1280.49 170.675C1280.53 170.871 1280.63 171.051 1280.78 171.191C1280.92 171.332 1281.1 171.427 1281.3 171.465C1281.49 171.502 1281.7 171.48 1281.88 171.402C1282.07 171.324 1282.22 171.193 1282.33 171.025C1282.41 170.914 1282.46 170.79 1282.48 170.659C1282.51 170.528 1282.51 170.394 1282.48 170.263C1282.45 170.133 1282.4 170.009 1282.32 169.899C1282.25 169.789 1282.15 169.695 1282.04 169.622V169.622Z" fill="#0033AD" />
                        <path id="Vector_42" d="M1303.29 169.515C1303.11 169.606 1302.96 169.747 1302.86 169.921C1302.76 170.096 1302.72 170.296 1302.73 170.496C1302.75 170.696 1302.82 170.887 1302.94 171.045C1303.07 171.203 1303.23 171.32 1303.42 171.383C1303.61 171.446 1303.82 171.451 1304.01 171.397C1304.21 171.343 1304.38 171.234 1304.51 171.082C1304.64 170.93 1304.72 170.743 1304.75 170.544C1304.77 170.345 1304.74 170.143 1304.65 169.964C1304.59 169.845 1304.5 169.739 1304.4 169.652C1304.3 169.565 1304.19 169.499 1304.06 169.457C1303.93 169.416 1303.8 169.399 1303.67 169.409C1303.53 169.419 1303.4 169.455 1303.29 169.515Z" fill="#0033AD" />
                        <path id="Vector_43" d="M1291.51 159.288C1291.9 158.705 1292.07 158.011 1292.02 157.316C1291.96 156.621 1291.67 155.965 1291.2 155.452C1290.73 154.938 1290.1 154.597 1289.41 154.481C1288.72 154.366 1288.02 154.483 1287.4 154.814C1286.79 155.145 1286.31 155.671 1286.03 156.309C1285.74 156.948 1285.68 157.661 1285.86 158.337C1286.03 159.013 1286.42 159.613 1286.97 160.042C1287.52 160.47 1288.19 160.703 1288.89 160.704C1289.41 160.706 1289.92 160.577 1290.38 160.33C1290.84 160.082 1291.23 159.724 1291.51 159.288Z" fill="#0033AD" />
                        <path id="Vector_44" d="M1285.25 164.097C1284.99 163.927 1284.69 163.839 1284.38 163.842C1284.07 163.845 1283.77 163.939 1283.51 164.114C1283.26 164.288 1283.06 164.534 1282.94 164.821C1282.83 165.108 1282.8 165.423 1282.86 165.726C1282.93 166.029 1283.08 166.306 1283.3 166.523C1283.52 166.74 1283.8 166.886 1284.1 166.944C1284.41 167.001 1284.72 166.968 1285.01 166.847C1285.29 166.726 1285.54 166.523 1285.7 166.264C1285.93 165.917 1286.01 165.493 1285.93 165.087C1285.84 164.681 1285.6 164.325 1285.25 164.097V164.097Z" fill="#0033AD" />
                        <path id="Vector_45" d="M1292.56 170.094C1292.3 170.08 1292.05 170.141 1291.83 170.27C1291.61 170.4 1291.43 170.591 1291.32 170.821C1291.21 171.05 1291.17 171.308 1291.21 171.56C1291.24 171.813 1291.35 172.049 1291.52 172.239C1291.69 172.429 1291.91 172.565 1292.16 172.629C1292.41 172.693 1292.67 172.682 1292.91 172.598C1293.15 172.514 1293.36 172.361 1293.51 172.158C1293.67 171.954 1293.76 171.71 1293.77 171.455C1293.78 171.286 1293.76 171.117 1293.7 170.957C1293.65 170.797 1293.56 170.649 1293.45 170.523C1293.33 170.397 1293.2 170.294 1293.05 170.22C1292.89 170.146 1292.73 170.104 1292.56 170.094Z" fill="#0033AD" />
                        <path id="Vector_46" d="M1292.57 161.983C1292.21 161.961 1291.85 162.047 1291.53 162.231C1291.22 162.415 1290.96 162.688 1290.8 163.016C1290.64 163.344 1290.59 163.712 1290.63 164.073C1290.68 164.435 1290.84 164.773 1291.08 165.045C1291.33 165.318 1291.64 165.512 1292 165.604C1292.35 165.696 1292.72 165.681 1293.07 165.561C1293.41 165.441 1293.71 165.222 1293.93 164.931C1294.15 164.64 1294.28 164.29 1294.3 163.926C1294.33 163.439 1294.16 162.961 1293.84 162.597C1293.51 162.233 1293.06 162.012 1292.57 161.983V161.983Z" fill="#0033AD" />
                        <path id="Vector_47" d="M1300.11 163.972C1299.83 164.112 1299.6 164.331 1299.45 164.601C1299.3 164.872 1299.23 165.181 1299.25 165.49C1299.28 165.799 1299.39 166.094 1299.58 166.338C1299.78 166.581 1300.04 166.762 1300.33 166.858C1300.62 166.954 1300.94 166.961 1301.24 166.876C1301.54 166.792 1301.8 166.622 1302.01 166.386C1302.21 166.15 1302.33 165.86 1302.37 165.552C1302.41 165.244 1302.35 164.933 1302.21 164.657C1302.12 164.473 1301.99 164.31 1301.83 164.177C1301.68 164.043 1301.5 163.941 1301.3 163.878C1301.1 163.814 1300.9 163.79 1300.69 163.806C1300.49 163.822 1300.29 163.878 1300.11 163.972V163.972Z" fill="#0033AD" />
                        <path id="Vector_48" d="M1334.68 143.768C1337.71 143.768 1339.84 145.436 1339.84 148.531H1343.81C1343.81 143.101 1339.81 140.485 1334.62 140.485C1328.25 140.485 1324.55 143.945 1324.55 151.257C1324.55 158.75 1328.25 162.027 1334.62 162.027C1339.87 162.027 1343.81 159.48 1343.81 154.047H1339.99C1339.99 157.081 1337.89 158.75 1334.68 158.75C1330.46 158.75 1328.52 156.413 1328.52 151.56V150.954C1328.52 146.194 1330.49 143.768 1334.68 143.768Z" fill="#0033AD" />
                        <path id="Vector_49" d="M1354.32 140.855L1346.22 161.669H1350.22L1351.89 157.148H1361.41L1363.12 161.669H1367.31L1359.2 140.855H1354.32ZM1353.1 153.866L1355.23 148.16C1355.65 147.038 1356.41 144.611 1356.56 144.186H1356.71C1356.87 144.611 1357.62 147.068 1358.05 148.16L1360.17 153.864L1353.1 153.866Z" fill="#0033AD" />
                        <path id="Vector_50" d="M1388.97 147.165C1388.97 143.313 1386.76 140.855 1382.18 140.855H1371.19V161.669H1375.08V153.623H1381.54L1385.48 161.669H1389.72L1385.27 153.022C1387.73 152.051 1388.97 149.988 1388.97 147.165ZM1381.87 150.351H1375.08V144.162H1381.87C1383.97 144.162 1385.06 145.285 1385.06 147.165C1385.06 149.139 1383.88 150.351 1381.87 150.351Z" fill="#0033AD" />
                        <path id="Vector_51" d="M1402.6 140.855H1394.28V161.669H1402.59C1408.87 161.669 1412.7 158.393 1412.7 151.262C1412.7 144.131 1408.88 140.855 1402.6 140.855ZM1408.73 151.565C1408.7 156.117 1406.54 158.362 1402.6 158.362H1398.17V144.162H1402.6C1406.54 144.162 1408.73 146.408 1408.73 150.959V151.565Z" fill="#0033AD" />
                        <path id="Vector_52" d="M1422.87 140.855L1414.77 161.669H1418.77L1420.44 157.148H1429.97L1431.67 161.669H1435.85L1427.75 140.855H1422.87ZM1421.66 153.866L1423.78 148.16C1424.2 147.038 1424.96 144.611 1425.11 144.186H1425.27C1425.42 144.611 1426.18 147.068 1426.6 148.16L1428.73 153.864L1421.66 153.866Z" fill="#0033AD" />
                        <path id="Vector_53" d="M1453.61 153.234C1453.61 153.628 1453.67 154.689 1453.67 154.873L1453.52 154.933C1453.43 154.813 1452.82 153.75 1452.49 153.265L1443.45 140.855H1439.74V161.669H1443.48V149.199C1443.48 148.685 1443.41 147.682 1443.41 147.53L1443.57 147.439C1443.66 147.561 1444.11 148.441 1444.59 149.139L1453.7 161.669H1457.34V140.855H1453.61V153.234H1453.61Z" fill="#0033AD" />
                        <path id="Vector_54" d="M1472.81 140.492C1466.28 140.492 1462.34 143.95 1462.34 151.262C1462.34 158.574 1466.28 162.032 1472.81 162.032C1479.34 162.032 1483.31 158.574 1483.31 151.262C1483.31 143.95 1479.33 140.492 1472.81 140.492ZM1479.33 151.596C1479.33 156.359 1477.06 158.755 1472.81 158.755C1468.59 158.755 1466.32 156.359 1466.32 151.596V150.959C1466.32 146.194 1468.62 143.768 1472.81 143.768C1477.03 143.768 1479.33 146.194 1479.33 150.959V151.596Z" fill="#0033AD" />
                    </g>
                </g>
                <path id="top_border_5" d="M1277.93 64.9555C1277.93 64.9555 1312.59 20.087 1376.31 20.087C1440.02 20.087 1474.68 64.9555 1474.68 64.9555" stroke="url(#paint11_linear_28_12)" stroke-width="1.5" />
                <path id="bottom_border_5" d="M1277.93 237.101C1277.93 237.101 1315.99 282.912 1376.31 282.912C1436.62 282.912 1474.68 237.101 1474.68 237.101" stroke="url(#paint12_linear_28_12)" stroke-width="1.5" />
            </g>
            <path id="top" d="M1078.58 16.286C1158.41 16.286 1292.72 16.286 1393.76 16.286C1467.92 16.286 1528 76.4086 1528 150.574V150.574C1528 224.289 1468.58 284.22 1394.87 284.747C1296.21 285.453 1164.5 286.26 1078.58 286.26C1157.55 286.098 1158.99 16.286 1078.58 16.286Z" fill="white" />
            <g id="stroke">
                <path id="stroke_1" d="M1159.58 289.917C1183 289.917 1216.43 227.765 1216.43 153.917C1216.43 80.0688 1187 19.917 1159.58 19.917" stroke="url(#paint13_linear_28_12)" stroke-width="2" />
                <path id="stroke_2" d="M1276.93 289.917C1296 289.917 1333.79 227.765 1333.79 153.917C1333.79 80.0688 1296 19.917 1276.93 19.917" stroke="url(#paint14_linear_28_12)" stroke-width="2" />
                <path id="stroke_3" d="M1394.29 289.917C1411 289.917 1451.14 227.765 1451.14 153.917C1451.14 80.0688 1409 19.917 1394.29 19.917" stroke="url(#paint15_linear_28_12)" stroke-width="2" />
            </g>
        </g>
    </g>
    <defs>
        <linearGradient id="paint0_linear_28_12" x1="1146.83" y1="151.849" x2="810.594" y2="151.849" gradientUnits="userSpaceOnUse">
            <stop stop-color="#CF0A2C" />
            <stop offset="1" stop-color="#CF0A2C" stop-opacity="0" />
        </linearGradient>
        <linearGradient id="paint1_linear_28_12" x1="1236.71" y1="151.849" x2="957.071" y2="151.849" gradientUnits="userSpaceOnUse">
            <stop />
            <stop offset="1" stop-color="white" stop-opacity="0" />
        </linearGradient>
        <linearGradient id="paint2_linear_28_12" x1="1236.71" y1="151.85" x2="957.071" y2="151.85" gradientUnits="userSpaceOnUse">
            <stop stop-color="white" />
            <stop offset="1" stop-opacity="0" />
        </linearGradient>
        <linearGradient id="paint3_linear_28_12" x1="1474.68" y1="237.815" x2="1277.93" y2="237.815" gradientUnits="userSpaceOnUse">
            <stop stop-color="#CF0A2C" stop-opacity="0" />
            <stop offset="0.476859" stop-color="#CF0A2C" />
            <stop offset="1" stop-color="#CF0A2C" stop-opacity="0" />
        </linearGradient>
        <linearGradient id="paint4_linear_28_12" x1="1474.68" y1="237.101" x2="1277.93" y2="237.101" gradientUnits="userSpaceOnUse">
            <stop stop-color="#CF0A2C" stop-opacity="0" />
            <stop offset="0.510417" stop-color="#CF0A2C" />
            <stop offset="1" stop-color="#CF0A2C" stop-opacity="0" />
        </linearGradient>
        <linearGradient id="paint5_linear_28_12" x1="1474.68" y1="237.815" x2="1277.93" y2="237.815" gradientUnits="userSpaceOnUse">
            <stop stop-color="#CF0A2C" stop-opacity="0" />
            <stop offset="0.476859" stop-color="#CF0A2C" />
            <stop offset="1" stop-color="#CF0A2C" stop-opacity="0" />
        </linearGradient>
        <linearGradient id="paint6_linear_28_12" x1="1474.68" y1="237.101" x2="1277.93" y2="237.101" gradientUnits="userSpaceOnUse">
            <stop stop-color="#CF0A2C" stop-opacity="0" />
            <stop offset="0.510417" stop-color="#CF0A2C" />
            <stop offset="1" stop-color="#CF0A2C" stop-opacity="0" />
        </linearGradient>
        <linearGradient id="paint7_linear_28_12" x1="1474.68" y1="237.815" x2="1277.93" y2="237.815" gradientUnits="userSpaceOnUse">
            <stop stop-color="#CF0A2C" stop-opacity="0" />
            <stop offset="0.476859" stop-color="#CF0A2C" />
            <stop offset="1" stop-color="#CF0A2C" stop-opacity="0" />
        </linearGradient>
        <linearGradient id="paint8_linear_28_12" x1="1474.68" y1="237.101" x2="1277.93" y2="237.101" gradientUnits="userSpaceOnUse">
            <stop stop-color="#CF0A2C" stop-opacity="0" />
            <stop offset="0.510417" stop-color="#CF0A2C" />
            <stop offset="1" stop-color="#CF0A2C" stop-opacity="0" />
        </linearGradient>
        <linearGradient id="paint9_linear_28_12" x1="1474.68" y1="237.815" x2="1277.93" y2="237.815" gradientUnits="userSpaceOnUse">
            <stop stop-color="#CF0A2C" stop-opacity="0" />
            <stop offset="0.476859" stop-color="#CF0A2C" />
            <stop offset="1" stop-color="#CF0A2C" stop-opacity="0" />
        </linearGradient>
        <linearGradient id="paint10_linear_28_12" x1="1474.68" y1="237.101" x2="1277.93" y2="237.101" gradientUnits="userSpaceOnUse">
            <stop stop-color="#CF0A2C" stop-opacity="0" />
            <stop offset="0.510417" stop-color="#CF0A2C" />
            <stop offset="1" stop-color="#CF0A2C" stop-opacity="0" />
        </linearGradient>
        <linearGradient id="paint11_linear_28_12" x1="1474.68" y1="237.815" x2="1277.93" y2="237.815" gradientUnits="userSpaceOnUse">
            <stop stop-color="#CF0A2C" stop-opacity="0" />
            <stop offset="0.476859" stop-color="#CF0A2C" />
            <stop offset="1" stop-color="#CF0A2C" stop-opacity="0" />
        </linearGradient>
        <linearGradient id="paint12_linear_28_12" x1="1474.68" y1="237.101" x2="1277.93" y2="237.101" gradientUnits="userSpaceOnUse">
            <stop stop-color="#CF0A2C" stop-opacity="0" />
            <stop offset="0.510417" stop-color="#CF0A2C" />
            <stop offset="1" stop-color="#CF0A2C" stop-opacity="0" />
        </linearGradient>
        <linearGradient id="paint13_linear_28_12" x1="1188" y1="19.917" x2="1188" y2="289.917" gradientUnits="userSpaceOnUse">
            <stop stop-color="#CF0A2C" stop-opacity="0" />
            <stop offset="0.510417" stop-color="#CF0A2C" />
            <stop offset="1" stop-opacity="0" />
            <stop offset="1" stop-color="#CF0A2C" stop-opacity="0" />
        </linearGradient>
        <linearGradient id="paint14_linear_28_12" x1="1305.36" y1="19.917" x2="1305.36" y2="289.917" gradientUnits="userSpaceOnUse">
            <stop stop-color="#CF0A2C" stop-opacity="0" />
            <stop offset="0.510417" stop-color="#CF0A2C" />
            <stop offset="1" stop-opacity="0" />
            <stop offset="1" stop-color="#CF0A2C" stop-opacity="0" />
        </linearGradient>
        <linearGradient id="paint15_linear_28_12" x1="1422.71" y1="19.917" x2="1422.71" y2="289.917" gradientUnits="userSpaceOnUse">
            <stop stop-color="#CF0A2C" stop-opacity="0" />
            <stop offset="0.510417" stop-color="#CF0A2C" />
            <stop offset="1" stop-opacity="0" />
            <stop offset="1" stop-color="#CF0A2C" stop-opacity="0" />
        </linearGradient>
        <clipPath id="clip0_28_12">
            <rect width="1548" height="300" rx="150" fill="white" />
        </clipPath>

        <style>

        :root {
        --stroke_duration: 1.5s;
      }

      #stroke_1 {
        stroke-dasharray: 343.68743896484375;
        stroke-dashoffset: -343.68743896484375;
        animation: strokeInOutClock var(--stroke_duration) linear infinite;
      }

      #stroke_2 {
        stroke-dasharray: 343.68743896484375;
        stroke-dashoffset: 343.68743896484375;
        animation: strokeInOutAntiClock var(--stroke_duration) linear infinite;
      }

      #stroke_3 {
        stroke-dasharray: 343.68743896484375;
        stroke-dashoffset: -343.68743896484375;
        animation: strokeInOutClock var(--stroke_duration) linear infinite;
      }

      @keyframes strokeInOutClock {
        0% {
          stroke-dashoffset: -343.68743896484375;
        }

        50% {
          stroke-dashoffset: 0;
        }

        100% {
          stroke-dashoffset: 343.68743896484375;
        }
      }

      @keyframes strokeInOutAntiClock {
        0% {
          stroke-dashoffset: 343.68743896484375;
        }

        50% {
          stroke-dashoffset: 0;
        }

        100% {
          stroke-dashoffset: -343.68743896484375;
        }
      }

      #ball_1,
      #ball_2,
      #ball_3,
      #ball_4,
      #ball_5 {
        transform: translateX(-1500px);
        animation: ballIn 3s linear infinite;
      }

      #ball_2 {
        animation: ballIn 3s linear 1.5s infinite;
      }

      #ball_3 {
        animation: ballIn 3s linear 3s infinite;
      }

      #ball_4 {
        animation: ballIn 3s linear 4.5s infinite;
      }

      #ball_5 {
        animation: ballIn 3s linear 6s infinite;
      }

      @keyframes ballIn {
        100% {
          transform: translateX(0px);
        }
      }

      #logo_1,
      #logo_2,
      #logo_3,
      #logo_4,
      #logo_5 {
        transform-box: fill-box;
        transform-origin: center;
        animation: rotate 6s linear infinite;
      }

      @keyframes rotate {
        100% {
          transform: rotate(360deg);
        }
      }
        </style>
    </defs>
</svg>