<svg width="170" height="44" viewBox="0 0 170 44" fill="none" xmlns="http://www.w3.org/2000/svg">
<path d="M48.8711 25.1931C48.8711 25.4905 48.6206 25.7409 48.3076 25.7409H37.9302C38.1963 28.3079 40.1215 30.6557 42.845 30.6557C44.7076 30.6557 46.085 29.9514 47.118 28.4644C47.2276 28.3079 47.3841 28.1983 47.5719 28.1983C47.8693 28.1983 48.0885 28.4175 48.0885 28.7148C48.0885 28.8244 48.0572 28.9027 48.0102 28.9809C46.9615 30.7966 44.8798 31.6887 42.845 31.6887C39.3546 31.6887 36.8502 28.5583 36.8502 25.2244C36.8502 21.8749 39.3389 18.7601 42.845 18.7601C46.3354 18.7601 48.8554 21.8592 48.8711 25.1931ZM47.7598 24.7079C47.5406 22.1409 45.5685 19.7931 42.845 19.7931C40.1215 19.7931 38.1963 22.1409 37.9302 24.7079H47.7598ZM61.471 19.0105C61.7684 19.0105 61.9876 19.2766 61.9876 19.527C61.9876 19.8244 61.7684 20.0436 61.471 20.0436H58.6849V30.9844C58.6849 31.2505 58.4658 31.5009 58.1684 31.5009C57.871 31.5009 57.6519 31.2348 57.6519 30.9844V20.0436H54.9754C54.678 20.0436 54.4589 19.8244 54.4589 19.527C54.4589 19.261 54.678 19.0105 54.9754 19.0105H57.6519V15.0192C57.6519 14.7531 57.8554 14.5027 58.1215 14.4714C58.4502 14.4401 58.7006 14.6749 58.7006 14.9879V19.0105H61.471ZM78.4692 24.3009V30.9218C78.4692 31.2192 78.2032 31.4383 77.9527 31.4383C77.6553 31.4383 77.4362 31.2192 77.4362 30.9218V24.3009C77.4362 22.0627 76.1684 19.8401 73.6797 19.8401C70.4867 19.8401 69.1093 22.6262 69.2971 25.4905C69.2971 25.5688 69.3284 25.8975 69.3284 25.9444V30.9061C69.3284 31.1722 69.1249 31.4227 68.8588 31.454C68.5301 31.4853 68.2797 31.2505 68.2797 30.9374V9.16532C68.2797 8.89924 68.4988 8.6488 68.7962 8.6488C69.0936 8.6488 69.3128 8.91489 69.3128 9.16532V21.4679C70.2049 19.8714 71.8014 18.7914 73.664 18.7914C76.7319 18.7914 78.4692 21.4679 78.4692 24.3009ZM97.111 25.1931C97.111 25.4905 96.8605 25.7409 96.5475 25.7409H86.1701C86.4362 28.3079 88.3614 30.6557 91.0849 30.6557C92.9475 30.6557 94.3249 29.9514 95.3579 28.4644C95.4675 28.3079 95.624 28.1983 95.8118 28.1983C96.1092 28.1983 96.3283 28.4175 96.3283 28.7148C96.3283 28.8244 96.297 28.9027 96.2501 28.9809C95.2014 30.7966 93.1197 31.6887 91.0849 31.6887C87.5945 31.6887 85.0901 28.5583 85.0901 25.2244C85.0901 21.8749 87.5788 18.7601 91.0849 18.7601C94.5597 18.7601 97.0796 21.8592 97.111 25.1931ZM95.984 24.7079C95.7649 22.1409 93.7927 19.7931 91.0692 19.7931C88.3614 19.7931 86.4205 22.1409 86.1545 24.7079H95.984ZM109.852 19.4957C109.852 19.8244 109.664 20.0123 109.367 20.0592C106.314 20.5131 104.937 23.0018 104.937 25.8975V30.8592C104.937 31.1253 104.734 31.3757 104.467 31.407C104.139 31.4383 103.888 31.2035 103.888 30.8905V19.574C103.888 19.3079 104.092 19.0575 104.358 19.0262C104.687 18.9949 104.937 19.2296 104.937 19.5427V21.8436C105.798 20.3879 107.504 19.0105 109.288 19.0105C109.554 19.0105 109.852 19.1983 109.852 19.4957ZM126.928 25.1931C126.928 25.4905 126.678 25.7409 126.365 25.7409H115.987C116.254 28.3079 118.179 30.6557 120.902 30.6557C122.765 30.6557 124.142 29.9514 125.175 28.4644C125.285 28.3079 125.441 28.1983 125.629 28.1983C125.927 28.1983 126.146 28.4175 126.146 28.7148C126.146 28.8244 126.114 28.9027 126.067 28.9809C125.019 30.7966 122.937 31.6887 120.902 31.6887C117.412 31.6887 114.907 28.5583 114.907 25.2244C114.907 21.8749 117.396 18.7601 120.902 18.7601C124.393 18.7601 126.913 21.8592 126.928 25.1931ZM125.817 24.7079C125.598 22.1409 123.626 19.7931 120.902 19.7931C118.179 19.7931 116.254 22.1409 115.987 24.7079H125.817ZM143.707 19.621V30.9844C143.707 31.2818 143.441 31.5009 143.191 31.5009C142.893 31.5009 142.674 31.2818 142.674 30.9844V28.8244C141.813 30.5305 140.295 31.767 138.354 31.767C135.271 31.767 133.565 29.0905 133.565 26.2575V19.6053C133.565 19.3392 133.784 19.0888 134.081 19.0888C134.379 19.0888 134.598 19.3549 134.598 19.6053V26.2575C134.598 28.4957 135.866 30.7183 138.354 30.7183C141.845 30.7183 142.674 27.447 142.674 23.8314V19.5896C142.674 19.2766 143.003 18.9636 143.379 19.1044C143.566 19.1983 143.707 19.4018 143.707 19.621ZM169.987 24.254V30.9061C169.987 31.2035 169.721 31.4227 169.471 31.4227C169.173 31.4227 168.954 31.2035 168.954 30.9061V24.254C168.954 22.0157 167.686 19.8244 165.198 19.8244C162.067 19.8244 160.878 23.174 160.878 25.7722V30.9061C160.878 31.2035 160.612 31.4227 160.361 31.4227C160.064 31.4227 159.845 31.2035 159.845 30.9061V24.254C159.845 22.0157 158.577 19.8244 156.088 19.8244C152.926 19.8244 151.627 22.3131 151.737 25.6314C151.737 25.7096 151.768 25.8505 151.737 25.8975V30.8905C151.737 31.1566 151.533 31.407 151.267 31.4383C150.939 31.4696 150.688 31.2348 150.688 30.9218V19.574C150.688 19.3079 150.892 19.0575 151.158 19.0262C151.486 18.9949 151.737 19.2296 151.737 19.5427V21.4366C152.629 19.8401 154.226 18.7914 156.088 18.7914C158.201 18.7914 159.845 20.1375 160.518 22.094C161.379 20.1531 163.053 18.7914 165.198 18.7914C168.25 18.7914 169.987 21.4366 169.987 24.254Z" fill="#3B3B3B"/>
<path opacity="0.6" d="M13.9355 30.0767L26.9424 22.3915L13.9355 16.4906L0.944214 22.3915L13.9355 30.0767Z" fill="black"/>
<path opacity="0.45" d="M13.9355 16.4905V0.822754L0.944214 22.3914L13.9355 30.0766V16.4905Z" fill="black"/>
<path opacity="0.8" d="M13.9355 30.0766L26.9425 22.3914L13.9355 0.822754V16.4905V30.0766Z" fill="black"/>
<path opacity="0.45" d="M13.9355 32.5339L0.944214 24.8644L13.9355 43.1774V32.5339Z" fill="black"/>
<path opacity="0.8" d="M26.9425 24.8644L13.9355 32.5339V43.1774L26.9425 24.8644Z" fill="black"/>
</svg>
