<svg width="153" height="42" viewBox="0 0 153 42" fill="none" xmlns="http://www.w3.org/2000/svg">
<path d="M21.415 41.5955C32.7896 41.5955 42.0105 32.3746 42.0105 21C42.0105 9.62546 32.7896 0.404541 21.415 0.404541C10.0404 0.404541 0.819519 9.62546 0.819519 21C0.819519 32.3746 10.0404 41.5955 21.415 41.5955Z" fill="#26A17B"/>
<path d="M23.6102 22.9004V22.8971C23.4678 22.9071 22.7328 22.9501 21.097 22.9501C19.7891 22.9501 18.8719 22.9137 18.5474 22.8971V22.9004C13.5178 22.6786 9.76621 21.8044 9.76621 20.7548C9.76621 19.7085 13.5211 18.831 18.5474 18.6092V22.0296C18.8752 22.0528 19.8189 22.1091 21.1202 22.1091C22.6831 22.1091 23.4645 22.0428 23.6102 22.0296V18.6125C28.63 18.8376 32.3716 19.7118 32.3716 20.7581C32.3716 21.8044 28.6266 22.6786 23.6102 22.9037M23.6102 18.2582V15.1986H30.6134V10.5332H11.5476V15.1986H18.5508V18.2582C12.8588 18.5198 8.58081 19.6456 8.58081 20.9965C8.58081 22.3475 12.8622 23.4733 18.5508 23.7382V33.5459H23.6135V23.7382C29.2955 23.4766 33.5669 22.3508 33.5669 20.9998C33.5669 19.6522 29.2955 18.5231 23.6135 18.2615" fill="white"/>
<path d="M59.5051 11.8081V16.755H64.3129V20.4669H59.472V27.9932C59.472 29.6554 60.3892 30.4666 61.7335 30.4666C62.4057 30.4666 63.1838 30.2547 63.8195 29.9368L65.0215 33.6122C63.7864 34.1056 62.76 34.3175 61.4521 34.3539C57.6707 34.4963 55.1973 32.3407 55.1973 27.9932V20.4669H51.9457V16.755H55.1973V12.2684L59.5051 11.8081ZM142.394 16.5233L142.712 18.5365C144.056 16.3809 145.857 16.063 147.625 16.063C149.427 16.063 151.158 16.7683 152.112 17.7219L150.168 21.4668C149.284 20.7251 148.473 20.3344 147.059 20.3344C144.798 20.3344 142.712 21.5364 142.712 24.7515V33.94H138.4V16.5166L142.394 16.5233ZM131.828 23.2019C131.546 20.9404 129.778 19.8079 127.305 19.8079C124.974 19.8079 123.063 20.9404 122.427 23.2019H131.828ZM122.358 26.7713C122.639 28.9269 124.513 30.4832 127.553 30.4832C129.142 30.4832 131.228 29.8805 132.218 28.8574L134.973 31.5792C133.136 33.4864 130.132 34.4069 127.48 34.4069C121.474 34.4069 117.901 30.6951 117.901 25.1124C117.901 19.8113 121.507 15.9935 127.162 15.9935C132.993 15.9935 136.636 19.5993 135.963 26.7713H122.358ZM103.345 9.20557V18.8874C104.901 16.8742 106.808 16.2716 108.789 16.2716C113.735 16.2716 115.927 19.6291 115.927 24.7548V33.9433H111.616V24.7913C111.616 21.6092 109.954 20.2682 107.656 20.2682C105.11 20.2682 103.345 22.4238 103.345 25.0396V33.9466H99.0339V9.20888L103.345 9.20557ZM91.895 11.6095V16.5564H96.7028V20.2682H91.8619V27.7945C91.8619 29.4567 92.7824 30.2679 94.1234 30.2679C94.7956 30.2679 95.5737 30.056 96.2094 29.7381L97.4114 33.4135C96.1763 33.9069 95.1499 34.1188 93.8419 34.1553C90.0606 34.2976 87.5871 32.1387 87.5871 27.7945V20.2682H84.3356V16.5564H87.5871V12.0697L91.895 11.6095ZM79.9847 23.2019C79.7032 20.9404 77.9351 19.8079 75.4616 19.8079C73.1306 19.8079 71.22 20.9404 70.5843 23.2019H79.9847ZM70.5147 26.7713C70.7962 28.9269 72.6703 30.4832 75.71 30.4832C77.2993 30.4832 79.3854 29.8805 80.3754 28.8574L83.1303 31.5792C81.2926 33.4864 78.2894 34.4069 75.6371 34.4069C69.6273 34.4069 66.0579 30.6951 66.0579 25.1124C66.0579 19.8113 69.6638 15.9935 75.3159 15.9935C81.1469 15.9935 84.7859 19.5993 84.117 26.7713H70.5147Z" fill="#5B5A5D"/>
</svg>
