<svg width="153" height="38" viewBox="0 0 153 38" fill="none" xmlns="http://www.w3.org/2000/svg">
<path d="M44.7937 9.40474H46.034C46.3497 9.40474 46.609 9.66407 46.609 9.97977V21.0746C46.609 24.5811 48.5033 26.7911 52.0437 26.7911C55.5728 26.7911 57.4783 24.5811 57.4783 21.0746V9.97977C57.4783 9.66407 57.7377 9.40474 58.0534 9.40474H59.2936C59.6093 9.40474 59.8687 9.66407 59.8687 9.97977V21.0971C59.8687 25.8665 57.2528 28.9108 52.055 28.9108C46.8571 28.9108 44.2413 25.844 44.2413 21.1197V9.9685C44.23 9.65279 44.4893 9.39346 44.8163 9.39346L44.7937 9.40474ZM63.4993 24.5135C63.6797 24.2767 64.0292 24.2542 64.2434 24.4571C65.5288 25.7087 67.4456 26.7798 69.881 26.7798C73.2974 26.7798 74.3911 24.9419 74.3911 23.4762C74.3911 21.176 72.0684 20.5446 69.5428 19.8568C66.4759 19.045 63.0483 18.1881 63.0483 14.4222C63.0483 11.2651 65.8671 9.11158 69.633 9.11158C72.339 9.11158 74.4813 9.93467 76.0598 11.4004C76.2853 11.6034 76.3079 11.9529 76.1162 12.1897L75.372 13.103C75.1916 13.3285 74.8534 13.3398 74.6392 13.1481C73.241 11.8402 71.3919 11.2313 69.4751 11.2313C67.175 11.2313 65.5401 12.4716 65.5401 14.2756C65.5401 16.2037 67.75 16.7787 70.1967 17.4327C73.3312 18.267 76.8942 19.248 76.8942 23.2732C76.8942 26.0582 75 28.8995 69.8247 28.8995C66.7353 28.8995 64.4013 27.8058 62.8115 26.2273C62.6085 26.0244 62.586 25.6974 62.7664 25.4606L63.5218 24.5022L63.4993 24.5135ZM79.7017 9.97977C79.7017 9.66407 79.961 9.40474 80.2767 9.40474H86.2526C92.1946 9.40474 96.0846 13.5653 96.0846 18.9999C96.0846 24.4571 92.2059 28.5725 86.2526 28.5725H80.2767C79.961 28.5725 79.7017 28.3132 79.7017 27.9975V9.97977ZM86.2526 26.4415C90.9092 26.4415 93.604 23.1041 93.604 18.9999C93.604 14.8619 90.9882 11.5245 86.2526 11.5245H82.0921V26.4415H86.2526ZM119.932 21.6158C119.932 17.5905 122.581 14.3433 126.798 14.3433C131.026 14.3433 133.665 17.5905 133.665 21.6158C133.665 25.641 131.015 28.9221 126.798 28.9221C122.57 28.9221 119.932 25.641 119.932 21.6158ZM131.398 21.6158C131.398 18.797 129.764 16.2713 126.798 16.2713C123.833 16.2713 122.175 18.797 122.175 21.6158C122.175 24.4571 123.844 26.994 126.798 26.994C129.764 26.994 131.398 24.4684 131.398 21.6158ZM135.739 10.8931C135.739 10.0813 136.405 9.46112 137.171 9.46112C137.983 9.46112 138.637 10.0925 138.637 10.8931C138.637 11.7049 137.972 12.3588 137.171 12.3588C136.393 12.3588 135.739 11.6936 135.739 10.8931ZM136.686 14.6815H137.69C138.006 14.6815 138.265 14.9409 138.265 15.2566V27.9862C138.265 28.3019 138.006 28.5613 137.69 28.5613H136.686C136.371 28.5613 136.111 28.3019 136.111 27.9862V15.2566C136.111 14.9409 136.371 14.6815 136.686 14.6815ZM150.679 19.4848C150.679 17.038 149.439 16.2713 147.578 16.2713C145.887 16.2713 144.275 17.3086 143.463 18.4249V27.9975C143.463 28.3132 143.204 28.5725 142.888 28.5725H141.884C141.569 28.5725 141.309 28.3132 141.309 27.9975V15.2678C141.309 14.9521 141.569 14.6928 141.884 14.6928H142.888C143.204 14.6928 143.463 14.9521 143.463 15.2678V16.6998C144.433 15.5497 146.338 14.3433 148.401 14.3433C151.31 14.3433 152.833 15.809 152.833 18.8195V27.9862C152.833 28.3019 152.573 28.5613 152.258 28.5613H151.254C150.938 28.5613 150.679 28.3019 150.679 27.9862L150.668 19.4848H150.679ZM101.53 18.9886C101.53 13.0917 105.871 9.07776 111.306 9.07776C114.519 9.07776 116.786 10.4759 118.308 12.4039C118.5 12.6407 118.432 13.0015 118.161 13.1594L117.09 13.757C116.853 13.8923 116.538 13.8359 116.369 13.6217C115.23 12.2123 113.392 11.22 111.306 11.22C107.191 11.22 104 14.4335 104 19.0112C104 23.5551 107.191 26.8023 111.306 26.8023C113.392 26.8023 115.241 25.8327 116.369 24.4007C116.549 24.1752 116.842 24.1189 117.09 24.2542L118.173 24.8517C118.455 25.0096 118.522 25.3704 118.319 25.6185C116.741 27.5578 114.519 28.9334 111.306 28.9334C105.871 28.9221 101.53 24.9081 101.53 19.0112V18.9886Z" fill="#4D4D4F"/>
<path d="M18.7931 0.305664C29.1212 0.305664 37.4874 8.67185 37.4874 18.9999C37.4874 29.328 29.1212 37.6942 18.7931 37.6942C8.46506 37.6942 0.098877 29.328 0.098877 18.9999C0.098877 8.67185 8.46506 0.305664 18.7931 0.305664Z" fill="#2675CA"/>
<path d="M15.2866 32.0003C15.2866 32.4401 14.9371 32.6881 14.5199 32.5528C8.87101 30.7488 4.76685 25.4495 4.76685 19.1917C4.76685 12.934 8.85974 7.63468 14.5199 5.83065C14.9483 5.69534 15.2866 5.9434 15.2866 6.38313V7.46555C15.2866 7.7587 15.0611 8.10823 14.7792 8.19843C10.303 9.84461 7.10081 14.1405 7.10081 19.1692C7.10081 24.2092 10.303 28.505 14.7792 30.1399C15.0611 30.2414 15.2866 30.5797 15.2866 30.8728V31.9778V32.0003Z" fill="white"/>
<path d="M19.9658 27.9638C19.9658 28.2908 19.7064 28.5501 19.3795 28.5501H18.2181C17.8911 28.5501 17.6318 28.2908 17.6318 27.9638V26.1147C15.0836 25.7651 13.8321 24.3445 13.4938 22.3939C13.4374 22.0669 13.6968 21.7624 14.035 21.7624H15.3655C15.6474 21.7624 15.8842 21.9654 15.9405 22.236C16.1886 23.3973 16.8538 24.2768 18.9059 24.2768C20.4168 24.2768 21.4879 23.4312 21.4879 22.1683C21.4879 20.9055 20.8565 20.432 18.6466 20.0599C15.3768 19.6202 13.8321 18.6279 13.8321 16.0685C13.8321 14.084 15.3317 12.5506 17.6431 12.2236V10.4083C17.6431 10.0814 17.9024 9.82202 18.2294 9.82202H19.3907C19.7177 9.82202 19.977 10.0814 19.977 10.4083V12.2687C21.86 12.607 23.0552 13.6781 23.4498 15.4483C23.5287 15.7866 23.2581 16.1023 22.9199 16.1023H21.6909C21.4315 16.1023 21.206 15.9219 21.1271 15.6738C20.8001 14.5463 19.9883 14.0615 18.5902 14.0615C17.0455 14.0615 16.245 14.8057 16.245 15.8542C16.245 16.9592 16.696 17.523 19.075 17.8612C22.2885 18.301 23.9459 19.2142 23.9459 21.9541C23.9459 24.0288 22.4012 25.7088 19.9996 26.0921V27.9412H19.9883L19.9658 27.9638Z" fill="white"/>
<path d="M23.0665 32.5639C22.638 32.6992 22.2997 32.4512 22.2997 32.0114V30.929C22.2997 30.602 22.5027 30.3089 22.8071 30.1961C27.2834 28.55 30.4855 24.2541 30.4855 19.2254C30.4855 14.1854 27.2834 9.88953 22.8071 8.25463C22.5252 8.15315 22.2997 7.8149 22.2997 7.52174V6.43932C22.2997 5.99959 22.6493 5.74026 23.0665 5.88684C28.7153 7.69087 32.8195 12.9902 32.8195 19.2479C32.8082 25.4831 28.7266 30.7824 23.0665 32.5865V32.5639Z" fill="white"/>
</svg>
